G04 #@! TF.GenerationSoftware,KiCad,Pcbnew,(6.0.9)*
G04 #@! TF.CreationDate,2023-02-13T11:25:36-05:00*
G04 #@! TF.ProjectId,1W Experiments,31572045-7870-4657-9269-6d656e74732e,rev?*
G04 #@! TF.SameCoordinates,Original*
G04 #@! TF.FileFunction,Copper,L2,Bot*
G04 #@! TF.FilePolarity,Positive*
%FSLAX46Y46*%
G04 Gerber Fmt 4.6, Leading zero omitted, Abs format (unit mm)*
G04 Created by KiCad (PCBNEW (6.0.9)) date 2023-02-13 11:25:36*
%MOMM*%
%LPD*%
G01*
G04 APERTURE LIST*
G04 Aperture macros list*
%AMRoundRect*
0 Rectangle with rounded corners*
0 $1 Rounding radius*
0 $2 $3 $4 $5 $6 $7 $8 $9 X,Y pos of 4 corners*
0 Add a 4 corners polygon primitive as box body*
4,1,4,$2,$3,$4,$5,$6,$7,$8,$9,$2,$3,0*
0 Add four circle primitives for the rounded corners*
1,1,$1+$1,$2,$3*
1,1,$1+$1,$4,$5*
1,1,$1+$1,$6,$7*
1,1,$1+$1,$8,$9*
0 Add four rect primitives between the rounded corners*
20,1,$1+$1,$2,$3,$4,$5,0*
20,1,$1+$1,$4,$5,$6,$7,0*
20,1,$1+$1,$6,$7,$8,$9,0*
20,1,$1+$1,$8,$9,$2,$3,0*%
G04 Aperture macros list end*
G04 #@! TA.AperFunction,ComponentPad*
%ADD10O,1.550000X0.890000*%
G04 #@! TD*
G04 #@! TA.AperFunction,ComponentPad*
%ADD11O,0.950000X1.250000*%
G04 #@! TD*
G04 #@! TA.AperFunction,ComponentPad*
%ADD12R,1.500000X1.050000*%
G04 #@! TD*
G04 #@! TA.AperFunction,ComponentPad*
%ADD13O,1.500000X1.050000*%
G04 #@! TD*
G04 #@! TA.AperFunction,ComponentPad*
%ADD14R,1.700000X1.700000*%
G04 #@! TD*
G04 #@! TA.AperFunction,ComponentPad*
%ADD15O,1.700000X1.700000*%
G04 #@! TD*
G04 #@! TA.AperFunction,SMDPad,CuDef*
%ADD16RoundRect,0.237500X-0.300000X-0.237500X0.300000X-0.237500X0.300000X0.237500X-0.300000X0.237500X0*%
G04 #@! TD*
G04 #@! TA.AperFunction,SMDPad,CuDef*
%ADD17RoundRect,0.250000X0.337500X0.475000X-0.337500X0.475000X-0.337500X-0.475000X0.337500X-0.475000X0*%
G04 #@! TD*
G04 #@! TA.AperFunction,SMDPad,CuDef*
%ADD18R,0.400000X3.200000*%
G04 #@! TD*
G04 #@! TA.AperFunction,SMDPad,CuDef*
%ADD19RoundRect,0.237500X0.237500X-0.300000X0.237500X0.300000X-0.237500X0.300000X-0.237500X-0.300000X0*%
G04 #@! TD*
G04 #@! TA.AperFunction,SMDPad,CuDef*
%ADD20R,4.000000X4.000000*%
G04 #@! TD*
G04 #@! TA.AperFunction,SMDPad,CuDef*
%ADD21C,2.500000*%
G04 #@! TD*
G04 #@! TA.AperFunction,SMDPad,CuDef*
%ADD22RoundRect,0.250000X-0.337500X-0.475000X0.337500X-0.475000X0.337500X0.475000X-0.337500X0.475000X0*%
G04 #@! TD*
G04 #@! TA.AperFunction,SMDPad,CuDef*
%ADD23RoundRect,0.125000X-0.125000X0.625000X-0.125000X-0.625000X0.125000X-0.625000X0.125000X0.625000X0*%
G04 #@! TD*
G04 #@! TA.AperFunction,SMDPad,CuDef*
%ADD24RoundRect,0.125000X-0.625000X0.125000X-0.625000X-0.125000X0.625000X-0.125000X0.625000X0.125000X0*%
G04 #@! TD*
G04 #@! TA.AperFunction,SMDPad,CuDef*
%ADD25RoundRect,0.237500X0.300000X0.237500X-0.300000X0.237500X-0.300000X-0.237500X0.300000X-0.237500X0*%
G04 #@! TD*
G04 #@! TA.AperFunction,SMDPad,CuDef*
%ADD26RoundRect,0.237500X-0.237500X0.300000X-0.237500X-0.300000X0.237500X-0.300000X0.237500X0.300000X0*%
G04 #@! TD*
G04 #@! TA.AperFunction,ViaPad*
%ADD27C,0.800000*%
G04 #@! TD*
G04 #@! TA.AperFunction,Conductor*
%ADD28C,0.300000*%
G04 #@! TD*
G04 #@! TA.AperFunction,Conductor*
%ADD29C,0.250000*%
G04 #@! TD*
G04 #@! TA.AperFunction,Conductor*
%ADD30C,0.500000*%
G04 #@! TD*
G04 APERTURE END LIST*
D10*
X106500000Y-120000000D03*
D11*
X103800000Y-114000000D03*
D10*
X106500000Y-113000000D03*
D11*
X103800000Y-119000000D03*
D12*
X93360000Y-119270000D03*
D13*
X93360000Y-118000000D03*
X93360000Y-116730000D03*
D14*
X75250000Y-87500000D03*
D15*
X75250000Y-90040000D03*
X75250000Y-92580000D03*
X75250000Y-95120000D03*
D16*
X93637500Y-106000000D03*
X95362500Y-106000000D03*
D17*
X87037500Y-92000000D03*
X84962500Y-92000000D03*
D18*
X87800000Y-89000000D03*
X89000000Y-89000000D03*
X90200000Y-89000000D03*
D19*
X92000000Y-87862500D03*
X92000000Y-86137500D03*
D20*
X91500000Y-81500000D03*
D21*
X86000000Y-111000000D03*
D20*
X96500000Y-81500000D03*
D21*
X88700000Y-114300000D03*
D22*
X93462500Y-108000000D03*
X95537500Y-108000000D03*
D23*
X87700000Y-95825000D03*
X88500000Y-95825000D03*
X89300000Y-95825000D03*
X90100000Y-95825000D03*
X90900000Y-95825000D03*
X91700000Y-95825000D03*
X92500000Y-95825000D03*
X93300000Y-95825000D03*
D24*
X94675000Y-97200000D03*
X94675000Y-98000000D03*
X94675000Y-98800000D03*
X94675000Y-99600000D03*
X94675000Y-100400000D03*
X94675000Y-101200000D03*
X94675000Y-102000000D03*
X94675000Y-102800000D03*
D23*
X93300000Y-104175000D03*
X92500000Y-104175000D03*
X91700000Y-104175000D03*
X90900000Y-104175000D03*
X90100000Y-104175000D03*
X89300000Y-104175000D03*
X88500000Y-104175000D03*
X87700000Y-104175000D03*
D24*
X86325000Y-102800000D03*
X86325000Y-102000000D03*
X86325000Y-101200000D03*
X86325000Y-100400000D03*
X86325000Y-99600000D03*
X86325000Y-98800000D03*
X86325000Y-98000000D03*
X86325000Y-97200000D03*
D21*
X86000000Y-107400000D03*
D25*
X87362500Y-94000000D03*
X85637500Y-94000000D03*
D26*
X96500000Y-102637500D03*
X96500000Y-104362500D03*
D27*
X106500000Y-109200000D03*
X79500000Y-111000000D03*
X74000000Y-114500000D03*
X79300000Y-122300000D03*
X100000000Y-78500000D03*
X75500000Y-100500000D03*
X81500000Y-79000000D03*
X74500000Y-100500000D03*
X104000000Y-79500000D03*
X92300000Y-98400000D03*
X85700000Y-95200000D03*
X81500000Y-80000000D03*
X106500000Y-108200000D03*
X76000000Y-79000000D03*
X90600000Y-86100000D03*
X91600000Y-108000000D03*
X77500000Y-111000000D03*
X74000000Y-118750000D03*
X97700000Y-104300000D03*
X100000000Y-85000000D03*
X76500000Y-100500000D03*
X106500000Y-110200000D03*
X76000000Y-83500000D03*
X76000000Y-82500000D03*
X81500000Y-83500000D03*
X105000000Y-108200000D03*
X81500000Y-78000000D03*
X105000000Y-109200000D03*
X100000000Y-79500000D03*
X104000000Y-85000000D03*
X100000000Y-77500000D03*
X105000000Y-110200000D03*
X100000000Y-84000000D03*
X76000000Y-78000000D03*
X100000000Y-83000000D03*
X85000000Y-90400000D03*
X94700000Y-104200000D03*
X90100000Y-101000000D03*
X76000000Y-84500000D03*
X104000000Y-78500000D03*
X74000000Y-117750000D03*
X95600000Y-109500000D03*
X88500000Y-99500000D03*
X96600000Y-105800000D03*
X74000000Y-113500000D03*
X74000000Y-112500000D03*
X81500000Y-82500000D03*
X74000000Y-119750000D03*
X76000000Y-80000000D03*
X104000000Y-84000000D03*
X78500000Y-111000000D03*
X81500000Y-84500000D03*
X104000000Y-83000000D03*
X104000000Y-77500000D03*
X85090000Y-119000000D03*
X76962500Y-115962500D03*
X93360000Y-109510000D03*
X92400000Y-109500000D03*
X94300000Y-109500000D03*
X87600000Y-101200000D03*
X92300000Y-102700000D03*
X100400000Y-101600000D03*
X99500000Y-98400000D03*
X98000000Y-99500000D03*
X100400000Y-94000000D03*
X80600000Y-99000000D03*
X80600000Y-96400000D03*
X100540000Y-91360000D03*
X90900000Y-93800000D03*
X91700000Y-94400000D03*
X103500000Y-122100000D03*
X98500000Y-122000000D03*
X93400000Y-122500000D03*
X87500000Y-122500000D03*
X100500000Y-118100000D03*
X99750500Y-117200000D03*
D28*
X87300000Y-97200000D02*
X88500000Y-98400000D01*
X86325000Y-97200000D02*
X87300000Y-97200000D01*
X88500000Y-98400000D02*
X88500000Y-99500000D01*
D29*
X80000000Y-119000000D02*
X76962500Y-115962500D01*
X85090000Y-119000000D02*
X80000000Y-119000000D01*
X83900000Y-87500000D02*
X87037500Y-90637500D01*
D30*
X93550000Y-102150000D02*
X93700000Y-102000000D01*
X95800000Y-102000000D02*
X96437500Y-102637500D01*
X87362500Y-92325000D02*
X87037500Y-92000000D01*
X93300000Y-104175000D02*
X93300000Y-102400000D01*
X87700000Y-96588173D02*
X87700000Y-95825000D01*
X93300000Y-102400000D02*
X93550000Y-102150000D01*
X96437500Y-102637500D02*
X96500000Y-102637500D01*
X87700000Y-95825000D02*
X87700000Y-94337500D01*
X87700000Y-94337500D02*
X87362500Y-94000000D01*
X93550000Y-102150000D02*
X93261827Y-102150000D01*
D29*
X87037500Y-90637500D02*
X87037500Y-92000000D01*
D30*
X87362500Y-94000000D02*
X87362500Y-92325000D01*
X93261827Y-102150000D02*
X87700000Y-96588173D01*
X93700000Y-102000000D02*
X94675000Y-102000000D01*
D29*
X75250000Y-87500000D02*
X83900000Y-87500000D01*
D30*
X94675000Y-102000000D02*
X95800000Y-102000000D01*
D29*
X90100000Y-93900000D02*
X89900000Y-93700000D01*
X89900000Y-93700000D02*
X89900000Y-92200000D01*
X92000000Y-90100000D02*
X92000000Y-87862500D01*
X89900000Y-92200000D02*
X92000000Y-90100000D01*
X90100000Y-95825000D02*
X90100000Y-93900000D01*
D28*
X86325000Y-101200000D02*
X87600000Y-101200000D01*
X92500000Y-104175000D02*
X92500000Y-102900000D01*
X92500000Y-102900000D02*
X92300000Y-102700000D01*
X94675000Y-100400000D02*
X99200000Y-100400000D01*
X99200000Y-100400000D02*
X100400000Y-101600000D01*
X96800000Y-98800000D02*
X94675000Y-98800000D01*
X99500000Y-98400000D02*
X97200000Y-98400000D01*
X97200000Y-98400000D02*
X96800000Y-98800000D01*
X94675000Y-99600000D02*
X97900000Y-99600000D01*
X97900000Y-99600000D02*
X98000000Y-99500000D01*
X96400000Y-98000000D02*
X94675000Y-98000000D01*
X100400000Y-94000000D02*
X96400000Y-98000000D01*
X82400000Y-100400000D02*
X81700000Y-99700000D01*
X86325000Y-100400000D02*
X82400000Y-100400000D01*
X81700000Y-99700000D02*
X81000000Y-99000000D01*
X81000000Y-99000000D02*
X80600000Y-99000000D01*
X84200000Y-98900000D02*
X81700000Y-96400000D01*
X84900000Y-99600000D02*
X84200000Y-98900000D01*
X81700000Y-96400000D02*
X80600000Y-96400000D01*
X86325000Y-99600000D02*
X84900000Y-99600000D01*
X96200000Y-97200000D02*
X94675000Y-97200000D01*
X97900000Y-95500000D02*
X96200000Y-97200000D01*
X100140000Y-91360000D02*
X97900000Y-93600000D01*
X97900000Y-93600000D02*
X97900000Y-95500000D01*
X100540000Y-91360000D02*
X100140000Y-91360000D01*
X90900000Y-95825000D02*
X90900000Y-93800000D01*
X91700000Y-95825000D02*
X91700000Y-94400000D01*
D29*
X91500000Y-83100000D02*
X91500000Y-81500000D01*
X92500000Y-95825000D02*
X92500000Y-91500000D01*
X94100000Y-85700000D02*
X91500000Y-83100000D01*
X92500000Y-91500000D02*
X94100000Y-89900000D01*
X94100000Y-89900000D02*
X94100000Y-85700000D01*
X96950000Y-84650000D02*
X94900000Y-86700000D01*
X93300000Y-91800000D02*
X93300000Y-95825000D01*
X96950000Y-81500000D02*
X96950000Y-84650000D01*
X94900000Y-86700000D02*
X94900000Y-90200000D01*
X94900000Y-90200000D02*
X93300000Y-91800000D01*
X80800000Y-93600000D02*
X80800000Y-91100000D01*
X85200000Y-98000000D02*
X80800000Y-93600000D01*
X80800000Y-91100000D02*
X79740000Y-90040000D01*
X79740000Y-90040000D02*
X75250000Y-90040000D01*
X86325000Y-98000000D02*
X85200000Y-98000000D01*
D28*
X102100000Y-116592894D02*
X96807106Y-111300000D01*
X92100000Y-111300000D02*
X90400000Y-109600000D01*
X91700000Y-106200000D02*
X91700000Y-104175000D01*
X96807106Y-111300000D02*
X92100000Y-111300000D01*
X102100000Y-121600000D02*
X102100000Y-116592894D01*
X103500000Y-122100000D02*
X102600000Y-122100000D01*
X90400000Y-107500000D02*
X91700000Y-106200000D01*
X102600000Y-122100000D02*
X102100000Y-121600000D01*
X90400000Y-109600000D02*
X90400000Y-107500000D01*
X90900000Y-106000000D02*
X90900000Y-104175000D01*
X98500000Y-122000000D02*
X99000000Y-122000000D01*
X91700000Y-111800000D02*
X89800000Y-109900000D01*
X96600000Y-111800000D02*
X91700000Y-111800000D01*
X99000000Y-122000000D02*
X101500000Y-119500000D01*
X89800000Y-107100000D02*
X90900000Y-106000000D01*
X101500000Y-119500000D02*
X101500000Y-116700000D01*
X89800000Y-109900000D02*
X89800000Y-107100000D01*
X101500000Y-116700000D02*
X96600000Y-111800000D01*
D29*
X88125000Y-108875000D02*
X86000000Y-111000000D01*
X88500000Y-104175000D02*
X88500000Y-106000000D01*
X88125000Y-106375000D02*
X88125000Y-108875000D01*
X88500000Y-106000000D02*
X88125000Y-106375000D01*
X87700000Y-104175000D02*
X86325000Y-104175000D01*
X86000000Y-104500000D02*
X86000000Y-106500000D01*
X86325000Y-104175000D02*
X86000000Y-104500000D01*
X89400000Y-122500000D02*
X88100000Y-121200000D01*
X84000000Y-113000000D02*
X84000000Y-103900000D01*
X85100000Y-102800000D02*
X86325000Y-102800000D01*
X93400000Y-122500000D02*
X89400000Y-122500000D01*
X84000000Y-103900000D02*
X85100000Y-102800000D01*
X88100000Y-121200000D02*
X88100000Y-117100000D01*
X88100000Y-117100000D02*
X84000000Y-113000000D01*
X83500000Y-113500000D02*
X83500000Y-103500000D01*
X83500000Y-103500000D02*
X85000000Y-102000000D01*
X85000000Y-102000000D02*
X86325000Y-102000000D01*
X87500000Y-117500000D02*
X83500000Y-113500000D01*
X87500000Y-122500000D02*
X87500000Y-117500000D01*
X87800000Y-91100000D02*
X87800000Y-89000000D01*
X88500000Y-91800000D02*
X87800000Y-91100000D01*
X88500000Y-95825000D02*
X88500000Y-91800000D01*
X89300000Y-91900000D02*
X90200000Y-91000000D01*
X89300000Y-95825000D02*
X89300000Y-91900000D01*
X90200000Y-91000000D02*
X90200000Y-89000000D01*
D28*
X100500000Y-116407106D02*
X96392894Y-112300000D01*
X91300000Y-112300000D02*
X89200000Y-110200000D01*
X89200000Y-110200000D02*
X89200000Y-106992894D01*
X89200000Y-106992894D02*
X90100000Y-106092894D01*
X100500000Y-118100000D02*
X100500000Y-116407106D01*
X90100000Y-106092894D02*
X90100000Y-104175000D01*
X96392894Y-112300000D02*
X91300000Y-112300000D01*
X89300000Y-106000000D02*
X88600000Y-106700000D01*
X88600000Y-110403553D02*
X90996447Y-112800000D01*
X88600000Y-106700000D02*
X88600000Y-110403553D01*
X96185788Y-112800000D02*
X99750500Y-116364712D01*
X89300000Y-104175000D02*
X89300000Y-106000000D01*
X90996447Y-112800000D02*
X96185788Y-112800000D01*
X99750500Y-116364712D02*
X99750500Y-117200000D01*
D29*
X85100000Y-98800000D02*
X81420000Y-95120000D01*
X86325000Y-98800000D02*
X85100000Y-98800000D01*
X81420000Y-95120000D02*
X75250000Y-95120000D01*
G04 #@! TA.AperFunction,Conductor*
G36*
X107687621Y-73274502D02*
G01*
X107734114Y-73328158D01*
X107745500Y-73380500D01*
X107745500Y-112754338D01*
X107725498Y-112822459D01*
X107671842Y-112868952D01*
X107601568Y-112879056D01*
X107536988Y-112849562D01*
X107496982Y-112783753D01*
X107491746Y-112761946D01*
X107486490Y-112747813D01*
X107415859Y-112610967D01*
X107407384Y-112598495D01*
X107306154Y-112482453D01*
X107294940Y-112472356D01*
X107168959Y-112383815D01*
X107155655Y-112376682D01*
X107012187Y-112320747D01*
X106997582Y-112316997D01*
X106880161Y-112301538D01*
X106871952Y-112301000D01*
X106645115Y-112301000D01*
X106629876Y-112305475D01*
X106628671Y-112306865D01*
X106627000Y-112314548D01*
X106627000Y-113680885D01*
X106631475Y-113696124D01*
X106632865Y-113697329D01*
X106640548Y-113699000D01*
X106868637Y-113699000D01*
X106876192Y-113698544D01*
X106990420Y-113684721D01*
X107005062Y-113681125D01*
X107149119Y-113626690D01*
X107162480Y-113619705D01*
X107289393Y-113532481D01*
X107300705Y-113522508D01*
X107403146Y-113407531D01*
X107411754Y-113395145D01*
X107483812Y-113259051D01*
X107489216Y-113244974D01*
X107497296Y-113212806D01*
X107533291Y-113151610D01*
X107596656Y-113119589D01*
X107667274Y-113126909D01*
X107722725Y-113171247D01*
X107745500Y-113243501D01*
X107745500Y-119754338D01*
X107725498Y-119822459D01*
X107671842Y-119868952D01*
X107601568Y-119879056D01*
X107536988Y-119849562D01*
X107496982Y-119783753D01*
X107491746Y-119761946D01*
X107486490Y-119747813D01*
X107415859Y-119610967D01*
X107407384Y-119598495D01*
X107306154Y-119482453D01*
X107294940Y-119472356D01*
X107168959Y-119383815D01*
X107155655Y-119376682D01*
X107012187Y-119320747D01*
X106997582Y-119316997D01*
X106880161Y-119301538D01*
X106871952Y-119301000D01*
X106645115Y-119301000D01*
X106629876Y-119305475D01*
X106628671Y-119306865D01*
X106627000Y-119314548D01*
X106627000Y-120680885D01*
X106631475Y-120696124D01*
X106632865Y-120697329D01*
X106640548Y-120699000D01*
X106868637Y-120699000D01*
X106876192Y-120698544D01*
X106990420Y-120684721D01*
X107005062Y-120681125D01*
X107149119Y-120626690D01*
X107162480Y-120619705D01*
X107289393Y-120532481D01*
X107300705Y-120522508D01*
X107403146Y-120407531D01*
X107411754Y-120395145D01*
X107483812Y-120259051D01*
X107489216Y-120244974D01*
X107497296Y-120212806D01*
X107533291Y-120151610D01*
X107596656Y-120119589D01*
X107667274Y-120126909D01*
X107722725Y-120171247D01*
X107745500Y-120243501D01*
X107745500Y-127619500D01*
X107725498Y-127687621D01*
X107671842Y-127734114D01*
X107619500Y-127745500D01*
X73380500Y-127745500D01*
X73312379Y-127725498D01*
X73265886Y-127671842D01*
X73254500Y-127619500D01*
X73254500Y-115955596D01*
X76303229Y-115955596D01*
X76311921Y-116034325D01*
X76316018Y-116071430D01*
X76320613Y-116113053D01*
X76323223Y-116120184D01*
X76323223Y-116120186D01*
X76371846Y-116253054D01*
X76375053Y-116261819D01*
X76379289Y-116268122D01*
X76379289Y-116268123D01*
X76449129Y-116372055D01*
X76463408Y-116393305D01*
X76469027Y-116398418D01*
X76469028Y-116398419D01*
X76567902Y-116488387D01*
X76580576Y-116499919D01*
X76719793Y-116575508D01*
X76873022Y-116615707D01*
X76969638Y-116617225D01*
X77031272Y-116618193D01*
X77099070Y-116639262D01*
X77118388Y-116655082D01*
X79693522Y-119230216D01*
X79708664Y-119248964D01*
X79709779Y-119250189D01*
X79715429Y-119258940D01*
X79723607Y-119265387D01*
X79723609Y-119265389D01*
X79741800Y-119279729D01*
X79746241Y-119283675D01*
X79746303Y-119283602D01*
X79750267Y-119286961D01*
X79753944Y-119290638D01*
X79769692Y-119301892D01*
X79774362Y-119305398D01*
X79814647Y-119337156D01*
X79823281Y-119340188D01*
X79830734Y-119345514D01*
X79879850Y-119360203D01*
X79885492Y-119362036D01*
X79926367Y-119376390D01*
X79933851Y-119379018D01*
X79939416Y-119379500D01*
X79942124Y-119379500D01*
X79944758Y-119379614D01*
X79944856Y-119379643D01*
X79944849Y-119379807D01*
X79945553Y-119379851D01*
X79951778Y-119381713D01*
X80005635Y-119379597D01*
X80010582Y-119379500D01*
X84490141Y-119379500D01*
X84558262Y-119399502D01*
X84585522Y-119423169D01*
X84586672Y-119424501D01*
X84590908Y-119430805D01*
X84708076Y-119537419D01*
X84847293Y-119613008D01*
X85000522Y-119653207D01*
X85084477Y-119654526D01*
X85151319Y-119655576D01*
X85151322Y-119655576D01*
X85158916Y-119655695D01*
X85313332Y-119620329D01*
X85383742Y-119584917D01*
X85448072Y-119552563D01*
X85448075Y-119552561D01*
X85454855Y-119549151D01*
X85460626Y-119544222D01*
X85460629Y-119544220D01*
X85569536Y-119451204D01*
X85569536Y-119451203D01*
X85575314Y-119446269D01*
X85667755Y-119317624D01*
X85726842Y-119170641D01*
X85749162Y-119013807D01*
X85749307Y-119000000D01*
X85730276Y-118842733D01*
X85674280Y-118694546D01*
X85635018Y-118637419D01*
X85588855Y-118570251D01*
X85588854Y-118570249D01*
X85584553Y-118563992D01*
X85567261Y-118548585D01*
X85546045Y-118529683D01*
X85466275Y-118458611D01*
X85458889Y-118454700D01*
X85388864Y-118417624D01*
X85326274Y-118384484D01*
X85172633Y-118345892D01*
X85165034Y-118345852D01*
X85165033Y-118345852D01*
X85099181Y-118345507D01*
X85014221Y-118345062D01*
X85006841Y-118346834D01*
X85006839Y-118346834D01*
X84867563Y-118380271D01*
X84867560Y-118380272D01*
X84860184Y-118382043D01*
X84719414Y-118454700D01*
X84600039Y-118558838D01*
X84595672Y-118565051D01*
X84595667Y-118565057D01*
X84594336Y-118566951D01*
X84593013Y-118568005D01*
X84590589Y-118570697D01*
X84590140Y-118570293D01*
X84538802Y-118611183D01*
X84491250Y-118620500D01*
X80209384Y-118620500D01*
X80141263Y-118600498D01*
X80120289Y-118583595D01*
X77652643Y-116115949D01*
X77618617Y-116053637D01*
X77616995Y-116009101D01*
X77621081Y-115980392D01*
X77621081Y-115980386D01*
X77621662Y-115976307D01*
X77621756Y-115967379D01*
X77621764Y-115966634D01*
X77621764Y-115966628D01*
X77621807Y-115962500D01*
X77620403Y-115950893D01*
X77603688Y-115812773D01*
X77602776Y-115805233D01*
X77546780Y-115657046D01*
X77457053Y-115526492D01*
X77338775Y-115421111D01*
X77331389Y-115417200D01*
X77205488Y-115350539D01*
X77205489Y-115350539D01*
X77198774Y-115346984D01*
X77045133Y-115308392D01*
X77037534Y-115308352D01*
X77037533Y-115308352D01*
X76971681Y-115308007D01*
X76886721Y-115307562D01*
X76879341Y-115309334D01*
X76879339Y-115309334D01*
X76740063Y-115342771D01*
X76740060Y-115342772D01*
X76732684Y-115344543D01*
X76591914Y-115417200D01*
X76472539Y-115521338D01*
X76381450Y-115650944D01*
X76323906Y-115798537D01*
X76303229Y-115955596D01*
X73254500Y-115955596D01*
X73254500Y-95090964D01*
X74141148Y-95090964D01*
X74154424Y-95293522D01*
X74155845Y-95299118D01*
X74155846Y-95299123D01*
X74173683Y-95369355D01*
X74204392Y-95490269D01*
X74206809Y-95495512D01*
X74241803Y-95571419D01*
X74289377Y-95674616D01*
X74292710Y-95679332D01*
X74367759Y-95785524D01*
X74406533Y-95840389D01*
X74551938Y-95982035D01*
X74720720Y-96094812D01*
X74726023Y-96097090D01*
X74726026Y-96097092D01*
X74814707Y-96135192D01*
X74907228Y-96174942D01*
X74980244Y-96191464D01*
X75099579Y-96218467D01*
X75099584Y-96218468D01*
X75105216Y-96219742D01*
X75110987Y-96219969D01*
X75110989Y-96219969D01*
X75170756Y-96222317D01*
X75308053Y-96227712D01*
X75408499Y-96213148D01*
X75503231Y-96199413D01*
X75503236Y-96199412D01*
X75508945Y-96198584D01*
X75514409Y-96196729D01*
X75514414Y-96196728D01*
X75695693Y-96135192D01*
X75695698Y-96135190D01*
X75701165Y-96133334D01*
X75878276Y-96034147D01*
X75940934Y-95982035D01*
X76029913Y-95908031D01*
X76034345Y-95904345D01*
X76091463Y-95835669D01*
X76160453Y-95752718D01*
X76160455Y-95752715D01*
X76164147Y-95748276D01*
X76263334Y-95571165D01*
X76263787Y-95571419D01*
X76307368Y-95520151D01*
X76376488Y-95499500D01*
X80482490Y-95499500D01*
X80550611Y-95519502D01*
X80597104Y-95573158D01*
X80601358Y-95602743D01*
X80603951Y-95577725D01*
X80648289Y-95522275D01*
X80720543Y-95499500D01*
X81210616Y-95499500D01*
X81278737Y-95519502D01*
X81299711Y-95536405D01*
X81543711Y-95780405D01*
X81577737Y-95842717D01*
X81572672Y-95913532D01*
X81530125Y-95970368D01*
X81463605Y-95995179D01*
X81454616Y-95995500D01*
X81177906Y-95995500D01*
X81109785Y-95975498D01*
X81094087Y-95963577D01*
X81027606Y-95904345D01*
X80976275Y-95858611D01*
X80968889Y-95854700D01*
X80842988Y-95788039D01*
X80842989Y-95788039D01*
X80836274Y-95784484D01*
X80689847Y-95747704D01*
X80628652Y-95711709D01*
X80601008Y-95657006D01*
X80577714Y-95708012D01*
X80511904Y-95748019D01*
X80377563Y-95780271D01*
X80377560Y-95780272D01*
X80370184Y-95782043D01*
X80229414Y-95854700D01*
X80110039Y-95958838D01*
X80018950Y-96088444D01*
X80002549Y-96130510D01*
X79964652Y-96227712D01*
X79961406Y-96236037D01*
X79940729Y-96393096D01*
X79941563Y-96400646D01*
X79955795Y-96529554D01*
X79958113Y-96550553D01*
X79960723Y-96557684D01*
X79960723Y-96557686D01*
X79986760Y-96628835D01*
X80012553Y-96699319D01*
X80016789Y-96705622D01*
X80016789Y-96705623D01*
X80093926Y-96820414D01*
X80100908Y-96830805D01*
X80106527Y-96835918D01*
X80106528Y-96835919D01*
X80211341Y-96931291D01*
X80218076Y-96937419D01*
X80357293Y-97013008D01*
X80510522Y-97053207D01*
X80594477Y-97054526D01*
X80661319Y-97055576D01*
X80661322Y-97055576D01*
X80668916Y-97055695D01*
X80823332Y-97020329D01*
X80916856Y-96973292D01*
X80958072Y-96952563D01*
X80958075Y-96952561D01*
X80964855Y-96949151D01*
X80970626Y-96944222D01*
X80970629Y-96944220D01*
X81079537Y-96851203D01*
X81085314Y-96846269D01*
X81086855Y-96844125D01*
X81145875Y-96808610D01*
X81177793Y-96804500D01*
X81480260Y-96804500D01*
X81548381Y-96824502D01*
X81569355Y-96841405D01*
X83891465Y-99163515D01*
X84227951Y-99500000D01*
X84508356Y-99780405D01*
X84542382Y-99842717D01*
X84537317Y-99913532D01*
X84494770Y-99970368D01*
X84428250Y-99995179D01*
X84419261Y-99995500D01*
X82619740Y-99995500D01*
X82551619Y-99975498D01*
X82530644Y-99958595D01*
X82249745Y-99677695D01*
X81963515Y-99391465D01*
X81963512Y-99391463D01*
X81263515Y-98691465D01*
X81263501Y-98691452D01*
X81240723Y-98668674D01*
X81220844Y-98658545D01*
X81203989Y-98648216D01*
X81193953Y-98640925D01*
X81185929Y-98635095D01*
X81171880Y-98630530D01*
X81113274Y-98590459D01*
X81106973Y-98582063D01*
X81098853Y-98570248D01*
X81098852Y-98570246D01*
X81094553Y-98563992D01*
X80976275Y-98458611D01*
X80968889Y-98454700D01*
X80891655Y-98413807D01*
X80836274Y-98384484D01*
X80682633Y-98345892D01*
X80675034Y-98345852D01*
X80675033Y-98345852D01*
X80609181Y-98345507D01*
X80524221Y-98345062D01*
X80516841Y-98346834D01*
X80516839Y-98346834D01*
X80377563Y-98380271D01*
X80377560Y-98380272D01*
X80370184Y-98382043D01*
X80229414Y-98454700D01*
X80110039Y-98558838D01*
X80018950Y-98688444D01*
X80016190Y-98695524D01*
X79973294Y-98805547D01*
X79961406Y-98836037D01*
X79960414Y-98843570D01*
X79960414Y-98843571D01*
X79942400Y-98980405D01*
X79940729Y-98993096D01*
X79958113Y-99150553D01*
X79960723Y-99157684D01*
X79960723Y-99157686D01*
X79995082Y-99251576D01*
X80012553Y-99299319D01*
X80016789Y-99305622D01*
X80016789Y-99305623D01*
X80074477Y-99391471D01*
X80100908Y-99430805D01*
X80106527Y-99435918D01*
X80106528Y-99435919D01*
X80196615Y-99517891D01*
X80218076Y-99537419D01*
X80357293Y-99613008D01*
X80510522Y-99653207D01*
X80594477Y-99654526D01*
X80661319Y-99655576D01*
X80661322Y-99655576D01*
X80668916Y-99655695D01*
X80823332Y-99620329D01*
X80891670Y-99585959D01*
X80961513Y-99573221D01*
X81027157Y-99600265D01*
X81037378Y-99609428D01*
X81245575Y-99817624D01*
X81391463Y-99963512D01*
X81391465Y-99963515D01*
X82068674Y-100640723D01*
X82159277Y-100731326D01*
X82179164Y-100741459D01*
X82196023Y-100751791D01*
X82205864Y-100758941D01*
X82214071Y-100764904D01*
X82223506Y-100767969D01*
X82223507Y-100767970D01*
X82235296Y-100771801D01*
X82253560Y-100779366D01*
X82273445Y-100789498D01*
X82294969Y-100792907D01*
X82295493Y-100792990D01*
X82314718Y-100797606D01*
X82324133Y-100800665D01*
X82335934Y-100804499D01*
X82368162Y-100804499D01*
X82368166Y-100804500D01*
X85211675Y-100804500D01*
X85279796Y-100824502D01*
X85326289Y-100878158D01*
X85336393Y-100948432D01*
X85333806Y-100959931D01*
X85331288Y-100965082D01*
X85320500Y-101039032D01*
X85320500Y-101360968D01*
X85331481Y-101435561D01*
X85335797Y-101444352D01*
X85338703Y-101453703D01*
X85335849Y-101454590D01*
X85345221Y-101508940D01*
X85317544Y-101574320D01*
X85258913Y-101614357D01*
X85220051Y-101620500D01*
X85053920Y-101620500D01*
X85029973Y-101617951D01*
X85028307Y-101617872D01*
X85018124Y-101615680D01*
X85007782Y-101616904D01*
X85007779Y-101616904D01*
X84984787Y-101619626D01*
X84978846Y-101619977D01*
X84978854Y-101620072D01*
X84973674Y-101620500D01*
X84968476Y-101620500D01*
X84963354Y-101621353D01*
X84963349Y-101621353D01*
X84949427Y-101623671D01*
X84943550Y-101624508D01*
X84937049Y-101625277D01*
X84902997Y-101629307D01*
X84902995Y-101629308D01*
X84892659Y-101630531D01*
X84884410Y-101634492D01*
X84875374Y-101635996D01*
X84866205Y-101640943D01*
X84866203Y-101640944D01*
X84830240Y-101660348D01*
X84824951Y-101663043D01*
X84785915Y-101681788D01*
X84778768Y-101685220D01*
X84774492Y-101688814D01*
X84772552Y-101690754D01*
X84770641Y-101692507D01*
X84770551Y-101692556D01*
X84770439Y-101692433D01*
X84769904Y-101692905D01*
X84764186Y-101695990D01*
X84757119Y-101703635D01*
X84727584Y-101735586D01*
X84724154Y-101739152D01*
X83269784Y-103193522D01*
X83251036Y-103208664D01*
X83249811Y-103209779D01*
X83241060Y-103215429D01*
X83234613Y-103223607D01*
X83234611Y-103223609D01*
X83220271Y-103241800D01*
X83216325Y-103246241D01*
X83216398Y-103246303D01*
X83213039Y-103250267D01*
X83209362Y-103253944D01*
X83198108Y-103269692D01*
X83194602Y-103274362D01*
X83162844Y-103314647D01*
X83159812Y-103323281D01*
X83154486Y-103330734D01*
X83151501Y-103340715D01*
X83139799Y-103379844D01*
X83137964Y-103385492D01*
X83123739Y-103426000D01*
X83120982Y-103433851D01*
X83120500Y-103439416D01*
X83120500Y-103442124D01*
X83120386Y-103444758D01*
X83120357Y-103444856D01*
X83120193Y-103444849D01*
X83120149Y-103445553D01*
X83118287Y-103451778D01*
X83118696Y-103462183D01*
X83120403Y-103505635D01*
X83120500Y-103510582D01*
X83120500Y-113446080D01*
X83117951Y-113470028D01*
X83117872Y-113471693D01*
X83115680Y-113481876D01*
X83116904Y-113492217D01*
X83119627Y-113515223D01*
X83119977Y-113521154D01*
X83120072Y-113521146D01*
X83120500Y-113526324D01*
X83120500Y-113531524D01*
X83121354Y-113536653D01*
X83121354Y-113536656D01*
X83123669Y-113550565D01*
X83124506Y-113556443D01*
X83128199Y-113587642D01*
X83130530Y-113607341D01*
X83134493Y-113615593D01*
X83135996Y-113624626D01*
X83140943Y-113633795D01*
X83140944Y-113633797D01*
X83160334Y-113669732D01*
X83163031Y-113675025D01*
X83181785Y-113714082D01*
X83181788Y-113714086D01*
X83185219Y-113721232D01*
X83188814Y-113725508D01*
X83190737Y-113727431D01*
X83192509Y-113729363D01*
X83192552Y-113729442D01*
X83192428Y-113729555D01*
X83192904Y-113730095D01*
X83195990Y-113735814D01*
X83203635Y-113742881D01*
X83235586Y-113772416D01*
X83239152Y-113775846D01*
X87083595Y-117620289D01*
X87117621Y-117682601D01*
X87120500Y-117709384D01*
X87120500Y-121905187D01*
X87100498Y-121973308D01*
X87077330Y-122000135D01*
X87010039Y-122058838D01*
X86918950Y-122188444D01*
X86916190Y-122195524D01*
X86865978Y-122324311D01*
X86861406Y-122336037D01*
X86860414Y-122343570D01*
X86860414Y-122343571D01*
X86843533Y-122471801D01*
X86840729Y-122493096D01*
X86849421Y-122571825D01*
X86856099Y-122632309D01*
X86858113Y-122650553D01*
X86860723Y-122657684D01*
X86860723Y-122657686D01*
X86900137Y-122765389D01*
X86912553Y-122799319D01*
X86916789Y-122805622D01*
X86916789Y-122805623D01*
X86967920Y-122881713D01*
X87000908Y-122930805D01*
X87006525Y-122935916D01*
X87006528Y-122935919D01*
X87017903Y-122946269D01*
X87118076Y-123037419D01*
X87257293Y-123113008D01*
X87410522Y-123153207D01*
X87494477Y-123154526D01*
X87561319Y-123155576D01*
X87561322Y-123155576D01*
X87568916Y-123155695D01*
X87723332Y-123120329D01*
X87793742Y-123084917D01*
X87858072Y-123052563D01*
X87858075Y-123052561D01*
X87864855Y-123049151D01*
X87870626Y-123044222D01*
X87870629Y-123044220D01*
X87979536Y-122951204D01*
X87979536Y-122951203D01*
X87985314Y-122946269D01*
X88077755Y-122817624D01*
X88136842Y-122670641D01*
X88145560Y-122609385D01*
X88158581Y-122517891D01*
X88158581Y-122517888D01*
X88159162Y-122513807D01*
X88159307Y-122500000D01*
X88157492Y-122484997D01*
X88152767Y-122445957D01*
X88140276Y-122342733D01*
X88084280Y-122194546D01*
X88028790Y-122113807D01*
X87998855Y-122070251D01*
X87998854Y-122070249D01*
X87994553Y-122063992D01*
X87921681Y-121999065D01*
X87884126Y-121938816D01*
X87879500Y-121904989D01*
X87879500Y-121820384D01*
X87899502Y-121752263D01*
X87953158Y-121705770D01*
X88023432Y-121695666D01*
X88088012Y-121725160D01*
X88094595Y-121731289D01*
X89093522Y-122730216D01*
X89108664Y-122748964D01*
X89109779Y-122750189D01*
X89115429Y-122758940D01*
X89123607Y-122765387D01*
X89123609Y-122765389D01*
X89141800Y-122779729D01*
X89146241Y-122783675D01*
X89146303Y-122783602D01*
X89150267Y-122786961D01*
X89153944Y-122790638D01*
X89169692Y-122801892D01*
X89174362Y-122805398D01*
X89214647Y-122837156D01*
X89223281Y-122840188D01*
X89230734Y-122845514D01*
X89279850Y-122860203D01*
X89285492Y-122862036D01*
X89326367Y-122876390D01*
X89333851Y-122879018D01*
X89339416Y-122879500D01*
X89342124Y-122879500D01*
X89344758Y-122879614D01*
X89344856Y-122879643D01*
X89344849Y-122879807D01*
X89345553Y-122879851D01*
X89351778Y-122881713D01*
X89405635Y-122879597D01*
X89410582Y-122879500D01*
X92800141Y-122879500D01*
X92868262Y-122899502D01*
X92895522Y-122923169D01*
X92896671Y-122924500D01*
X92900908Y-122930805D01*
X93018076Y-123037419D01*
X93157293Y-123113008D01*
X93310522Y-123153207D01*
X93394477Y-123154526D01*
X93461319Y-123155576D01*
X93461322Y-123155576D01*
X93468916Y-123155695D01*
X93623332Y-123120329D01*
X93693742Y-123084917D01*
X93758072Y-123052563D01*
X93758075Y-123052561D01*
X93764855Y-123049151D01*
X93770626Y-123044222D01*
X93770629Y-123044220D01*
X93879536Y-122951204D01*
X93879536Y-122951203D01*
X93885314Y-122946269D01*
X93977755Y-122817624D01*
X94036842Y-122670641D01*
X94045560Y-122609385D01*
X94058581Y-122517891D01*
X94058581Y-122517888D01*
X94059162Y-122513807D01*
X94059307Y-122500000D01*
X94057492Y-122484997D01*
X94052767Y-122445957D01*
X94040276Y-122342733D01*
X93984280Y-122194546D01*
X93928790Y-122113807D01*
X93898855Y-122070251D01*
X93898854Y-122070249D01*
X93894553Y-122063992D01*
X93776275Y-121958611D01*
X93768889Y-121954700D01*
X93642988Y-121888039D01*
X93642989Y-121888039D01*
X93636274Y-121884484D01*
X93482633Y-121845892D01*
X93475034Y-121845852D01*
X93475033Y-121845852D01*
X93409181Y-121845507D01*
X93324221Y-121845062D01*
X93316841Y-121846834D01*
X93316839Y-121846834D01*
X93177563Y-121880271D01*
X93177560Y-121880272D01*
X93170184Y-121882043D01*
X93029414Y-121954700D01*
X92910039Y-122058838D01*
X92905672Y-122065051D01*
X92905667Y-122065057D01*
X92904336Y-122066951D01*
X92903013Y-122068005D01*
X92900589Y-122070697D01*
X92900140Y-122070293D01*
X92848802Y-122111183D01*
X92801250Y-122120500D01*
X89609384Y-122120500D01*
X89541263Y-122100498D01*
X89520289Y-122083595D01*
X88516405Y-121079711D01*
X88482379Y-121017399D01*
X88479500Y-120990616D01*
X88479500Y-119813828D01*
X92356001Y-119813828D01*
X92357209Y-119826088D01*
X92368315Y-119881931D01*
X92377633Y-119904427D01*
X92419983Y-119967808D01*
X92437192Y-119985017D01*
X92500575Y-120027368D01*
X92523066Y-120036684D01*
X92578915Y-120047793D01*
X92591170Y-120049000D01*
X93214885Y-120049000D01*
X93230124Y-120044525D01*
X93231329Y-120043135D01*
X93233000Y-120035452D01*
X93233000Y-120030884D01*
X93487000Y-120030884D01*
X93491475Y-120046123D01*
X93492865Y-120047328D01*
X93500548Y-120048999D01*
X94128828Y-120048999D01*
X94141088Y-120047791D01*
X94196931Y-120036685D01*
X94219427Y-120027367D01*
X94282808Y-119985017D01*
X94300017Y-119967808D01*
X94342368Y-119904425D01*
X94351684Y-119881934D01*
X94362793Y-119826085D01*
X94364000Y-119813830D01*
X94364000Y-119415115D01*
X94359525Y-119399876D01*
X94358135Y-119398671D01*
X94350452Y-119397000D01*
X93505115Y-119397000D01*
X93489876Y-119401475D01*
X93488671Y-119402865D01*
X93487000Y-119410548D01*
X93487000Y-120030884D01*
X93233000Y-120030884D01*
X93233000Y-119415115D01*
X93228525Y-119399876D01*
X93227135Y-119398671D01*
X93219452Y-119397000D01*
X92374116Y-119397000D01*
X92358877Y-119401475D01*
X92357672Y-119402865D01*
X92356001Y-119410548D01*
X92356001Y-119813828D01*
X88479500Y-119813828D01*
X88479500Y-117994524D01*
X92350587Y-117994524D01*
X92368867Y-118168445D01*
X92371136Y-118175111D01*
X92371137Y-118175114D01*
X92420051Y-118318796D01*
X92425225Y-118333995D01*
X92461044Y-118392218D01*
X92461813Y-118393468D01*
X92480471Y-118461969D01*
X92459132Y-118529683D01*
X92443590Y-118548585D01*
X92419983Y-118572192D01*
X92377632Y-118635575D01*
X92368316Y-118658066D01*
X92357207Y-118713915D01*
X92356000Y-118726170D01*
X92356000Y-119124885D01*
X92360475Y-119140124D01*
X92361865Y-119141329D01*
X92369548Y-119143000D01*
X94345884Y-119143000D01*
X94361123Y-119138525D01*
X94362328Y-119137135D01*
X94363999Y-119129452D01*
X94363999Y-118726172D01*
X94362791Y-118713912D01*
X94351685Y-118658069D01*
X94342367Y-118635573D01*
X94300017Y-118572192D01*
X94276652Y-118548827D01*
X94242626Y-118486515D01*
X94247691Y-118415700D01*
X94259358Y-118392224D01*
X94290043Y-118343872D01*
X94320401Y-118258616D01*
X94346344Y-118185761D01*
X94346345Y-118185756D01*
X94348706Y-118179126D01*
X94353017Y-118142980D01*
X94368579Y-118012469D01*
X94369413Y-118005476D01*
X94351133Y-117831555D01*
X94320320Y-117741042D01*
X94297045Y-117672672D01*
X94297044Y-117672669D01*
X94294775Y-117666005D01*
X94203141Y-117517055D01*
X94140610Y-117453201D01*
X94107239Y-117390536D01*
X94113045Y-117319777D01*
X94141849Y-117275638D01*
X94196338Y-117221528D01*
X94214382Y-117193096D01*
X94286264Y-117079826D01*
X94290043Y-117073872D01*
X94315279Y-117003001D01*
X94346344Y-116915761D01*
X94346345Y-116915756D01*
X94348706Y-116909126D01*
X94351173Y-116888444D01*
X94368579Y-116742469D01*
X94369413Y-116735476D01*
X94351133Y-116561555D01*
X94345238Y-116544239D01*
X94297045Y-116402672D01*
X94297044Y-116402669D01*
X94294775Y-116396005D01*
X94203141Y-116247055D01*
X94080784Y-116122109D01*
X93933786Y-116027375D01*
X93927163Y-116024964D01*
X93927160Y-116024963D01*
X93776077Y-115969974D01*
X93776078Y-115969974D01*
X93769453Y-115967563D01*
X93634390Y-115950500D01*
X93091031Y-115950500D01*
X92961210Y-115965062D01*
X92954557Y-115967379D01*
X92954556Y-115967379D01*
X92917188Y-115980392D01*
X92796058Y-116022574D01*
X92790084Y-116026307D01*
X92790082Y-116026308D01*
X92746347Y-116053637D01*
X92647752Y-116115246D01*
X92642754Y-116120209D01*
X92642753Y-116120210D01*
X92587687Y-116174893D01*
X92523662Y-116238472D01*
X92519888Y-116244418D01*
X92519887Y-116244420D01*
X92504845Y-116268123D01*
X92429957Y-116386128D01*
X92427592Y-116392770D01*
X92373656Y-116544239D01*
X92373655Y-116544244D01*
X92371294Y-116550874D01*
X92370461Y-116557862D01*
X92370460Y-116557865D01*
X92363266Y-116618195D01*
X92350587Y-116724524D01*
X92368867Y-116898445D01*
X92371136Y-116905111D01*
X92371137Y-116905114D01*
X92420270Y-117049439D01*
X92425225Y-117063995D01*
X92516859Y-117212945D01*
X92578251Y-117275636D01*
X92579390Y-117276799D01*
X92612761Y-117339464D01*
X92606955Y-117410223D01*
X92578151Y-117454362D01*
X92523662Y-117508472D01*
X92429957Y-117656128D01*
X92427592Y-117662770D01*
X92373656Y-117814239D01*
X92373655Y-117814244D01*
X92371294Y-117820874D01*
X92370461Y-117827862D01*
X92370460Y-117827865D01*
X92364796Y-117875367D01*
X92350587Y-117994524D01*
X88479500Y-117994524D01*
X88479500Y-117153925D01*
X88482050Y-117129967D01*
X88482128Y-117128308D01*
X88484321Y-117118124D01*
X88483097Y-117107782D01*
X88483097Y-117107779D01*
X88480374Y-117084779D01*
X88480024Y-117078848D01*
X88479928Y-117078856D01*
X88479500Y-117073680D01*
X88479500Y-117068476D01*
X88476327Y-117049412D01*
X88475496Y-117043566D01*
X88470694Y-117003001D01*
X88469470Y-116992659D01*
X88465507Y-116984407D01*
X88464004Y-116975374D01*
X88439665Y-116930266D01*
X88436969Y-116924975D01*
X88418215Y-116885919D01*
X88418214Y-116885918D01*
X88414781Y-116878768D01*
X88411187Y-116874493D01*
X88409262Y-116872568D01*
X88407491Y-116870638D01*
X88407445Y-116870553D01*
X88407568Y-116870441D01*
X88407096Y-116869906D01*
X88404010Y-116864186D01*
X88364413Y-116827583D01*
X88360848Y-116824154D01*
X84416405Y-112879711D01*
X84382379Y-112817399D01*
X84379500Y-112790616D01*
X84379500Y-111652659D01*
X84399502Y-111584538D01*
X84453158Y-111538045D01*
X84523432Y-111527941D01*
X84588012Y-111557435D01*
X84621909Y-111604440D01*
X84655336Y-111685141D01*
X84779070Y-111887057D01*
X84932868Y-112067132D01*
X85112943Y-112220930D01*
X85314859Y-112344664D01*
X85319429Y-112346557D01*
X85319433Y-112346559D01*
X85529073Y-112433395D01*
X85529075Y-112433396D01*
X85533646Y-112435289D01*
X85613499Y-112454460D01*
X85759104Y-112489417D01*
X85759110Y-112489418D01*
X85763917Y-112490572D01*
X86000000Y-112509152D01*
X86236083Y-112490572D01*
X86240890Y-112489418D01*
X86240896Y-112489417D01*
X86386501Y-112454460D01*
X86466354Y-112435289D01*
X86470925Y-112433396D01*
X86470927Y-112433395D01*
X86680567Y-112346559D01*
X86680571Y-112346557D01*
X86685141Y-112344664D01*
X86887057Y-112220930D01*
X87067132Y-112067132D01*
X87220930Y-111887057D01*
X87344664Y-111685141D01*
X87378092Y-111604441D01*
X87433395Y-111470927D01*
X87433396Y-111470925D01*
X87435289Y-111466354D01*
X87490572Y-111236083D01*
X87509152Y-111000000D01*
X87490572Y-110763917D01*
X87435289Y-110533646D01*
X87344664Y-110314859D01*
X87344263Y-110314204D01*
X87331370Y-110245574D01*
X87358067Y-110179788D01*
X87367647Y-110169047D01*
X87980405Y-109556289D01*
X88042717Y-109522263D01*
X88113532Y-109527328D01*
X88170368Y-109569875D01*
X88195179Y-109636395D01*
X88195500Y-109645384D01*
X88195500Y-110467619D01*
X88198565Y-110477051D01*
X88198565Y-110477053D01*
X88202395Y-110488840D01*
X88207011Y-110508066D01*
X88210502Y-110530108D01*
X88215003Y-110538941D01*
X88220633Y-110549991D01*
X88228199Y-110568257D01*
X88235095Y-110589482D01*
X88240925Y-110597506D01*
X88248216Y-110607542D01*
X88258545Y-110624397D01*
X88268674Y-110644276D01*
X88291462Y-110667064D01*
X88291465Y-110667068D01*
X90732932Y-113108535D01*
X90732936Y-113108538D01*
X90755724Y-113131326D01*
X90767382Y-113137266D01*
X90775601Y-113141454D01*
X90792458Y-113151784D01*
X90810518Y-113164905D01*
X90819951Y-113167970D01*
X90831742Y-113171801D01*
X90850008Y-113179366D01*
X90869892Y-113189498D01*
X90879685Y-113191049D01*
X90891934Y-113192989D01*
X90911160Y-113197605D01*
X90922947Y-113201435D01*
X90922949Y-113201435D01*
X90932381Y-113204500D01*
X95966048Y-113204500D01*
X96034169Y-113224502D01*
X96055143Y-113241405D01*
X99309095Y-116495357D01*
X99343121Y-116557669D01*
X99346000Y-116584452D01*
X99346000Y-116626996D01*
X99325998Y-116695117D01*
X99302830Y-116721945D01*
X99260539Y-116758838D01*
X99169450Y-116888444D01*
X99111906Y-117036037D01*
X99091229Y-117193096D01*
X99093976Y-117217978D01*
X99107389Y-117339464D01*
X99108613Y-117350553D01*
X99111223Y-117357684D01*
X99111223Y-117357686D01*
X99123245Y-117390536D01*
X99163053Y-117499319D01*
X99167289Y-117505622D01*
X99167289Y-117505623D01*
X99244342Y-117620289D01*
X99251408Y-117630805D01*
X99257027Y-117635918D01*
X99257028Y-117635919D01*
X99308331Y-117682601D01*
X99368576Y-117737419D01*
X99507793Y-117813008D01*
X99661022Y-117853207D01*
X99718917Y-117854116D01*
X99730473Y-117854298D01*
X99798271Y-117875367D01*
X99843916Y-117929746D01*
X99853416Y-117996728D01*
X99840729Y-118093096D01*
X99846422Y-118144659D01*
X99850389Y-118180588D01*
X99858113Y-118250553D01*
X99860723Y-118257684D01*
X99860723Y-118257686D01*
X99907505Y-118385524D01*
X99912553Y-118399319D01*
X99916789Y-118405622D01*
X99916789Y-118405623D01*
X99952396Y-118458611D01*
X100000908Y-118530805D01*
X100006527Y-118535918D01*
X100006528Y-118535919D01*
X100112460Y-118632309D01*
X100118076Y-118637419D01*
X100257293Y-118713008D01*
X100410522Y-118753207D01*
X100494477Y-118754526D01*
X100561319Y-118755576D01*
X100561322Y-118755576D01*
X100568916Y-118755695D01*
X100723332Y-118720329D01*
X100814911Y-118674270D01*
X100858072Y-118652563D01*
X100858075Y-118652561D01*
X100864855Y-118649151D01*
X100870628Y-118644220D01*
X100870633Y-118644217D01*
X100887670Y-118629666D01*
X100952459Y-118600635D01*
X101022659Y-118611240D01*
X101075982Y-118658115D01*
X101095500Y-118725477D01*
X101095500Y-119280260D01*
X101075498Y-119348381D01*
X101058595Y-119369355D01*
X99002929Y-121425021D01*
X98940617Y-121459047D01*
X98869802Y-121453982D01*
X98854875Y-121447280D01*
X98742989Y-121388039D01*
X98742986Y-121388038D01*
X98736274Y-121384484D01*
X98582633Y-121345892D01*
X98575034Y-121345852D01*
X98575033Y-121345852D01*
X98509181Y-121345507D01*
X98424221Y-121345062D01*
X98416841Y-121346834D01*
X98416839Y-121346834D01*
X98277563Y-121380271D01*
X98277560Y-121380272D01*
X98270184Y-121382043D01*
X98129414Y-121454700D01*
X98010039Y-121558838D01*
X97918950Y-121688444D01*
X97900647Y-121735388D01*
X97867329Y-121820846D01*
X97861406Y-121836037D01*
X97860414Y-121843570D01*
X97860414Y-121843571D01*
X97844604Y-121963664D01*
X97840729Y-121993096D01*
X97841563Y-122000646D01*
X97853601Y-122109682D01*
X97858113Y-122150553D01*
X97860723Y-122157684D01*
X97860723Y-122157686D01*
X97904640Y-122277695D01*
X97912553Y-122299319D01*
X97916789Y-122305622D01*
X97916789Y-122305623D01*
X97978599Y-122397605D01*
X98000908Y-122430805D01*
X98006527Y-122435918D01*
X98006528Y-122435919D01*
X98096615Y-122517891D01*
X98118076Y-122537419D01*
X98257293Y-122613008D01*
X98410522Y-122653207D01*
X98494477Y-122654526D01*
X98561319Y-122655576D01*
X98561322Y-122655576D01*
X98568916Y-122655695D01*
X98723332Y-122620329D01*
X98793742Y-122584917D01*
X98858072Y-122552563D01*
X98858075Y-122552561D01*
X98864855Y-122549151D01*
X98870626Y-122544222D01*
X98870629Y-122544220D01*
X98979541Y-122451200D01*
X98979543Y-122451198D01*
X98985314Y-122446269D01*
X98988293Y-122442124D01*
X99048215Y-122406065D01*
X99055681Y-122404500D01*
X99064066Y-122404500D01*
X99085286Y-122397605D01*
X99104513Y-122392989D01*
X99116762Y-122391049D01*
X99126555Y-122389498D01*
X99146439Y-122379366D01*
X99164705Y-122371801D01*
X99176496Y-122367970D01*
X99185929Y-122364905D01*
X99203989Y-122351784D01*
X99220846Y-122341454D01*
X99231477Y-122336037D01*
X99240723Y-122331326D01*
X99263511Y-122308538D01*
X99263515Y-122308535D01*
X101480405Y-120091645D01*
X101542717Y-120057619D01*
X101613532Y-120062684D01*
X101670368Y-120105231D01*
X101695179Y-120171751D01*
X101695500Y-120180740D01*
X101695500Y-121664066D01*
X101698565Y-121673498D01*
X101698565Y-121673500D01*
X101702395Y-121685287D01*
X101707011Y-121704513D01*
X101710502Y-121726555D01*
X101715003Y-121735388D01*
X101720633Y-121746438D01*
X101728199Y-121764704D01*
X101735095Y-121785929D01*
X101740925Y-121793953D01*
X101748216Y-121803989D01*
X101758545Y-121820844D01*
X101768674Y-121840723D01*
X101791462Y-121863511D01*
X101791465Y-121863515D01*
X102336485Y-122408535D01*
X102336489Y-122408538D01*
X102359277Y-122431326D01*
X102379154Y-122441454D01*
X102396011Y-122451784D01*
X102414071Y-122464905D01*
X102423504Y-122467970D01*
X102435295Y-122471801D01*
X102453561Y-122479366D01*
X102473445Y-122489498D01*
X102483238Y-122491049D01*
X102495487Y-122492989D01*
X102514713Y-122497605D01*
X102526500Y-122501435D01*
X102526502Y-122501435D01*
X102535934Y-122504500D01*
X102923254Y-122504500D01*
X102991375Y-122524502D01*
X103008050Y-122537304D01*
X103118076Y-122637419D01*
X103257293Y-122713008D01*
X103410522Y-122753207D01*
X103494477Y-122754526D01*
X103561319Y-122755576D01*
X103561322Y-122755576D01*
X103568916Y-122755695D01*
X103723332Y-122720329D01*
X103808101Y-122677695D01*
X103858072Y-122652563D01*
X103858075Y-122652561D01*
X103864855Y-122649151D01*
X103870626Y-122644222D01*
X103870629Y-122644220D01*
X103979536Y-122551204D01*
X103979536Y-122551203D01*
X103985314Y-122546269D01*
X104077755Y-122417624D01*
X104136842Y-122270641D01*
X104152917Y-122157686D01*
X104158581Y-122117891D01*
X104158581Y-122117888D01*
X104159162Y-122113807D01*
X104159307Y-122100000D01*
X104140276Y-121942733D01*
X104084280Y-121794546D01*
X104037551Y-121726555D01*
X103998855Y-121670251D01*
X103998854Y-121670249D01*
X103994553Y-121663992D01*
X103988496Y-121658595D01*
X103881946Y-121563664D01*
X103876275Y-121558611D01*
X103868889Y-121554700D01*
X103830565Y-121534409D01*
X103736274Y-121484484D01*
X103582633Y-121445892D01*
X103575034Y-121445852D01*
X103575033Y-121445852D01*
X103509181Y-121445507D01*
X103424221Y-121445062D01*
X103416841Y-121446834D01*
X103416839Y-121446834D01*
X103277563Y-121480271D01*
X103277560Y-121480272D01*
X103270184Y-121482043D01*
X103129414Y-121554700D01*
X103010039Y-121658838D01*
X103009198Y-121657874D01*
X102955349Y-121691050D01*
X102922157Y-121695500D01*
X102819740Y-121695500D01*
X102751619Y-121675498D01*
X102730645Y-121658595D01*
X102541405Y-121469355D01*
X102507379Y-121407043D01*
X102504500Y-121380260D01*
X102504500Y-120140431D01*
X105484816Y-120140431D01*
X105508254Y-120238052D01*
X105513513Y-120252193D01*
X105584141Y-120389033D01*
X105592616Y-120401505D01*
X105693846Y-120517547D01*
X105705060Y-120527644D01*
X105831041Y-120616185D01*
X105844345Y-120623318D01*
X105987813Y-120679253D01*
X106002418Y-120683003D01*
X106119839Y-120698462D01*
X106128048Y-120699000D01*
X106354885Y-120699000D01*
X106370124Y-120694525D01*
X106371329Y-120693135D01*
X106373000Y-120685452D01*
X106373000Y-120145115D01*
X106368525Y-120129876D01*
X106367135Y-120128671D01*
X106359452Y-120127000D01*
X105499707Y-120127000D01*
X105486176Y-120130973D01*
X105484816Y-120140431D01*
X102504500Y-120140431D01*
X102504500Y-119188906D01*
X103071000Y-119188906D01*
X103071424Y-119196207D01*
X103084875Y-119311575D01*
X103088221Y-119325730D01*
X103141227Y-119471760D01*
X103147737Y-119484759D01*
X103232917Y-119614680D01*
X103242241Y-119625832D01*
X103355023Y-119732671D01*
X103366670Y-119741384D01*
X103501004Y-119819412D01*
X103514341Y-119825211D01*
X103661777Y-119869865D01*
X103670268Y-119867935D01*
X103673000Y-119857020D01*
X103673000Y-119849772D01*
X103927000Y-119849772D01*
X103930806Y-119862734D01*
X103945721Y-119864670D01*
X103999499Y-119855429D01*
X105485564Y-119855429D01*
X105486121Y-119869520D01*
X105494613Y-119873000D01*
X106354885Y-119873000D01*
X106370124Y-119868525D01*
X106371329Y-119867135D01*
X106373000Y-119859452D01*
X106373000Y-119319115D01*
X106368525Y-119303876D01*
X106367135Y-119302671D01*
X106359452Y-119301000D01*
X106131363Y-119301000D01*
X106123808Y-119301456D01*
X106009580Y-119315279D01*
X105994938Y-119318875D01*
X105850881Y-119373310D01*
X105837520Y-119380295D01*
X105710607Y-119467519D01*
X105699295Y-119477492D01*
X105596854Y-119592469D01*
X105588246Y-119604855D01*
X105516189Y-119740947D01*
X105510784Y-119755027D01*
X105485564Y-119855429D01*
X103999499Y-119855429D01*
X104000011Y-119855341D01*
X104013968Y-119851233D01*
X104156911Y-119790410D01*
X104169544Y-119783204D01*
X104294663Y-119691128D01*
X104305305Y-119681204D01*
X104405885Y-119562813D01*
X104413952Y-119550717D01*
X104484601Y-119412358D01*
X104489670Y-119398730D01*
X104527001Y-119246170D01*
X104528683Y-119235116D01*
X104528880Y-119231939D01*
X104529000Y-119228061D01*
X104529000Y-119145115D01*
X104524525Y-119129876D01*
X104523135Y-119128671D01*
X104515452Y-119127000D01*
X103945115Y-119127000D01*
X103929876Y-119131475D01*
X103928671Y-119132865D01*
X103927000Y-119140548D01*
X103927000Y-119849772D01*
X103673000Y-119849772D01*
X103673000Y-119145115D01*
X103668525Y-119129876D01*
X103667135Y-119128671D01*
X103659452Y-119127000D01*
X103089115Y-119127000D01*
X103073876Y-119131475D01*
X103072671Y-119132865D01*
X103071000Y-119140548D01*
X103071000Y-119188906D01*
X102504500Y-119188906D01*
X102504500Y-118854885D01*
X103071000Y-118854885D01*
X103075475Y-118870124D01*
X103076865Y-118871329D01*
X103084548Y-118873000D01*
X103654885Y-118873000D01*
X103670124Y-118868525D01*
X103671329Y-118867135D01*
X103673000Y-118859452D01*
X103673000Y-118854885D01*
X103927000Y-118854885D01*
X103931475Y-118870124D01*
X103932865Y-118871329D01*
X103940548Y-118873000D01*
X104510885Y-118873000D01*
X104526124Y-118868525D01*
X104527329Y-118867135D01*
X104529000Y-118859452D01*
X104529000Y-118811094D01*
X104528576Y-118803793D01*
X104515125Y-118688425D01*
X104511779Y-118674270D01*
X104458773Y-118528240D01*
X104452263Y-118515241D01*
X104367083Y-118385320D01*
X104357759Y-118374168D01*
X104244977Y-118267329D01*
X104233330Y-118258616D01*
X104098996Y-118180588D01*
X104085659Y-118174789D01*
X103938223Y-118130135D01*
X103929732Y-118132065D01*
X103927000Y-118142980D01*
X103927000Y-118854885D01*
X103673000Y-118854885D01*
X103673000Y-118150228D01*
X103669194Y-118137266D01*
X103654279Y-118135330D01*
X103599989Y-118144659D01*
X103586032Y-118148767D01*
X103443089Y-118209590D01*
X103430456Y-118216796D01*
X103305337Y-118308872D01*
X103294695Y-118318796D01*
X103194115Y-118437187D01*
X103186048Y-118449283D01*
X103115399Y-118587642D01*
X103110330Y-118601270D01*
X103072999Y-118753830D01*
X103071317Y-118764884D01*
X103071120Y-118768061D01*
X103071000Y-118771939D01*
X103071000Y-118854885D01*
X102504500Y-118854885D01*
X102504500Y-116561060D01*
X102504499Y-116561054D01*
X102504499Y-116528828D01*
X102497606Y-116507612D01*
X102492990Y-116488387D01*
X102491049Y-116476135D01*
X102489498Y-116466339D01*
X102479366Y-116446454D01*
X102471801Y-116428190D01*
X102467970Y-116416401D01*
X102467969Y-116416400D01*
X102464904Y-116406965D01*
X102451791Y-116388916D01*
X102441457Y-116372055D01*
X102435826Y-116361003D01*
X102431326Y-116352171D01*
X102340723Y-116261568D01*
X100268061Y-114188906D01*
X103071000Y-114188906D01*
X103071424Y-114196207D01*
X103084875Y-114311575D01*
X103088221Y-114325730D01*
X103141227Y-114471760D01*
X103147737Y-114484759D01*
X103232917Y-114614680D01*
X103242241Y-114625832D01*
X103355023Y-114732671D01*
X103366670Y-114741384D01*
X103501004Y-114819412D01*
X103514341Y-114825211D01*
X103661777Y-114869865D01*
X103670268Y-114867935D01*
X103673000Y-114857020D01*
X103673000Y-114849772D01*
X103927000Y-114849772D01*
X103930806Y-114862734D01*
X103945721Y-114864670D01*
X104000011Y-114855341D01*
X104013968Y-114851233D01*
X104156911Y-114790410D01*
X104169544Y-114783204D01*
X104294663Y-114691128D01*
X104305305Y-114681204D01*
X104405885Y-114562813D01*
X104413952Y-114550717D01*
X104484601Y-114412358D01*
X104489670Y-114398730D01*
X104527001Y-114246170D01*
X104528683Y-114235116D01*
X104528880Y-114231939D01*
X104529000Y-114228061D01*
X104529000Y-114145115D01*
X104524525Y-114129876D01*
X104523135Y-114128671D01*
X104515452Y-114127000D01*
X103945115Y-114127000D01*
X103929876Y-114131475D01*
X103928671Y-114132865D01*
X103927000Y-114140548D01*
X103927000Y-114849772D01*
X103673000Y-114849772D01*
X103673000Y-114145115D01*
X103668525Y-114129876D01*
X103667135Y-114128671D01*
X103659452Y-114127000D01*
X103089115Y-114127000D01*
X103073876Y-114131475D01*
X103072671Y-114132865D01*
X103071000Y-114140548D01*
X103071000Y-114188906D01*
X100268061Y-114188906D01*
X99934040Y-113854885D01*
X103071000Y-113854885D01*
X103075475Y-113870124D01*
X103076865Y-113871329D01*
X103084548Y-113873000D01*
X103654885Y-113873000D01*
X103670124Y-113868525D01*
X103671329Y-113867135D01*
X103673000Y-113859452D01*
X103673000Y-113854885D01*
X103927000Y-113854885D01*
X103931475Y-113870124D01*
X103932865Y-113871329D01*
X103940548Y-113873000D01*
X104510885Y-113873000D01*
X104526124Y-113868525D01*
X104527329Y-113867135D01*
X104529000Y-113859452D01*
X104529000Y-113811094D01*
X104528576Y-113803793D01*
X104515125Y-113688425D01*
X104511779Y-113674270D01*
X104458773Y-113528240D01*
X104452263Y-113515241D01*
X104367083Y-113385320D01*
X104357759Y-113374168D01*
X104244977Y-113267329D01*
X104233330Y-113258616D01*
X104098996Y-113180588D01*
X104085659Y-113174789D01*
X103972218Y-113140431D01*
X105484816Y-113140431D01*
X105508254Y-113238052D01*
X105513513Y-113252193D01*
X105584141Y-113389033D01*
X105592616Y-113401505D01*
X105693846Y-113517547D01*
X105705060Y-113527644D01*
X105831041Y-113616185D01*
X105844345Y-113623318D01*
X105987813Y-113679253D01*
X106002418Y-113683003D01*
X106119839Y-113698462D01*
X106128048Y-113699000D01*
X106354885Y-113699000D01*
X106370124Y-113694525D01*
X106371329Y-113693135D01*
X106373000Y-113685452D01*
X106373000Y-113145115D01*
X106368525Y-113129876D01*
X106367135Y-113128671D01*
X106359452Y-113127000D01*
X105499707Y-113127000D01*
X105486176Y-113130973D01*
X105484816Y-113140431D01*
X103972218Y-113140431D01*
X103938223Y-113130135D01*
X103929732Y-113132065D01*
X103927000Y-113142980D01*
X103927000Y-113854885D01*
X103673000Y-113854885D01*
X103673000Y-113150228D01*
X103669194Y-113137266D01*
X103654279Y-113135330D01*
X103599989Y-113144659D01*
X103586032Y-113148767D01*
X103443089Y-113209590D01*
X103430456Y-113216796D01*
X103305337Y-113308872D01*
X103294695Y-113318796D01*
X103194115Y-113437187D01*
X103186048Y-113449283D01*
X103115399Y-113587642D01*
X103110330Y-113601270D01*
X103072999Y-113753830D01*
X103071317Y-113764884D01*
X103071120Y-113768061D01*
X103071000Y-113771939D01*
X103071000Y-113854885D01*
X99934040Y-113854885D01*
X98934584Y-112855429D01*
X105485564Y-112855429D01*
X105486121Y-112869520D01*
X105494613Y-112873000D01*
X106354885Y-112873000D01*
X106370124Y-112868525D01*
X106371329Y-112867135D01*
X106373000Y-112859452D01*
X106373000Y-112319115D01*
X106368525Y-112303876D01*
X106367135Y-112302671D01*
X106359452Y-112301000D01*
X106131363Y-112301000D01*
X106123808Y-112301456D01*
X106009580Y-112315279D01*
X105994938Y-112318875D01*
X105850881Y-112373310D01*
X105837520Y-112380295D01*
X105710607Y-112467519D01*
X105699295Y-112477492D01*
X105596854Y-112592469D01*
X105588246Y-112604855D01*
X105516189Y-112740947D01*
X105510784Y-112755027D01*
X105485564Y-112855429D01*
X98934584Y-112855429D01*
X97070621Y-110991465D01*
X97070617Y-110991462D01*
X97047829Y-110968674D01*
X97027950Y-110958545D01*
X97011095Y-110948216D01*
X97001059Y-110940925D01*
X96993035Y-110935095D01*
X96971810Y-110928199D01*
X96953544Y-110920633D01*
X96933661Y-110910502D01*
X96911619Y-110907011D01*
X96892393Y-110902395D01*
X96880606Y-110898565D01*
X96880604Y-110898565D01*
X96871172Y-110895500D01*
X92319740Y-110895500D01*
X92251619Y-110875498D01*
X92230645Y-110858595D01*
X90841405Y-109469355D01*
X90807379Y-109407043D01*
X90804500Y-109380260D01*
X90804500Y-107719740D01*
X90824502Y-107651619D01*
X90841405Y-107630645D01*
X92008535Y-106463514D01*
X92031326Y-106440723D01*
X92041457Y-106420840D01*
X92051784Y-106403987D01*
X92064905Y-106385929D01*
X92071801Y-106364704D01*
X92079367Y-106346438D01*
X92089498Y-106326555D01*
X92091049Y-106316762D01*
X92094114Y-106307329D01*
X92097057Y-106308285D01*
X92120462Y-106258911D01*
X92180729Y-106221383D01*
X92251718Y-106222395D01*
X92310891Y-106261627D01*
X92339460Y-106326621D01*
X92340500Y-106342773D01*
X92340500Y-108741823D01*
X92320498Y-108809944D01*
X92266842Y-108856437D01*
X92243914Y-108864342D01*
X92177563Y-108880271D01*
X92177560Y-108880272D01*
X92170184Y-108882043D01*
X92029414Y-108954700D01*
X91910039Y-109058838D01*
X91818950Y-109188444D01*
X91761406Y-109336037D01*
X91760414Y-109343570D01*
X91760414Y-109343571D01*
X91743855Y-109469355D01*
X91740729Y-109493096D01*
X91747706Y-109556289D01*
X91756550Y-109636395D01*
X91758113Y-109650553D01*
X91760723Y-109657684D01*
X91760723Y-109657686D01*
X91760810Y-109657922D01*
X91812553Y-109799319D01*
X91900908Y-109930805D01*
X91906527Y-109935918D01*
X91906528Y-109935919D01*
X91963102Y-109987397D01*
X92018076Y-110037419D01*
X92157293Y-110113008D01*
X92310522Y-110153207D01*
X92387200Y-110154411D01*
X92420907Y-110154941D01*
X92491063Y-110178208D01*
X92495051Y-110182056D01*
X92584770Y-110228987D01*
X92590706Y-110230730D01*
X92648568Y-110247720D01*
X92648572Y-110247721D01*
X92652891Y-110248989D01*
X92657339Y-110249629D01*
X92657346Y-110249630D01*
X92721552Y-110258861D01*
X92721559Y-110258861D01*
X92726000Y-110259500D01*
X94374000Y-110259500D01*
X94377346Y-110259140D01*
X94377351Y-110259140D01*
X94425795Y-110253932D01*
X94425801Y-110253931D01*
X94429159Y-110253570D01*
X94481501Y-110242184D01*
X94508291Y-110234834D01*
X94515142Y-110230933D01*
X94515144Y-110230932D01*
X94590899Y-110187794D01*
X94596278Y-110184731D01*
X94618030Y-110165883D01*
X94647811Y-110140078D01*
X94647816Y-110140073D01*
X94649934Y-110138238D01*
X94682056Y-110104949D01*
X94728987Y-110015230D01*
X94729955Y-110011934D01*
X94764295Y-109964221D01*
X94785314Y-109946269D01*
X94877755Y-109817624D01*
X94936842Y-109670641D01*
X94959162Y-109513807D01*
X94959307Y-109500000D01*
X94958247Y-109491236D01*
X94941188Y-109350273D01*
X94940276Y-109342733D01*
X94884280Y-109194546D01*
X94794553Y-109063992D01*
X94790575Y-109060448D01*
X94760940Y-108996996D01*
X94759500Y-108978000D01*
X94759500Y-105326000D01*
X94759140Y-105322649D01*
X94753932Y-105274205D01*
X94753931Y-105274199D01*
X94753570Y-105270841D01*
X94742184Y-105218499D01*
X94734834Y-105191709D01*
X94722442Y-105169946D01*
X94687794Y-105109101D01*
X94684731Y-105103722D01*
X94665883Y-105081970D01*
X94640078Y-105052189D01*
X94640073Y-105052184D01*
X94638238Y-105050066D01*
X94604949Y-105017944D01*
X94515230Y-104971013D01*
X94509294Y-104969270D01*
X94451432Y-104952280D01*
X94451428Y-104952279D01*
X94447109Y-104951011D01*
X94442661Y-104950371D01*
X94442654Y-104950370D01*
X94378448Y-104941139D01*
X94378441Y-104941139D01*
X94374000Y-104940500D01*
X94185500Y-104940500D01*
X94117379Y-104920498D01*
X94070886Y-104866842D01*
X94059500Y-104814500D01*
X94059500Y-103426000D01*
X94059140Y-103422649D01*
X94053932Y-103374205D01*
X94053931Y-103374199D01*
X94053570Y-103370841D01*
X94042184Y-103318499D01*
X94034834Y-103291709D01*
X93984731Y-103203722D01*
X93953600Y-103167795D01*
X93940078Y-103152189D01*
X93940073Y-103152184D01*
X93938238Y-103150066D01*
X93904949Y-103117944D01*
X93872098Y-103100760D01*
X93821008Y-103051462D01*
X93804500Y-102989112D01*
X93804500Y-102661161D01*
X93824502Y-102593040D01*
X93841405Y-102572066D01*
X93872066Y-102541405D01*
X93934378Y-102507379D01*
X93961161Y-102504500D01*
X95538839Y-102504500D01*
X95606960Y-102524502D01*
X95627934Y-102541405D01*
X95733595Y-102647066D01*
X95767621Y-102709378D01*
X95770500Y-102736161D01*
X95770500Y-102984070D01*
X95777036Y-103044236D01*
X95779810Y-103051635D01*
X95821845Y-103163763D01*
X95826507Y-103176199D01*
X95911026Y-103288974D01*
X96023801Y-103373493D01*
X96032202Y-103376643D01*
X96032205Y-103376644D01*
X96086412Y-103396965D01*
X96155764Y-103422964D01*
X96215930Y-103429500D01*
X96784070Y-103429500D01*
X96844236Y-103422964D01*
X96913588Y-103396965D01*
X96967795Y-103376644D01*
X96967798Y-103376643D01*
X96976199Y-103373493D01*
X97088974Y-103288974D01*
X97173493Y-103176199D01*
X97178156Y-103163763D01*
X97220190Y-103051635D01*
X97222964Y-103044236D01*
X97229500Y-102984070D01*
X97229500Y-102290930D01*
X97222964Y-102230764D01*
X97198496Y-102165495D01*
X97176644Y-102107205D01*
X97176643Y-102107202D01*
X97173493Y-102098801D01*
X97088974Y-101986026D01*
X96976199Y-101901507D01*
X96967798Y-101898357D01*
X96967795Y-101898356D01*
X96853996Y-101855695D01*
X96844236Y-101852036D01*
X96784070Y-101845500D01*
X96411161Y-101845500D01*
X96343040Y-101825498D01*
X96322066Y-101808595D01*
X96206677Y-101693206D01*
X96199135Y-101683766D01*
X96198755Y-101684089D01*
X96192937Y-101677253D01*
X96188147Y-101669661D01*
X96148140Y-101634328D01*
X96142454Y-101628983D01*
X96131120Y-101617649D01*
X96127535Y-101614962D01*
X96122845Y-101611447D01*
X96115000Y-101605060D01*
X96086557Y-101579940D01*
X96079830Y-101573999D01*
X96071708Y-101570186D01*
X96068907Y-101568346D01*
X96054912Y-101559937D01*
X96051949Y-101558315D01*
X96044764Y-101552930D01*
X96036354Y-101549777D01*
X96036352Y-101549776D01*
X96000818Y-101536454D01*
X95991502Y-101532529D01*
X95991055Y-101532319D01*
X95949018Y-101512583D01*
X95940144Y-101511201D01*
X95936917Y-101510215D01*
X95921134Y-101506075D01*
X95917856Y-101505354D01*
X95909448Y-101502202D01*
X95895691Y-101501180D01*
X95862643Y-101498724D01*
X95852596Y-101497570D01*
X95844114Y-101496249D01*
X95844111Y-101496249D01*
X95839303Y-101495500D01*
X95823938Y-101495500D01*
X95814601Y-101495154D01*
X95807048Y-101494593D01*
X95765333Y-101491493D01*
X95756558Y-101493366D01*
X95747862Y-101493959D01*
X95733262Y-101495500D01*
X93770624Y-101495500D01*
X93758619Y-101494159D01*
X93758579Y-101494655D01*
X93749632Y-101493935D01*
X93740876Y-101491954D01*
X93697338Y-101494655D01*
X93687618Y-101495258D01*
X93679816Y-101495500D01*
X93663774Y-101495500D01*
X93659343Y-101496135D01*
X93659338Y-101496135D01*
X93655313Y-101496712D01*
X93653543Y-101496965D01*
X93643486Y-101497996D01*
X93621024Y-101499389D01*
X93605600Y-101500346D01*
X93605598Y-101500346D01*
X93596641Y-101500902D01*
X93588201Y-101503949D01*
X93584911Y-101504630D01*
X93569062Y-101508582D01*
X93565832Y-101509527D01*
X93556948Y-101510799D01*
X93514222Y-101530225D01*
X93504861Y-101534035D01*
X93473222Y-101545458D01*
X93402357Y-101549778D01*
X93341339Y-101516041D01*
X88798590Y-96973292D01*
X88764564Y-96910980D01*
X88769629Y-96840165D01*
X88812176Y-96783329D01*
X88832154Y-96771094D01*
X88844353Y-96765105D01*
X88914315Y-96753037D01*
X88955213Y-96765007D01*
X89065082Y-96818712D01*
X89074761Y-96820124D01*
X89134505Y-96828840D01*
X89134511Y-96828840D01*
X89139032Y-96829500D01*
X89460968Y-96829500D01*
X89494933Y-96824500D01*
X89525870Y-96819946D01*
X89525872Y-96819945D01*
X89535561Y-96818519D01*
X89644353Y-96765105D01*
X89714315Y-96753037D01*
X89755213Y-96765007D01*
X89865082Y-96818712D01*
X89874761Y-96820124D01*
X89934505Y-96828840D01*
X89934511Y-96828840D01*
X89939032Y-96829500D01*
X90260968Y-96829500D01*
X90294933Y-96824500D01*
X90325870Y-96819946D01*
X90325872Y-96819945D01*
X90335561Y-96818519D01*
X90444353Y-96765105D01*
X90514315Y-96753037D01*
X90555213Y-96765007D01*
X90665082Y-96818712D01*
X90674761Y-96820124D01*
X90734505Y-96828840D01*
X90734511Y-96828840D01*
X90739032Y-96829500D01*
X91060968Y-96829500D01*
X91094933Y-96824500D01*
X91125870Y-96819946D01*
X91125872Y-96819945D01*
X91135561Y-96818519D01*
X91244353Y-96765105D01*
X91314315Y-96753037D01*
X91355213Y-96765007D01*
X91465082Y-96818712D01*
X91474761Y-96820124D01*
X91534505Y-96828840D01*
X91534511Y-96828840D01*
X91539032Y-96829500D01*
X91860968Y-96829500D01*
X91894933Y-96824500D01*
X91925870Y-96819946D01*
X91925872Y-96819945D01*
X91935561Y-96818519D01*
X92044353Y-96765105D01*
X92114315Y-96753037D01*
X92155213Y-96765007D01*
X92265082Y-96818712D01*
X92274761Y-96820124D01*
X92334505Y-96828840D01*
X92334511Y-96828840D01*
X92339032Y-96829500D01*
X92660968Y-96829500D01*
X92694933Y-96824500D01*
X92725870Y-96819946D01*
X92725872Y-96819945D01*
X92735561Y-96818519D01*
X92844353Y-96765105D01*
X92914315Y-96753037D01*
X92955213Y-96765007D01*
X93065082Y-96818712D01*
X93074761Y-96820124D01*
X93134505Y-96828840D01*
X93134511Y-96828840D01*
X93139032Y-96829500D01*
X93460968Y-96829500D01*
X93535561Y-96818519D01*
X93535969Y-96821290D01*
X93591761Y-96820414D01*
X93652083Y-96857855D01*
X93682587Y-96921965D01*
X93679554Y-96964829D01*
X93681288Y-96965082D01*
X93678719Y-96982695D01*
X93670500Y-97039032D01*
X93670500Y-97360968D01*
X93681481Y-97435561D01*
X93734895Y-97544352D01*
X93746963Y-97614315D01*
X93734993Y-97655213D01*
X93681288Y-97765082D01*
X93679876Y-97774761D01*
X93671165Y-97834476D01*
X93670500Y-97839032D01*
X93670500Y-98160968D01*
X93681481Y-98235561D01*
X93734895Y-98344352D01*
X93746963Y-98414315D01*
X93734993Y-98455213D01*
X93681288Y-98565082D01*
X93679876Y-98574761D01*
X93671165Y-98634476D01*
X93670500Y-98639032D01*
X93670500Y-98960968D01*
X93675178Y-98992745D01*
X93679239Y-99020329D01*
X93681481Y-99035561D01*
X93734895Y-99144352D01*
X93746963Y-99214315D01*
X93734993Y-99255213D01*
X93681288Y-99365082D01*
X93679876Y-99374761D01*
X93671165Y-99434476D01*
X93670500Y-99439032D01*
X93670500Y-99760968D01*
X93681481Y-99835561D01*
X93734895Y-99944352D01*
X93746963Y-100014315D01*
X93734993Y-100055213D01*
X93681288Y-100165082D01*
X93679876Y-100174761D01*
X93671165Y-100234476D01*
X93670500Y-100239032D01*
X93670500Y-100560968D01*
X93681481Y-100635561D01*
X93685798Y-100644353D01*
X93730709Y-100735826D01*
X93737162Y-100748970D01*
X93826576Y-100838229D01*
X93940082Y-100893712D01*
X93949761Y-100895124D01*
X94009505Y-100903840D01*
X94009511Y-100903840D01*
X94014032Y-100904500D01*
X95335968Y-100904500D01*
X95367745Y-100899822D01*
X95400870Y-100894946D01*
X95400872Y-100894945D01*
X95410561Y-100893519D01*
X95495989Y-100851576D01*
X95514622Y-100842428D01*
X95514624Y-100842427D01*
X95523970Y-100837838D01*
X95531327Y-100830468D01*
X95534706Y-100828049D01*
X95608053Y-100804500D01*
X98980260Y-100804500D01*
X99048381Y-100824502D01*
X99069355Y-100841405D01*
X99706135Y-101478185D01*
X99740161Y-101540497D01*
X99741723Y-101577967D01*
X99741800Y-101577968D01*
X99741785Y-101579440D01*
X99741963Y-101583720D01*
X99741720Y-101585563D01*
X99741720Y-101585569D01*
X99740729Y-101593096D01*
X99748526Y-101663719D01*
X99756461Y-101735586D01*
X99758113Y-101750553D01*
X99760723Y-101757684D01*
X99760723Y-101757686D01*
X99796546Y-101855576D01*
X99812553Y-101899319D01*
X99816789Y-101905622D01*
X99816789Y-101905623D01*
X99817641Y-101906890D01*
X99900908Y-102030805D01*
X99906527Y-102035918D01*
X99906528Y-102035919D01*
X99917903Y-102046269D01*
X100018076Y-102137419D01*
X100157293Y-102213008D01*
X100310522Y-102253207D01*
X100394477Y-102254526D01*
X100461319Y-102255576D01*
X100461322Y-102255576D01*
X100468916Y-102255695D01*
X100623332Y-102220329D01*
X100693742Y-102184917D01*
X100758072Y-102152563D01*
X100758075Y-102152561D01*
X100764855Y-102149151D01*
X100770626Y-102144222D01*
X100770629Y-102144220D01*
X100879536Y-102051204D01*
X100879536Y-102051203D01*
X100885314Y-102046269D01*
X100977755Y-101917624D01*
X101036842Y-101770641D01*
X101046378Y-101703635D01*
X101058581Y-101617891D01*
X101058581Y-101617888D01*
X101059162Y-101613807D01*
X101059307Y-101600000D01*
X101040276Y-101442733D01*
X100984280Y-101294546D01*
X100894553Y-101163992D01*
X100776275Y-101058611D01*
X100636274Y-100984484D01*
X100482633Y-100945892D01*
X100475034Y-100945852D01*
X100475033Y-100945852D01*
X100379292Y-100945351D01*
X100368878Y-100945296D01*
X100300863Y-100924938D01*
X100280443Y-100908393D01*
X99463515Y-100091465D01*
X99463511Y-100091462D01*
X99440723Y-100068674D01*
X99420844Y-100058545D01*
X99403989Y-100048216D01*
X99393953Y-100040925D01*
X99385929Y-100035095D01*
X99364704Y-100028199D01*
X99346438Y-100020633D01*
X99326555Y-100010502D01*
X99304513Y-100007011D01*
X99285287Y-100002395D01*
X99273500Y-99998565D01*
X99273498Y-99998565D01*
X99264066Y-99995500D01*
X98691980Y-99995500D01*
X98623859Y-99975498D01*
X98577366Y-99921842D01*
X98567262Y-99851568D01*
X98578511Y-99817928D01*
X98577755Y-99817624D01*
X98634006Y-99677695D01*
X98636842Y-99670641D01*
X98648894Y-99585959D01*
X98658581Y-99517891D01*
X98658581Y-99517888D01*
X98659162Y-99513807D01*
X98659307Y-99500000D01*
X98640276Y-99342733D01*
X98584280Y-99194546D01*
X98525169Y-99108538D01*
X98498855Y-99070251D01*
X98498854Y-99070249D01*
X98494553Y-99063992D01*
X98488882Y-99058940D01*
X98488880Y-99058937D01*
X98450315Y-99024577D01*
X98412759Y-98964327D01*
X98413738Y-98893337D01*
X98452942Y-98834146D01*
X98517924Y-98805547D01*
X98534133Y-98804500D01*
X98923254Y-98804500D01*
X98991375Y-98824502D01*
X99008050Y-98837304D01*
X99118076Y-98937419D01*
X99257293Y-99013008D01*
X99410522Y-99053207D01*
X99494477Y-99054526D01*
X99561319Y-99055576D01*
X99561322Y-99055576D01*
X99568916Y-99055695D01*
X99723332Y-99020329D01*
X99832301Y-98965524D01*
X99858072Y-98952563D01*
X99858075Y-98952561D01*
X99864855Y-98949151D01*
X99870626Y-98944222D01*
X99870629Y-98944220D01*
X99979536Y-98851204D01*
X99979536Y-98851203D01*
X99985314Y-98846269D01*
X100077755Y-98717624D01*
X100136842Y-98570641D01*
X100153865Y-98451030D01*
X100158581Y-98417891D01*
X100158581Y-98417888D01*
X100159162Y-98413807D01*
X100159307Y-98400000D01*
X100158763Y-98395500D01*
X100152759Y-98345892D01*
X100140276Y-98242733D01*
X100084280Y-98094546D01*
X100036577Y-98025137D01*
X99998855Y-97970251D01*
X99998854Y-97970249D01*
X99994553Y-97963992D01*
X99876275Y-97858611D01*
X99868889Y-97854700D01*
X99742988Y-97788039D01*
X99742989Y-97788039D01*
X99736274Y-97784484D01*
X99582633Y-97745892D01*
X99575034Y-97745852D01*
X99575033Y-97745852D01*
X99509181Y-97745507D01*
X99424221Y-97745062D01*
X99416841Y-97746834D01*
X99416839Y-97746834D01*
X99277563Y-97780271D01*
X99277560Y-97780272D01*
X99270184Y-97782043D01*
X99129414Y-97854700D01*
X99010039Y-97958838D01*
X99009198Y-97957874D01*
X98955349Y-97991050D01*
X98922157Y-97995500D01*
X97280740Y-97995500D01*
X97212619Y-97975498D01*
X97166126Y-97921842D01*
X97156022Y-97851568D01*
X97185516Y-97786988D01*
X97191645Y-97780405D01*
X100280987Y-94691063D01*
X100343299Y-94657037D01*
X100372060Y-94654174D01*
X100461318Y-94655576D01*
X100461321Y-94655576D01*
X100468916Y-94655695D01*
X100623332Y-94620329D01*
X100699951Y-94581794D01*
X100758072Y-94552563D01*
X100758075Y-94552561D01*
X100764855Y-94549151D01*
X100770626Y-94544222D01*
X100770629Y-94544220D01*
X100879536Y-94451204D01*
X100879536Y-94451203D01*
X100885314Y-94446269D01*
X100977755Y-94317624D01*
X101036842Y-94170641D01*
X101054355Y-94047585D01*
X101058581Y-94017891D01*
X101058581Y-94017888D01*
X101059162Y-94013807D01*
X101059307Y-94000000D01*
X101040276Y-93842733D01*
X100984280Y-93694546D01*
X100954053Y-93650565D01*
X100898855Y-93570251D01*
X100898854Y-93570249D01*
X100894553Y-93563992D01*
X100776275Y-93458611D01*
X100768889Y-93454700D01*
X100709970Y-93423504D01*
X100636274Y-93384484D01*
X100482633Y-93345892D01*
X100475034Y-93345852D01*
X100475033Y-93345852D01*
X100409181Y-93345507D01*
X100324221Y-93345062D01*
X100316841Y-93346834D01*
X100316839Y-93346834D01*
X100177563Y-93380271D01*
X100177560Y-93380272D01*
X100170184Y-93382043D01*
X100029414Y-93454700D01*
X99910039Y-93558838D01*
X99818950Y-93688444D01*
X99804843Y-93724626D01*
X99785194Y-93775025D01*
X99761406Y-93836037D01*
X99760414Y-93843570D01*
X99760414Y-93843571D01*
X99753247Y-93898014D01*
X99740729Y-93993096D01*
X99741563Y-94000647D01*
X99743448Y-94017724D01*
X99731042Y-94087628D01*
X99707304Y-94120646D01*
X98519595Y-95308355D01*
X98457283Y-95342381D01*
X98386468Y-95337316D01*
X98329632Y-95294769D01*
X98304821Y-95228249D01*
X98304500Y-95219260D01*
X98304500Y-93819740D01*
X98324502Y-93751619D01*
X98341405Y-93730645D01*
X99155361Y-92916689D01*
X100102274Y-91969775D01*
X100164586Y-91935750D01*
X100235401Y-91940814D01*
X100251492Y-91948140D01*
X100268168Y-91957194D01*
X100297293Y-91973008D01*
X100450522Y-92013207D01*
X100534477Y-92014526D01*
X100601319Y-92015576D01*
X100601322Y-92015576D01*
X100608916Y-92015695D01*
X100763332Y-91980329D01*
X100841900Y-91940814D01*
X100898072Y-91912563D01*
X100898075Y-91912561D01*
X100904855Y-91909151D01*
X100910626Y-91904222D01*
X100910629Y-91904220D01*
X101019536Y-91811204D01*
X101019536Y-91811203D01*
X101025314Y-91806269D01*
X101117755Y-91677624D01*
X101176842Y-91530641D01*
X101187497Y-91455771D01*
X101198581Y-91377891D01*
X101198581Y-91377888D01*
X101199162Y-91373807D01*
X101199307Y-91360000D01*
X101195766Y-91330734D01*
X101188948Y-91274399D01*
X101180276Y-91202733D01*
X101124280Y-91054546D01*
X101096442Y-91014041D01*
X101038855Y-90930251D01*
X101038854Y-90930249D01*
X101034553Y-90923992D01*
X100916275Y-90818611D01*
X100908889Y-90814700D01*
X100870565Y-90794409D01*
X100776274Y-90744484D01*
X100622633Y-90705892D01*
X100615034Y-90705852D01*
X100615033Y-90705852D01*
X100549181Y-90705507D01*
X100464221Y-90705062D01*
X100456841Y-90706834D01*
X100456839Y-90706834D01*
X100317563Y-90740271D01*
X100317560Y-90740272D01*
X100310184Y-90742043D01*
X100169414Y-90814700D01*
X100050039Y-90918838D01*
X100033153Y-90942863D01*
X99977621Y-90987093D01*
X99969004Y-90990244D01*
X99954071Y-90995096D01*
X99946047Y-91000926D01*
X99946045Y-91000927D01*
X99936023Y-91008209D01*
X99919164Y-91018541D01*
X99899277Y-91028674D01*
X99876485Y-91051466D01*
X97591465Y-93336485D01*
X97591462Y-93336489D01*
X97568674Y-93359277D01*
X97558546Y-93379154D01*
X97548216Y-93396011D01*
X97535095Y-93414071D01*
X97532030Y-93423504D01*
X97528199Y-93435295D01*
X97520634Y-93453561D01*
X97510502Y-93473445D01*
X97508951Y-93483238D01*
X97507011Y-93495487D01*
X97502395Y-93514713D01*
X97495500Y-93535934D01*
X97495500Y-95280260D01*
X97475498Y-95348381D01*
X97458595Y-95369355D01*
X96069355Y-96758595D01*
X96007043Y-96792621D01*
X95980260Y-96795500D01*
X95608099Y-96795500D01*
X95534931Y-96772079D01*
X95530794Y-96769128D01*
X95523424Y-96761771D01*
X95409918Y-96706288D01*
X95398251Y-96704586D01*
X95340495Y-96696160D01*
X95340489Y-96696160D01*
X95335968Y-96695500D01*
X94014032Y-96695500D01*
X93939439Y-96706481D01*
X93939031Y-96703710D01*
X93883239Y-96704586D01*
X93822917Y-96667145D01*
X93792413Y-96603035D01*
X93795446Y-96560171D01*
X93793712Y-96559918D01*
X93803840Y-96490495D01*
X93803840Y-96490489D01*
X93804500Y-96485968D01*
X93804500Y-95164032D01*
X93793519Y-95089439D01*
X93737838Y-94976030D01*
X93716482Y-94954711D01*
X93682403Y-94892428D01*
X93679500Y-94865538D01*
X93679500Y-92009384D01*
X93699502Y-91941263D01*
X93716405Y-91920289D01*
X95130216Y-90506478D01*
X95148964Y-90491336D01*
X95150189Y-90490221D01*
X95158940Y-90484571D01*
X95165387Y-90476393D01*
X95165389Y-90476391D01*
X95179729Y-90458200D01*
X95183675Y-90453759D01*
X95183602Y-90453697D01*
X95186961Y-90449733D01*
X95190638Y-90446056D01*
X95201892Y-90430308D01*
X95205398Y-90425638D01*
X95237156Y-90385353D01*
X95240188Y-90376719D01*
X95245514Y-90369266D01*
X95260203Y-90320150D01*
X95262036Y-90314508D01*
X95276390Y-90273633D01*
X95276390Y-90273632D01*
X95279018Y-90266149D01*
X95279500Y-90260584D01*
X95279500Y-90257876D01*
X95279614Y-90255242D01*
X95279643Y-90255144D01*
X95279807Y-90255151D01*
X95279851Y-90254447D01*
X95281713Y-90248222D01*
X95279597Y-90194365D01*
X95279500Y-90189418D01*
X95279500Y-86909384D01*
X95299502Y-86841263D01*
X95316405Y-86820289D01*
X97180216Y-84956478D01*
X97198964Y-84941336D01*
X97200189Y-84940221D01*
X97208940Y-84934571D01*
X97215387Y-84926393D01*
X97215389Y-84926391D01*
X97229729Y-84908200D01*
X97233675Y-84903759D01*
X97233602Y-84903697D01*
X97236961Y-84899733D01*
X97240638Y-84896056D01*
X97251892Y-84880308D01*
X97255398Y-84875638D01*
X97287156Y-84835353D01*
X97290188Y-84826719D01*
X97295514Y-84819266D01*
X97310203Y-84770150D01*
X97312036Y-84764508D01*
X97326390Y-84723633D01*
X97326390Y-84723632D01*
X97329018Y-84716149D01*
X97329500Y-84710584D01*
X97329500Y-84707876D01*
X97329614Y-84705242D01*
X97329643Y-84705144D01*
X97329807Y-84705151D01*
X97329851Y-84704447D01*
X97331713Y-84698222D01*
X97329597Y-84644365D01*
X97329500Y-84639418D01*
X97329500Y-83880499D01*
X97349502Y-83812378D01*
X97403158Y-83765885D01*
X97455500Y-83754499D01*
X98525066Y-83754499D01*
X98560818Y-83747388D01*
X98587126Y-83742156D01*
X98587128Y-83742155D01*
X98599301Y-83739734D01*
X98609621Y-83732839D01*
X98609622Y-83732838D01*
X98673168Y-83690377D01*
X98683484Y-83683484D01*
X98739734Y-83599301D01*
X98754500Y-83525067D01*
X98754499Y-79474934D01*
X98739734Y-79400699D01*
X98683484Y-79316516D01*
X98599301Y-79260266D01*
X98525067Y-79245500D01*
X96500164Y-79245500D01*
X94474934Y-79245501D01*
X94439182Y-79252612D01*
X94412874Y-79257844D01*
X94412872Y-79257845D01*
X94400699Y-79260266D01*
X94390379Y-79267161D01*
X94390378Y-79267162D01*
X94329985Y-79307516D01*
X94316516Y-79316516D01*
X94260266Y-79400699D01*
X94245500Y-79474933D01*
X94245501Y-83525066D01*
X94260266Y-83599301D01*
X94316516Y-83683484D01*
X94400699Y-83739734D01*
X94474933Y-83754500D01*
X94573016Y-83754500D01*
X96444500Y-83754499D01*
X96512621Y-83774501D01*
X96559114Y-83828157D01*
X96570500Y-83880499D01*
X96570500Y-84440615D01*
X96550498Y-84508736D01*
X96533595Y-84529710D01*
X94694595Y-86368711D01*
X94632283Y-86402736D01*
X94561468Y-86397672D01*
X94504632Y-86355125D01*
X94479821Y-86288605D01*
X94479500Y-86279616D01*
X94479500Y-85753920D01*
X94482049Y-85729973D01*
X94482128Y-85728307D01*
X94484320Y-85718124D01*
X94483096Y-85707782D01*
X94483096Y-85707779D01*
X94480374Y-85684787D01*
X94480023Y-85678846D01*
X94479928Y-85678854D01*
X94479500Y-85673674D01*
X94479500Y-85668476D01*
X94476329Y-85649424D01*
X94475492Y-85643547D01*
X94470693Y-85602997D01*
X94470692Y-85602995D01*
X94469469Y-85592659D01*
X94465508Y-85584410D01*
X94464004Y-85575374D01*
X94459056Y-85566203D01*
X94439652Y-85530240D01*
X94436957Y-85524951D01*
X94418212Y-85485915D01*
X94414780Y-85478768D01*
X94411186Y-85474492D01*
X94409246Y-85472552D01*
X94407493Y-85470641D01*
X94407444Y-85470551D01*
X94407567Y-85470439D01*
X94407095Y-85469904D01*
X94404010Y-85464186D01*
X94364413Y-85427583D01*
X94360848Y-85424154D01*
X92906288Y-83969594D01*
X92872262Y-83907282D01*
X92877327Y-83836467D01*
X92919874Y-83779631D01*
X92986394Y-83754820D01*
X92995383Y-83754499D01*
X93525066Y-83754499D01*
X93560818Y-83747388D01*
X93587126Y-83742156D01*
X93587128Y-83742155D01*
X93599301Y-83739734D01*
X93609621Y-83732839D01*
X93609622Y-83732838D01*
X93673168Y-83690377D01*
X93683484Y-83683484D01*
X93739734Y-83599301D01*
X93754500Y-83525067D01*
X93754499Y-79474934D01*
X93739734Y-79400699D01*
X93683484Y-79316516D01*
X93599301Y-79260266D01*
X93525067Y-79245500D01*
X91500164Y-79245500D01*
X89474934Y-79245501D01*
X89439182Y-79252612D01*
X89412874Y-79257844D01*
X89412872Y-79257845D01*
X89400699Y-79260266D01*
X89390379Y-79267161D01*
X89390378Y-79267162D01*
X89329985Y-79307516D01*
X89316516Y-79316516D01*
X89260266Y-79400699D01*
X89245500Y-79474933D01*
X89245501Y-83525066D01*
X89260266Y-83599301D01*
X89316516Y-83683484D01*
X89400699Y-83739734D01*
X89474933Y-83754500D01*
X89702042Y-83754500D01*
X91565615Y-83754499D01*
X91633736Y-83774501D01*
X91654710Y-83791404D01*
X93683595Y-85820289D01*
X93717621Y-85882601D01*
X93720500Y-85909384D01*
X93720500Y-89690616D01*
X93700498Y-89758737D01*
X93683595Y-89779711D01*
X92269784Y-91193522D01*
X92251036Y-91208664D01*
X92249811Y-91209779D01*
X92241060Y-91215429D01*
X92234613Y-91223607D01*
X92234611Y-91223609D01*
X92220271Y-91241800D01*
X92216325Y-91246241D01*
X92216398Y-91246303D01*
X92213039Y-91250267D01*
X92209362Y-91253944D01*
X92198108Y-91269692D01*
X92194602Y-91274362D01*
X92162844Y-91314647D01*
X92159812Y-91323281D01*
X92154486Y-91330734D01*
X92151501Y-91340715D01*
X92139799Y-91379844D01*
X92137964Y-91385492D01*
X92120982Y-91433851D01*
X92120500Y-91439416D01*
X92120500Y-91442124D01*
X92120386Y-91444758D01*
X92120357Y-91444856D01*
X92120193Y-91444849D01*
X92120149Y-91445553D01*
X92118287Y-91451778D01*
X92119584Y-91484780D01*
X92120403Y-91505635D01*
X92120500Y-91510582D01*
X92120500Y-93672849D01*
X92100498Y-93740970D01*
X92046842Y-93787463D01*
X91976568Y-93797567D01*
X91949341Y-93790478D01*
X91942989Y-93788039D01*
X91936274Y-93784484D01*
X91782633Y-93745892D01*
X91775034Y-93745852D01*
X91775033Y-93745852D01*
X91662656Y-93745263D01*
X91594641Y-93724904D01*
X91548431Y-93671006D01*
X91541137Y-93649851D01*
X91540276Y-93642733D01*
X91536291Y-93632185D01*
X91486964Y-93501649D01*
X91484280Y-93494546D01*
X91463707Y-93464612D01*
X91398855Y-93370251D01*
X91398854Y-93370249D01*
X91394553Y-93363992D01*
X91381388Y-93352262D01*
X91338090Y-93313686D01*
X91276275Y-93258611D01*
X91268889Y-93254700D01*
X91142988Y-93188039D01*
X91142989Y-93188039D01*
X91136274Y-93184484D01*
X90982633Y-93145892D01*
X90975034Y-93145852D01*
X90975033Y-93145852D01*
X90909181Y-93145507D01*
X90824221Y-93145062D01*
X90816841Y-93146834D01*
X90816839Y-93146834D01*
X90677563Y-93180271D01*
X90677560Y-93180272D01*
X90670184Y-93182043D01*
X90529414Y-93254700D01*
X90523697Y-93259687D01*
X90523690Y-93259692D01*
X90488329Y-93290540D01*
X90423847Y-93320248D01*
X90353540Y-93310379D01*
X90299730Y-93264065D01*
X90279500Y-93195591D01*
X90279500Y-92409384D01*
X90299502Y-92341263D01*
X90316405Y-92320289D01*
X91262888Y-91373807D01*
X92230219Y-90406476D01*
X92248961Y-90391339D01*
X92250190Y-90390221D01*
X92258940Y-90384571D01*
X92279729Y-90358200D01*
X92283676Y-90353759D01*
X92283603Y-90353697D01*
X92286963Y-90349732D01*
X92290638Y-90346057D01*
X92293655Y-90341835D01*
X92293660Y-90341829D01*
X92301862Y-90330350D01*
X92305428Y-90325600D01*
X92330711Y-90293528D01*
X92337156Y-90285353D01*
X92340189Y-90276716D01*
X92345513Y-90269266D01*
X92349735Y-90255151D01*
X92353083Y-90243954D01*
X92360202Y-90220151D01*
X92362034Y-90214514D01*
X92376390Y-90173633D01*
X92376390Y-90173632D01*
X92379018Y-90166149D01*
X92379500Y-90160584D01*
X92379500Y-90157876D01*
X92379614Y-90155242D01*
X92379643Y-90155144D01*
X92379807Y-90155151D01*
X92379851Y-90154447D01*
X92381713Y-90148222D01*
X92379597Y-90094365D01*
X92379500Y-90089418D01*
X92379500Y-88722072D01*
X92399502Y-88653951D01*
X92453158Y-88607458D01*
X92461268Y-88604091D01*
X92467792Y-88601645D01*
X92467794Y-88601644D01*
X92476199Y-88598493D01*
X92588974Y-88513974D01*
X92673493Y-88401199D01*
X92722964Y-88269236D01*
X92729500Y-88209070D01*
X92729500Y-87515930D01*
X92722964Y-87455764D01*
X92673493Y-87323801D01*
X92588974Y-87211026D01*
X92476199Y-87126507D01*
X92467798Y-87123357D01*
X92467795Y-87123356D01*
X92389387Y-87093963D01*
X92344236Y-87077036D01*
X92284070Y-87070500D01*
X91715930Y-87070500D01*
X91655764Y-87077036D01*
X91610613Y-87093963D01*
X91532205Y-87123356D01*
X91532202Y-87123357D01*
X91523801Y-87126507D01*
X91411026Y-87211026D01*
X91326507Y-87323801D01*
X91277036Y-87455764D01*
X91270500Y-87515930D01*
X91270500Y-88209070D01*
X91277036Y-88269236D01*
X91326507Y-88401199D01*
X91411026Y-88513974D01*
X91523801Y-88598493D01*
X91532206Y-88601644D01*
X91532208Y-88601645D01*
X91538732Y-88604091D01*
X91595496Y-88646734D01*
X91620194Y-88713296D01*
X91620500Y-88722072D01*
X91620500Y-89890616D01*
X91600498Y-89958737D01*
X91583595Y-89979711D01*
X90869595Y-90693711D01*
X90807283Y-90727737D01*
X90736468Y-90722672D01*
X90679632Y-90680125D01*
X90654821Y-90613605D01*
X90654500Y-90604616D01*
X90654499Y-87381123D01*
X90654499Y-87374934D01*
X90647388Y-87339182D01*
X90642156Y-87312874D01*
X90642155Y-87312872D01*
X90639734Y-87300699D01*
X90583484Y-87216516D01*
X90499301Y-87160266D01*
X90425067Y-87145500D01*
X90200037Y-87145500D01*
X89974934Y-87145501D01*
X89939182Y-87152612D01*
X89912874Y-87157844D01*
X89912872Y-87157845D01*
X89900699Y-87160266D01*
X89890379Y-87167161D01*
X89890378Y-87167162D01*
X89887189Y-87169293D01*
X89816516Y-87216516D01*
X89760266Y-87300699D01*
X89745500Y-87374933D01*
X89745501Y-90625066D01*
X89760266Y-90699301D01*
X89767161Y-90709621D01*
X89767162Y-90709622D01*
X89784423Y-90735454D01*
X89805639Y-90803206D01*
X89786857Y-90871674D01*
X89768754Y-90894552D01*
X89069784Y-91593522D01*
X89051036Y-91608664D01*
X89049811Y-91609778D01*
X89041060Y-91615429D01*
X89034611Y-91623610D01*
X89026910Y-91630617D01*
X89025492Y-91629058D01*
X88978570Y-91662385D01*
X88907649Y-91665677D01*
X88846208Y-91630103D01*
X88823921Y-91597805D01*
X88822668Y-91595195D01*
X88814780Y-91578768D01*
X88811186Y-91574492D01*
X88809246Y-91572552D01*
X88807493Y-91570641D01*
X88807444Y-91570551D01*
X88807567Y-91570439D01*
X88807095Y-91569904D01*
X88804010Y-91564186D01*
X88764413Y-91527583D01*
X88760848Y-91524154D01*
X88216405Y-90979711D01*
X88182379Y-90917399D01*
X88179500Y-90890616D01*
X88179500Y-90827668D01*
X88200734Y-90757668D01*
X88239734Y-90699301D01*
X88254500Y-90625067D01*
X88254499Y-87374934D01*
X88247388Y-87339182D01*
X88242156Y-87312874D01*
X88242155Y-87312872D01*
X88239734Y-87300699D01*
X88183484Y-87216516D01*
X88099301Y-87160266D01*
X88025067Y-87145500D01*
X87800037Y-87145500D01*
X87574934Y-87145501D01*
X87539182Y-87152612D01*
X87512874Y-87157844D01*
X87512872Y-87157845D01*
X87500699Y-87160266D01*
X87490379Y-87167161D01*
X87490378Y-87167162D01*
X87487189Y-87169293D01*
X87416516Y-87216516D01*
X87360266Y-87300699D01*
X87345500Y-87374933D01*
X87345500Y-87381120D01*
X87345501Y-90104617D01*
X87325499Y-90172738D01*
X87271843Y-90219231D01*
X87201569Y-90229335D01*
X87136989Y-90199841D01*
X87130406Y-90193712D01*
X84206478Y-87269784D01*
X84191336Y-87251036D01*
X84190221Y-87249811D01*
X84184571Y-87241060D01*
X84176393Y-87234613D01*
X84176391Y-87234611D01*
X84158200Y-87220271D01*
X84153759Y-87216325D01*
X84153697Y-87216398D01*
X84149733Y-87213039D01*
X84146056Y-87209362D01*
X84130308Y-87198108D01*
X84125638Y-87194602D01*
X84085353Y-87162844D01*
X84076719Y-87159812D01*
X84069266Y-87154486D01*
X84020150Y-87139797D01*
X84014508Y-87137964D01*
X83973633Y-87123610D01*
X83973632Y-87123610D01*
X83966149Y-87120982D01*
X83960584Y-87120500D01*
X83957876Y-87120500D01*
X83955242Y-87120386D01*
X83955144Y-87120357D01*
X83955151Y-87120193D01*
X83954447Y-87120149D01*
X83948222Y-87118287D01*
X83894365Y-87120403D01*
X83889418Y-87120500D01*
X76480499Y-87120500D01*
X76412378Y-87100498D01*
X76365885Y-87046842D01*
X76354499Y-86994500D01*
X76354499Y-86624934D01*
X76339734Y-86550699D01*
X76283484Y-86466516D01*
X76199301Y-86410266D01*
X76125067Y-86395500D01*
X75250142Y-86395500D01*
X74374934Y-86395501D01*
X74339182Y-86402612D01*
X74312874Y-86407844D01*
X74312872Y-86407845D01*
X74300699Y-86410266D01*
X74290379Y-86417161D01*
X74290378Y-86417162D01*
X74235331Y-86453944D01*
X74216516Y-86466516D01*
X74160266Y-86550699D01*
X74145500Y-86624933D01*
X74145501Y-88375066D01*
X74160266Y-88449301D01*
X74216516Y-88533484D01*
X74300699Y-88589734D01*
X74374933Y-88604500D01*
X75249858Y-88604500D01*
X76125066Y-88604499D01*
X76160818Y-88597388D01*
X76187126Y-88592156D01*
X76187128Y-88592155D01*
X76199301Y-88589734D01*
X76209621Y-88582839D01*
X76209622Y-88582838D01*
X76273168Y-88540377D01*
X76283484Y-88533484D01*
X76339734Y-88449301D01*
X76354500Y-88375067D01*
X76354500Y-88005500D01*
X76374502Y-87937379D01*
X76428158Y-87890886D01*
X76480500Y-87879500D01*
X83690616Y-87879500D01*
X83758737Y-87899502D01*
X83779711Y-87916405D01*
X86621095Y-90757789D01*
X86655121Y-90820101D01*
X86658000Y-90846884D01*
X86658000Y-90914589D01*
X86637998Y-90982710D01*
X86584342Y-91029203D01*
X86576229Y-91032571D01*
X86546951Y-91043547D01*
X86455236Y-91077929D01*
X86448057Y-91083309D01*
X86448054Y-91083311D01*
X86362427Y-91147485D01*
X86339596Y-91164596D01*
X86334215Y-91171776D01*
X86258311Y-91273054D01*
X86258309Y-91273057D01*
X86252929Y-91280236D01*
X86202202Y-91415552D01*
X86201349Y-91423402D01*
X86201349Y-91423403D01*
X86197833Y-91455771D01*
X86195500Y-91477244D01*
X86195500Y-92522756D01*
X86202202Y-92584448D01*
X86252929Y-92719764D01*
X86258309Y-92726943D01*
X86258311Y-92726946D01*
X86282369Y-92759046D01*
X86339596Y-92835404D01*
X86346776Y-92840785D01*
X86448054Y-92916689D01*
X86448057Y-92916691D01*
X86455236Y-92922071D01*
X86544004Y-92955348D01*
X86583157Y-92970026D01*
X86583159Y-92970026D01*
X86590552Y-92972798D01*
X86598402Y-92973651D01*
X86598403Y-92973651D01*
X86648847Y-92979131D01*
X86652244Y-92979500D01*
X86732000Y-92979500D01*
X86800121Y-92999502D01*
X86846614Y-93053158D01*
X86858000Y-93105500D01*
X86858000Y-93237849D01*
X86837998Y-93305970D01*
X86807565Y-93338675D01*
X86711026Y-93411026D01*
X86626507Y-93523801D01*
X86623357Y-93532202D01*
X86623356Y-93532205D01*
X86604500Y-93582504D01*
X86577036Y-93655764D01*
X86570500Y-93715930D01*
X86570500Y-94284070D01*
X86577036Y-94344236D01*
X86593963Y-94389387D01*
X86617137Y-94451204D01*
X86626507Y-94476199D01*
X86711026Y-94588974D01*
X86823801Y-94673493D01*
X86832202Y-94676643D01*
X86832205Y-94676644D01*
X86882544Y-94695515D01*
X86955764Y-94722964D01*
X87015930Y-94729500D01*
X87069500Y-94729500D01*
X87137621Y-94749502D01*
X87184114Y-94803158D01*
X87195500Y-94855500D01*
X87195500Y-96517549D01*
X87194159Y-96529554D01*
X87194655Y-96529594D01*
X87193935Y-96538541D01*
X87191954Y-96547297D01*
X87192510Y-96556257D01*
X87195258Y-96600555D01*
X87195500Y-96608357D01*
X87195500Y-96624399D01*
X87196135Y-96628830D01*
X87196135Y-96628835D01*
X87196965Y-96634626D01*
X87197996Y-96644687D01*
X87200902Y-96691532D01*
X87203949Y-96699972D01*
X87204630Y-96703262D01*
X87208582Y-96719111D01*
X87209527Y-96722341D01*
X87210799Y-96731225D01*
X87214514Y-96739396D01*
X87230218Y-96773936D01*
X87234030Y-96783301D01*
X87246922Y-96819010D01*
X87246924Y-96819013D01*
X87249972Y-96827457D01*
X87255268Y-96834706D01*
X87256840Y-96837663D01*
X87265093Y-96851787D01*
X87266898Y-96854610D01*
X87270612Y-96862778D01*
X87276469Y-96869575D01*
X87276470Y-96869577D01*
X87301243Y-96898326D01*
X87307525Y-96906237D01*
X87315473Y-96917117D01*
X87326335Y-96927979D01*
X87332693Y-96934825D01*
X87364944Y-96972255D01*
X87372479Y-96977139D01*
X87379051Y-96982872D01*
X87390455Y-96992099D01*
X92241890Y-101843534D01*
X92275916Y-101905846D01*
X92270851Y-101976661D01*
X92228304Y-102033497D01*
X92182209Y-102055148D01*
X92077564Y-102080271D01*
X92077562Y-102080272D01*
X92070184Y-102082043D01*
X91929414Y-102154700D01*
X91810039Y-102258838D01*
X91718950Y-102388444D01*
X91661406Y-102536037D01*
X91660414Y-102543570D01*
X91660414Y-102543571D01*
X91647241Y-102643634D01*
X91640729Y-102693096D01*
X91658113Y-102850553D01*
X91660723Y-102857684D01*
X91660723Y-102857686D01*
X91712553Y-102999319D01*
X91709892Y-103000293D01*
X91720557Y-103057069D01*
X91693859Y-103122855D01*
X91635833Y-103163763D01*
X91595185Y-103170500D01*
X91539032Y-103170500D01*
X91507255Y-103175178D01*
X91474130Y-103180054D01*
X91474128Y-103180055D01*
X91464439Y-103181481D01*
X91355647Y-103234895D01*
X91285685Y-103246963D01*
X91244787Y-103234993D01*
X91134918Y-103181288D01*
X91122662Y-103179500D01*
X91065495Y-103171160D01*
X91065489Y-103171160D01*
X91060968Y-103170500D01*
X90739032Y-103170500D01*
X90707255Y-103175178D01*
X90674130Y-103180054D01*
X90674128Y-103180055D01*
X90664439Y-103181481D01*
X90555647Y-103234895D01*
X90485685Y-103246963D01*
X90444787Y-103234993D01*
X90334918Y-103181288D01*
X90322662Y-103179500D01*
X90265495Y-103171160D01*
X90265489Y-103171160D01*
X90260968Y-103170500D01*
X89939032Y-103170500D01*
X89907255Y-103175178D01*
X89874130Y-103180054D01*
X89874128Y-103180055D01*
X89864439Y-103181481D01*
X89755647Y-103234895D01*
X89685685Y-103246963D01*
X89644787Y-103234993D01*
X89534918Y-103181288D01*
X89522662Y-103179500D01*
X89465495Y-103171160D01*
X89465489Y-103171160D01*
X89460968Y-103170500D01*
X89139032Y-103170500D01*
X89107255Y-103175178D01*
X89074130Y-103180054D01*
X89074128Y-103180055D01*
X89064439Y-103181481D01*
X88955647Y-103234895D01*
X88885685Y-103246963D01*
X88844787Y-103234993D01*
X88734918Y-103181288D01*
X88722662Y-103179500D01*
X88665495Y-103171160D01*
X88665489Y-103171160D01*
X88660968Y-103170500D01*
X88339032Y-103170500D01*
X88307255Y-103175178D01*
X88274130Y-103180054D01*
X88274128Y-103180055D01*
X88264439Y-103181481D01*
X88155647Y-103234895D01*
X88085685Y-103246963D01*
X88044787Y-103234993D01*
X87934918Y-103181288D01*
X87922662Y-103179500D01*
X87865495Y-103171160D01*
X87865489Y-103171160D01*
X87860968Y-103170500D01*
X87539032Y-103170500D01*
X87464439Y-103181481D01*
X87464031Y-103178710D01*
X87408239Y-103179586D01*
X87347917Y-103142145D01*
X87317413Y-103078035D01*
X87320446Y-103035171D01*
X87318712Y-103034918D01*
X87328840Y-102965495D01*
X87328840Y-102965489D01*
X87329500Y-102960968D01*
X87329500Y-102639032D01*
X87324822Y-102607255D01*
X87319946Y-102574130D01*
X87319945Y-102574128D01*
X87318519Y-102564439D01*
X87265105Y-102455647D01*
X87253037Y-102385685D01*
X87265007Y-102344787D01*
X87318712Y-102234918D01*
X87329500Y-102160968D01*
X87329500Y-101969036D01*
X87349502Y-101900915D01*
X87403158Y-101854422D01*
X87473432Y-101844318D01*
X87487476Y-101847161D01*
X87503170Y-101851279D01*
X87503176Y-101851280D01*
X87510522Y-101853207D01*
X87594477Y-101854526D01*
X87661319Y-101855576D01*
X87661322Y-101855576D01*
X87668916Y-101855695D01*
X87823332Y-101820329D01*
X87908101Y-101777695D01*
X87958072Y-101752563D01*
X87958075Y-101752561D01*
X87964855Y-101749151D01*
X87970626Y-101744222D01*
X87970629Y-101744220D01*
X88079536Y-101651204D01*
X88079536Y-101651203D01*
X88085314Y-101646269D01*
X88177755Y-101517624D01*
X88236842Y-101370641D01*
X88259162Y-101213807D01*
X88259307Y-101200000D01*
X88240276Y-101042733D01*
X88184280Y-100894546D01*
X88148718Y-100842803D01*
X88098855Y-100770251D01*
X88098854Y-100770249D01*
X88094553Y-100763992D01*
X88067201Y-100739622D01*
X87981946Y-100663664D01*
X87976275Y-100658611D01*
X87836274Y-100584484D01*
X87682633Y-100545892D01*
X87675034Y-100545852D01*
X87675033Y-100545852D01*
X87609181Y-100545507D01*
X87524221Y-100545062D01*
X87516839Y-100546834D01*
X87516833Y-100546835D01*
X87484915Y-100554498D01*
X87414007Y-100550952D01*
X87356273Y-100509633D01*
X87330042Y-100443659D01*
X87329500Y-100431980D01*
X87329500Y-100239032D01*
X87318519Y-100164439D01*
X87265105Y-100055647D01*
X87253037Y-99985685D01*
X87265007Y-99944787D01*
X87318712Y-99834918D01*
X87321235Y-99817624D01*
X87328840Y-99765495D01*
X87328840Y-99765489D01*
X87329500Y-99760968D01*
X87329500Y-99439032D01*
X87324822Y-99407255D01*
X87319946Y-99374130D01*
X87319945Y-99374128D01*
X87318519Y-99364439D01*
X87265105Y-99255647D01*
X87253037Y-99185685D01*
X87265007Y-99144787D01*
X87318712Y-99034918D01*
X87325912Y-98985565D01*
X87328840Y-98965495D01*
X87328840Y-98965489D01*
X87329500Y-98960968D01*
X87329500Y-98639032D01*
X87324822Y-98607255D01*
X87319946Y-98574130D01*
X87319945Y-98574128D01*
X87318519Y-98564439D01*
X87265105Y-98455647D01*
X87253037Y-98385685D01*
X87265007Y-98344787D01*
X87318712Y-98234918D01*
X87320124Y-98225239D01*
X87328840Y-98165495D01*
X87328840Y-98165489D01*
X87329500Y-98160968D01*
X87329500Y-97839032D01*
X87321993Y-97788039D01*
X87319946Y-97774130D01*
X87319945Y-97774128D01*
X87318519Y-97764439D01*
X87262838Y-97651030D01*
X87173424Y-97561771D01*
X87059918Y-97506288D01*
X87050239Y-97504876D01*
X86990495Y-97496160D01*
X86990489Y-97496160D01*
X86985968Y-97495500D01*
X85664032Y-97495500D01*
X85632255Y-97500178D01*
X85599130Y-97505054D01*
X85599128Y-97505055D01*
X85589439Y-97506481D01*
X85476030Y-97562162D01*
X85468676Y-97569529D01*
X85460884Y-97575107D01*
X85393851Y-97598497D01*
X85324814Y-97581932D01*
X85298444Y-97561750D01*
X81216405Y-93479711D01*
X81182379Y-93417399D01*
X81179500Y-93390616D01*
X81179500Y-91153920D01*
X81182049Y-91129973D01*
X81182128Y-91128307D01*
X81184320Y-91118124D01*
X81183096Y-91107782D01*
X81183096Y-91107779D01*
X81180374Y-91084787D01*
X81180023Y-91078846D01*
X81179928Y-91078854D01*
X81179500Y-91073674D01*
X81179500Y-91068476D01*
X81176980Y-91053334D01*
X81176329Y-91049427D01*
X81175492Y-91043547D01*
X81170693Y-91002997D01*
X81170692Y-91002995D01*
X81169469Y-90992659D01*
X81165508Y-90984410D01*
X81164004Y-90975374D01*
X81152551Y-90954147D01*
X81139652Y-90930240D01*
X81136957Y-90924951D01*
X81118212Y-90885915D01*
X81114780Y-90878768D01*
X81111186Y-90874492D01*
X81109246Y-90872552D01*
X81107493Y-90870641D01*
X81107444Y-90870551D01*
X81107567Y-90870439D01*
X81107095Y-90869904D01*
X81104010Y-90864186D01*
X81064413Y-90827583D01*
X81060848Y-90824154D01*
X80046478Y-89809784D01*
X80031336Y-89791036D01*
X80030221Y-89789811D01*
X80024571Y-89781060D01*
X80016393Y-89774613D01*
X80016391Y-89774611D01*
X79998200Y-89760271D01*
X79993759Y-89756325D01*
X79993697Y-89756398D01*
X79989733Y-89753039D01*
X79986056Y-89749362D01*
X79970308Y-89738108D01*
X79965638Y-89734602D01*
X79925353Y-89702844D01*
X79916719Y-89699812D01*
X79909266Y-89694486D01*
X79860150Y-89679797D01*
X79854508Y-89677964D01*
X79813633Y-89663610D01*
X79813632Y-89663610D01*
X79806149Y-89660982D01*
X79800584Y-89660500D01*
X79797876Y-89660500D01*
X79795242Y-89660386D01*
X79795144Y-89660357D01*
X79795151Y-89660193D01*
X79794447Y-89660149D01*
X79788222Y-89658287D01*
X79734365Y-89660403D01*
X79729418Y-89660500D01*
X76372792Y-89660500D01*
X76304671Y-89640498D01*
X76259786Y-89590228D01*
X76198331Y-89465609D01*
X76195776Y-89460428D01*
X76074320Y-89297779D01*
X75925258Y-89159987D01*
X75920375Y-89156906D01*
X75920371Y-89156903D01*
X75758464Y-89054748D01*
X75753581Y-89051667D01*
X75565039Y-88976446D01*
X75559379Y-88975320D01*
X75559375Y-88975319D01*
X75371613Y-88937971D01*
X75371610Y-88937971D01*
X75365946Y-88936844D01*
X75360171Y-88936768D01*
X75360167Y-88936768D01*
X75258793Y-88935441D01*
X75162971Y-88934187D01*
X75157274Y-88935166D01*
X75157273Y-88935166D01*
X74968607Y-88967585D01*
X74962910Y-88968564D01*
X74772463Y-89038824D01*
X74598010Y-89142612D01*
X74593670Y-89146418D01*
X74593666Y-89146421D01*
X74573723Y-89163911D01*
X74445392Y-89276455D01*
X74319720Y-89435869D01*
X74317031Y-89440980D01*
X74317029Y-89440983D01*
X74304073Y-89465609D01*
X74225203Y-89615515D01*
X74165007Y-89809378D01*
X74141148Y-90010964D01*
X74141526Y-90016730D01*
X74152527Y-90184571D01*
X74154424Y-90213522D01*
X74155845Y-90219118D01*
X74155846Y-90219123D01*
X74197865Y-90384571D01*
X74204392Y-90410269D01*
X74206809Y-90415512D01*
X74241764Y-90491336D01*
X74289377Y-90594616D01*
X74315186Y-90631135D01*
X74396028Y-90745524D01*
X74406533Y-90760389D01*
X74410675Y-90764424D01*
X74441748Y-90794694D01*
X74551938Y-90902035D01*
X74556742Y-90905245D01*
X74584799Y-90923992D01*
X74720720Y-91014812D01*
X74726023Y-91017090D01*
X74726026Y-91017092D01*
X74901921Y-91092662D01*
X74907228Y-91094942D01*
X74963960Y-91107779D01*
X75099579Y-91138467D01*
X75099584Y-91138468D01*
X75105216Y-91139742D01*
X75110987Y-91139969D01*
X75110989Y-91139969D01*
X75170756Y-91142317D01*
X75308053Y-91147712D01*
X75430397Y-91129973D01*
X75503231Y-91119413D01*
X75503236Y-91119412D01*
X75508945Y-91118584D01*
X75514409Y-91116729D01*
X75514414Y-91116728D01*
X75695693Y-91055192D01*
X75695698Y-91055190D01*
X75701165Y-91053334D01*
X75708142Y-91049427D01*
X75809508Y-90992659D01*
X75878276Y-90954147D01*
X75910155Y-90927634D01*
X76029913Y-90828031D01*
X76034345Y-90824345D01*
X76091463Y-90755669D01*
X76160453Y-90672718D01*
X76160455Y-90672715D01*
X76164147Y-90668276D01*
X76263334Y-90491165D01*
X76263787Y-90491419D01*
X76307368Y-90440151D01*
X76376488Y-90419500D01*
X79530616Y-90419500D01*
X79598737Y-90439502D01*
X79619711Y-90456405D01*
X80383595Y-91220289D01*
X80417621Y-91282601D01*
X80420500Y-91309384D01*
X80420500Y-93546080D01*
X80417951Y-93570028D01*
X80417872Y-93571693D01*
X80415680Y-93581876D01*
X80416904Y-93592217D01*
X80419627Y-93615223D01*
X80419977Y-93621154D01*
X80420072Y-93621146D01*
X80420500Y-93626324D01*
X80420500Y-93631524D01*
X80421354Y-93636653D01*
X80421354Y-93636656D01*
X80423669Y-93650565D01*
X80424506Y-93656443D01*
X80429016Y-93694546D01*
X80430530Y-93707341D01*
X80434493Y-93715593D01*
X80435996Y-93724626D01*
X80440943Y-93733795D01*
X80440944Y-93733797D01*
X80460334Y-93769732D01*
X80463031Y-93775025D01*
X80481785Y-93814082D01*
X80481788Y-93814086D01*
X80485219Y-93821232D01*
X80488814Y-93825508D01*
X80490737Y-93827431D01*
X80492509Y-93829363D01*
X80492552Y-93829442D01*
X80492428Y-93829555D01*
X80492904Y-93830095D01*
X80495990Y-93835814D01*
X80503635Y-93842881D01*
X80535586Y-93872416D01*
X80539152Y-93875846D01*
X81188711Y-94525405D01*
X81222737Y-94587717D01*
X81217672Y-94658532D01*
X81175125Y-94715368D01*
X81108605Y-94740179D01*
X81099616Y-94740500D01*
X76372792Y-94740500D01*
X76304671Y-94720498D01*
X76259786Y-94670228D01*
X76198331Y-94545609D01*
X76195776Y-94540428D01*
X76074320Y-94377779D01*
X75925258Y-94239987D01*
X75920375Y-94236906D01*
X75920371Y-94236903D01*
X75758464Y-94134748D01*
X75753581Y-94131667D01*
X75565039Y-94056446D01*
X75559379Y-94055320D01*
X75559375Y-94055319D01*
X75371613Y-94017971D01*
X75371610Y-94017971D01*
X75365946Y-94016844D01*
X75360171Y-94016768D01*
X75360167Y-94016768D01*
X75258793Y-94015441D01*
X75162971Y-94014187D01*
X75157274Y-94015166D01*
X75157273Y-94015166D01*
X74968607Y-94047585D01*
X74962910Y-94048564D01*
X74772463Y-94118824D01*
X74598010Y-94222612D01*
X74593670Y-94226418D01*
X74593666Y-94226421D01*
X74573723Y-94243911D01*
X74445392Y-94356455D01*
X74319720Y-94515869D01*
X74317031Y-94520980D01*
X74317029Y-94520983D01*
X74304073Y-94545609D01*
X74225203Y-94695515D01*
X74211235Y-94740500D01*
X74172410Y-94865538D01*
X74165007Y-94889378D01*
X74141148Y-95090964D01*
X73254500Y-95090964D01*
X73254500Y-92722602D01*
X74152899Y-92722602D01*
X74154542Y-92747676D01*
X74156343Y-92759046D01*
X74203443Y-92944502D01*
X74207284Y-92955348D01*
X74287394Y-93129120D01*
X74293145Y-93139081D01*
X74403579Y-93295343D01*
X74411057Y-93304098D01*
X74548114Y-93437612D01*
X74557058Y-93444855D01*
X74716156Y-93551161D01*
X74726266Y-93556651D01*
X74902077Y-93632185D01*
X74913020Y-93635740D01*
X75099647Y-93677970D01*
X75106383Y-93678857D01*
X75120302Y-93675357D01*
X75120658Y-93674978D01*
X75123000Y-93665144D01*
X75123000Y-93659095D01*
X75377000Y-93659095D01*
X75380966Y-93672601D01*
X75394966Y-93674605D01*
X75503106Y-93658926D01*
X75514302Y-93656238D01*
X75695497Y-93594730D01*
X75705994Y-93590056D01*
X75872958Y-93496552D01*
X75882430Y-93490042D01*
X76029553Y-93367682D01*
X76037682Y-93359553D01*
X76160042Y-93212430D01*
X76166552Y-93202958D01*
X76260056Y-93035994D01*
X76264730Y-93025497D01*
X76326238Y-92844302D01*
X76328926Y-92833106D01*
X76344610Y-92724929D01*
X76342624Y-92710993D01*
X76329056Y-92707000D01*
X75395115Y-92707000D01*
X75379876Y-92711475D01*
X75378671Y-92712865D01*
X75377000Y-92720548D01*
X75377000Y-93659095D01*
X75123000Y-93659095D01*
X75123000Y-92725115D01*
X75118525Y-92709876D01*
X75117135Y-92708671D01*
X75109452Y-92707000D01*
X74169991Y-92707000D01*
X74154951Y-92711416D01*
X74152899Y-92722602D01*
X73254500Y-92722602D01*
X73254500Y-92435012D01*
X74155375Y-92435012D01*
X74157817Y-92449431D01*
X74170559Y-92453000D01*
X75104885Y-92453000D01*
X75120124Y-92448525D01*
X75121329Y-92447135D01*
X75123000Y-92439452D01*
X75123000Y-92434885D01*
X75377000Y-92434885D01*
X75381475Y-92450124D01*
X75382865Y-92451329D01*
X75390548Y-92453000D01*
X76328945Y-92453000D01*
X76343490Y-92448729D01*
X76345553Y-92436595D01*
X76340693Y-92383707D01*
X76338595Y-92372386D01*
X76286658Y-92188231D01*
X76282533Y-92177484D01*
X76197903Y-92005871D01*
X76191893Y-91996063D01*
X76077400Y-91842739D01*
X76069710Y-91834199D01*
X75929192Y-91704304D01*
X75920067Y-91697303D01*
X75758236Y-91595195D01*
X75747989Y-91589974D01*
X75570260Y-91519068D01*
X75559232Y-91515801D01*
X75394769Y-91483088D01*
X75381894Y-91484240D01*
X75377000Y-91499396D01*
X75377000Y-92434885D01*
X75123000Y-92434885D01*
X75123000Y-91499678D01*
X75119194Y-91486716D01*
X75104278Y-91484780D01*
X74968737Y-91508070D01*
X74957617Y-91511050D01*
X74778095Y-91577279D01*
X74767717Y-91582229D01*
X74603273Y-91680063D01*
X74593961Y-91686829D01*
X74450097Y-91812994D01*
X74442180Y-91821337D01*
X74323718Y-91971605D01*
X74317450Y-91981256D01*
X74228360Y-92150589D01*
X74223951Y-92161232D01*
X74167210Y-92343967D01*
X74164820Y-92355211D01*
X74155375Y-92435012D01*
X73254500Y-92435012D01*
X73254500Y-73380500D01*
X73274502Y-73312379D01*
X73328158Y-73265886D01*
X73380500Y-73254500D01*
X107619500Y-73254500D01*
X107687621Y-73274502D01*
G37*
G04 #@! TD.AperFunction*
G04 #@! TA.AperFunction,Conductor*
G36*
X93742121Y-103320002D02*
G01*
X93788614Y-103373658D01*
X93800000Y-103426000D01*
X93800000Y-105200000D01*
X94374000Y-105200000D01*
X94442121Y-105220002D01*
X94488614Y-105273658D01*
X94500000Y-105326000D01*
X94500000Y-109874000D01*
X94479998Y-109942121D01*
X94426342Y-109988614D01*
X94374000Y-110000000D01*
X92726000Y-110000000D01*
X92657879Y-109979998D01*
X92611386Y-109926342D01*
X92600000Y-109874000D01*
X92600000Y-105326000D01*
X92620002Y-105257879D01*
X92673658Y-105211386D01*
X92726000Y-105200000D01*
X93000000Y-105200000D01*
X93000000Y-104875956D01*
X93001320Y-104857768D01*
X93003839Y-104840497D01*
X93004500Y-104835968D01*
X93004500Y-103514032D01*
X93001344Y-103492593D01*
X93000000Y-103474243D01*
X93000000Y-103426000D01*
X93020002Y-103357879D01*
X93073658Y-103311386D01*
X93126000Y-103300000D01*
X93674000Y-103300000D01*
X93742121Y-103320002D01*
G37*
G04 #@! TD.AperFunction*
M02*
