M48
; DRILL file {KiCad (6.0.9)} date Mon Feb 13 11:25:58 2023
; FORMAT={-:-/ absolute / metric / decimal}
; #@! TF.CreationDate,2023-02-13T11:25:58-05:00
; #@! TF.GenerationSoftware,Kicad,Pcbnew,(6.0.9)
; #@! TF.FileFunction,Plated,1,2,PTH
FMAT,2
METRIC
; #@! TA.AperFunction,Plated,PTH,ViaDrill
T1C0.400
; #@! TA.AperFunction,Plated,PTH,ComponentDrill
T2C0.500
; #@! TA.AperFunction,Plated,PTH,ComponentDrill
T3C0.550
; #@! TA.AperFunction,Plated,PTH,ComponentDrill
T4C0.750
; #@! TA.AperFunction,Plated,PTH,ComponentDrill
T5C1.000
%
G90
G05
T1
X74.0Y-112.5
X74.0Y-113.5
X74.0Y-114.5
X74.0Y-117.75
X74.0Y-118.75
X74.0Y-119.75
X74.5Y-100.5
X75.5Y-100.5
X76.0Y-78.0
X76.0Y-79.0
X76.0Y-80.0
X76.0Y-82.5
X76.0Y-83.5
X76.0Y-84.5
X76.5Y-100.5
X76.962Y-115.962
X77.5Y-111.0
X78.5Y-111.0
X79.3Y-122.3
X79.5Y-111.0
X80.6Y-96.4
X80.6Y-99.0
X81.5Y-78.0
X81.5Y-79.0
X81.5Y-80.0
X81.5Y-82.5
X81.5Y-83.5
X81.5Y-84.5
X85.0Y-90.4
X85.09Y-119.0
X85.7Y-95.2
X87.5Y-122.5
X87.6Y-101.2
X88.5Y-99.5
X90.1Y-101.0
X90.6Y-86.1
X90.9Y-93.8
X91.6Y-108.0
X91.7Y-94.4
X92.3Y-98.4
X92.3Y-102.7
X92.4Y-109.5
X93.36Y-109.51
X93.4Y-122.5
X94.3Y-109.5
X94.7Y-104.2
X95.6Y-109.5
X96.6Y-105.8
X97.7Y-104.3
X98.0Y-99.5
X98.5Y-122.0
X99.5Y-98.4
X99.751Y-117.2
X100.0Y-77.5
X100.0Y-78.5
X100.0Y-79.5
X100.0Y-83.0
X100.0Y-84.0
X100.0Y-85.0
X100.4Y-94.0
X100.4Y-101.6
X100.5Y-118.1
X100.54Y-91.36
X103.5Y-122.1
X104.0Y-77.5
X104.0Y-78.5
X104.0Y-79.5
X104.0Y-83.0
X104.0Y-84.0
X104.0Y-85.0
X105.0Y-108.2
X105.0Y-109.2
X105.0Y-110.2
X106.5Y-108.2
X106.5Y-109.2
X106.5Y-110.2
T4
X93.36Y-116.73
X93.36Y-118.0
X93.36Y-119.27
T5
X75.25Y-87.5
X75.25Y-90.04
X75.25Y-92.58
X75.25Y-95.12
T2
X106.175Y-113.0G85X106.825Y-113.0
G05
X106.175Y-120.0G85X106.825Y-120.0
G05
T3
X103.8Y-114.15G85X103.8Y-113.85
G05
X103.8Y-119.15G85X103.8Y-118.85
G05
T0
M30
