G04 #@! TF.GenerationSoftware,KiCad,Pcbnew,(6.0.9)*
G04 #@! TF.CreationDate,2023-02-13T11:25:36-05:00*
G04 #@! TF.ProjectId,1W Experiments,31572045-7870-4657-9269-6d656e74732e,rev?*
G04 #@! TF.SameCoordinates,Original*
G04 #@! TF.FileFunction,Copper,L1,Top*
G04 #@! TF.FilePolarity,Positive*
%FSLAX46Y46*%
G04 Gerber Fmt 4.6, Leading zero omitted, Abs format (unit mm)*
G04 Created by KiCad (PCBNEW (6.0.9)) date 2023-02-13 11:25:36*
%MOMM*%
%LPD*%
G01*
G04 APERTURE LIST*
G04 Aperture macros list*
%AMRoundRect*
0 Rectangle with rounded corners*
0 $1 Rounding radius*
0 $2 $3 $4 $5 $6 $7 $8 $9 X,Y pos of 4 corners*
0 Add a 4 corners polygon primitive as box body*
4,1,4,$2,$3,$4,$5,$6,$7,$8,$9,$2,$3,0*
0 Add four circle primitives for the rounded corners*
1,1,$1+$1,$2,$3*
1,1,$1+$1,$4,$5*
1,1,$1+$1,$6,$7*
1,1,$1+$1,$8,$9*
0 Add four rect primitives between the rounded corners*
20,1,$1+$1,$2,$3,$4,$5,0*
20,1,$1+$1,$4,$5,$6,$7,0*
20,1,$1+$1,$6,$7,$8,$9,0*
20,1,$1+$1,$8,$9,$2,$3,0*%
G04 Aperture macros list end*
G04 #@! TA.AperFunction,SMDPad,CuDef*
%ADD10RoundRect,0.250000X0.475000X-0.337500X0.475000X0.337500X-0.475000X0.337500X-0.475000X-0.337500X0*%
G04 #@! TD*
G04 #@! TA.AperFunction,SMDPad,CuDef*
%ADD11RoundRect,0.250000X-0.475000X0.337500X-0.475000X-0.337500X0.475000X-0.337500X0.475000X0.337500X0*%
G04 #@! TD*
G04 #@! TA.AperFunction,SMDPad,CuDef*
%ADD12R,1.350000X0.400000*%
G04 #@! TD*
G04 #@! TA.AperFunction,ComponentPad*
%ADD13O,1.550000X0.890000*%
G04 #@! TD*
G04 #@! TA.AperFunction,SMDPad,CuDef*
%ADD14R,1.550000X1.500000*%
G04 #@! TD*
G04 #@! TA.AperFunction,ComponentPad*
%ADD15O,0.950000X1.250000*%
G04 #@! TD*
G04 #@! TA.AperFunction,SMDPad,CuDef*
%ADD16R,1.550000X1.200000*%
G04 #@! TD*
G04 #@! TA.AperFunction,SMDPad,CuDef*
%ADD17RoundRect,0.237500X-0.237500X0.300000X-0.237500X-0.300000X0.237500X-0.300000X0.237500X0.300000X0*%
G04 #@! TD*
G04 #@! TA.AperFunction,SMDPad,CuDef*
%ADD18RoundRect,0.237500X-0.237500X0.250000X-0.237500X-0.250000X0.237500X-0.250000X0.237500X0.250000X0*%
G04 #@! TD*
G04 #@! TA.AperFunction,SMDPad,CuDef*
%ADD19R,4.000000X4.000000*%
G04 #@! TD*
G04 #@! TA.AperFunction,SMDPad,CuDef*
%ADD20RoundRect,0.237500X0.237500X-0.300000X0.237500X0.300000X-0.237500X0.300000X-0.237500X-0.300000X0*%
G04 #@! TD*
G04 #@! TA.AperFunction,ComponentPad*
%ADD21R,1.500000X1.050000*%
G04 #@! TD*
G04 #@! TA.AperFunction,ComponentPad*
%ADD22O,1.500000X1.050000*%
G04 #@! TD*
G04 #@! TA.AperFunction,SMDPad,CuDef*
%ADD23RoundRect,0.237500X0.237500X-0.287500X0.237500X0.287500X-0.237500X0.287500X-0.237500X-0.287500X0*%
G04 #@! TD*
G04 #@! TA.AperFunction,SMDPad,CuDef*
%ADD24RoundRect,0.237500X0.250000X0.237500X-0.250000X0.237500X-0.250000X-0.237500X0.250000X-0.237500X0*%
G04 #@! TD*
G04 #@! TA.AperFunction,SMDPad,CuDef*
%ADD25RoundRect,0.237500X-0.237500X0.287500X-0.237500X-0.287500X0.237500X-0.287500X0.237500X0.287500X0*%
G04 #@! TD*
G04 #@! TA.AperFunction,SMDPad,CuDef*
%ADD26R,1.000000X1.000000*%
G04 #@! TD*
G04 #@! TA.AperFunction,ComponentPad*
%ADD27R,1.700000X1.700000*%
G04 #@! TD*
G04 #@! TA.AperFunction,ComponentPad*
%ADD28O,1.700000X1.700000*%
G04 #@! TD*
G04 #@! TA.AperFunction,SMDPad,CuDef*
%ADD29R,2.000000X0.650000*%
G04 #@! TD*
G04 #@! TA.AperFunction,SMDPad,CuDef*
%ADD30RoundRect,0.250001X0.462499X0.849999X-0.462499X0.849999X-0.462499X-0.849999X0.462499X-0.849999X0*%
G04 #@! TD*
G04 #@! TA.AperFunction,SMDPad,CuDef*
%ADD31R,2.080000X1.510000*%
G04 #@! TD*
G04 #@! TA.AperFunction,SMDPad,CuDef*
%ADD32RoundRect,0.237500X0.237500X-0.250000X0.237500X0.250000X-0.237500X0.250000X-0.237500X-0.250000X0*%
G04 #@! TD*
G04 #@! TA.AperFunction,ViaPad*
%ADD33C,0.800000*%
G04 #@! TD*
G04 #@! TA.AperFunction,Conductor*
%ADD34C,0.650000*%
G04 #@! TD*
G04 #@! TA.AperFunction,Conductor*
%ADD35C,1.000000*%
G04 #@! TD*
G04 #@! TA.AperFunction,Conductor*
%ADD36C,0.250000*%
G04 #@! TD*
G04 #@! TA.AperFunction,Conductor*
%ADD37C,0.300000*%
G04 #@! TD*
G04 APERTURE END LIST*
D10*
X74500000Y-104037500D03*
X74500000Y-101962500D03*
D11*
X74500000Y-106462500D03*
X74500000Y-108537500D03*
D12*
X103800000Y-117800000D03*
X103800000Y-117150000D03*
X103800000Y-116500000D03*
X103800000Y-115850000D03*
X103800000Y-115200000D03*
D13*
X106500000Y-120000000D03*
D14*
X106500000Y-117500000D03*
X106500000Y-115500000D03*
D15*
X103800000Y-114000000D03*
D13*
X106500000Y-113000000D03*
D15*
X103800000Y-119000000D03*
D16*
X106500000Y-119400000D03*
X106500000Y-113600000D03*
D17*
X76500000Y-106637500D03*
X76500000Y-108362500D03*
D18*
X106000000Y-96487500D03*
X106000000Y-98312500D03*
D19*
X93500000Y-125500000D03*
D20*
X76500000Y-103862500D03*
X76500000Y-102137500D03*
D21*
X93360000Y-119270000D03*
D22*
X93360000Y-118000000D03*
X93360000Y-116730000D03*
D19*
X99500000Y-125500000D03*
D23*
X106000000Y-101575000D03*
X106000000Y-99825000D03*
D17*
X83300000Y-116387500D03*
X83300000Y-118112500D03*
D24*
X96912500Y-122000000D03*
X95087500Y-122000000D03*
D25*
X106000000Y-86125000D03*
X106000000Y-87875000D03*
D19*
X105500000Y-125500000D03*
D26*
X99750000Y-122000000D03*
X102250000Y-122000000D03*
D27*
X75250000Y-87500000D03*
D28*
X75250000Y-90040000D03*
X75250000Y-92580000D03*
X75250000Y-95120000D03*
D19*
X81500000Y-125500000D03*
D11*
X75500000Y-115962500D03*
X75500000Y-118037500D03*
D24*
X82412500Y-121500000D03*
X80587500Y-121500000D03*
D29*
X77790000Y-118050000D03*
X77790000Y-119000000D03*
X77790000Y-119950000D03*
X81210000Y-119950000D03*
X81210000Y-119000000D03*
X81210000Y-118050000D03*
D30*
X80662500Y-115900000D03*
X78337500Y-115900000D03*
D11*
X96500000Y-116962500D03*
X96500000Y-119037500D03*
X89500000Y-117962500D03*
X89500000Y-120037500D03*
D19*
X75500000Y-125500000D03*
D24*
X85112500Y-120000000D03*
X83287500Y-120000000D03*
D31*
X78925000Y-78680000D03*
X78925000Y-81220000D03*
X78925000Y-83760000D03*
X78925000Y-91360000D03*
X78925000Y-93900000D03*
X78925000Y-96440000D03*
X78925000Y-98980000D03*
X78925000Y-101520000D03*
X78925000Y-104060000D03*
X78925000Y-106600000D03*
X78925000Y-109140000D03*
X102075000Y-109140000D03*
X102075000Y-106600000D03*
X102075000Y-104060000D03*
X102075000Y-101520000D03*
X102075000Y-98980000D03*
X102075000Y-96440000D03*
X102075000Y-93900000D03*
X102075000Y-91360000D03*
X102075000Y-83760000D03*
X102075000Y-81220000D03*
X102075000Y-78680000D03*
D19*
X87500000Y-125500000D03*
D32*
X106000000Y-91212500D03*
X106000000Y-89387500D03*
D10*
X75500000Y-122037500D03*
X75500000Y-119962500D03*
D33*
X106500000Y-109200000D03*
X79500000Y-111000000D03*
X74000000Y-114500000D03*
X79300000Y-122300000D03*
X100000000Y-78500000D03*
X75500000Y-100500000D03*
X81500000Y-79000000D03*
X74500000Y-100500000D03*
X104000000Y-79500000D03*
X92300000Y-98400000D03*
X85700000Y-95200000D03*
X81500000Y-80000000D03*
X106500000Y-108200000D03*
X76000000Y-79000000D03*
X90600000Y-86100000D03*
X91600000Y-108000000D03*
X77500000Y-111000000D03*
X74000000Y-118750000D03*
X97700000Y-104300000D03*
X100000000Y-85000000D03*
X76500000Y-100500000D03*
X106500000Y-110200000D03*
X76000000Y-83500000D03*
X76000000Y-82500000D03*
X81500000Y-83500000D03*
X105000000Y-108200000D03*
X81500000Y-78000000D03*
X105000000Y-109200000D03*
X100000000Y-79500000D03*
X104000000Y-85000000D03*
X100000000Y-77500000D03*
X105000000Y-110200000D03*
X100000000Y-84000000D03*
X76000000Y-78000000D03*
X100000000Y-83000000D03*
X85000000Y-90400000D03*
X94700000Y-104200000D03*
X90100000Y-101000000D03*
X76000000Y-84500000D03*
X104000000Y-78500000D03*
X74000000Y-117750000D03*
X95600000Y-109500000D03*
X88500000Y-99500000D03*
X96600000Y-105800000D03*
X74000000Y-113500000D03*
X74000000Y-112500000D03*
X81500000Y-82500000D03*
X74000000Y-119750000D03*
X76000000Y-80000000D03*
X104000000Y-84000000D03*
X78500000Y-111000000D03*
X81500000Y-84500000D03*
X104000000Y-83000000D03*
X104000000Y-77500000D03*
X85090000Y-119000000D03*
X76962500Y-115962500D03*
X93360000Y-109510000D03*
X92400000Y-109500000D03*
X94300000Y-109500000D03*
X87600000Y-101200000D03*
X92300000Y-102700000D03*
X100400000Y-101600000D03*
X99500000Y-98400000D03*
X98000000Y-99500000D03*
X100400000Y-94000000D03*
X80600000Y-99000000D03*
X80600000Y-96400000D03*
X100540000Y-91360000D03*
X90900000Y-93800000D03*
X91700000Y-94400000D03*
X103500000Y-122100000D03*
X98500000Y-122000000D03*
X93400000Y-122500000D03*
X87500000Y-122500000D03*
X100500000Y-118100000D03*
X99750500Y-117200000D03*
D34*
X81210000Y-118050000D02*
X83237500Y-118050000D01*
X83237500Y-118050000D02*
X83300000Y-118112500D01*
D35*
X78275000Y-115962500D02*
X78337500Y-115900000D01*
X78337500Y-115900000D02*
X78337500Y-114162500D01*
X81250000Y-113500000D02*
X85750000Y-113500000D01*
X81500000Y-107750000D02*
X80350000Y-106600000D01*
D36*
X85112500Y-119022500D02*
X85112500Y-120000000D01*
D35*
X80125000Y-112375000D02*
X81500000Y-111000000D01*
X93322500Y-117962500D02*
X93360000Y-118000000D01*
D36*
X85090000Y-119000000D02*
X85112500Y-119022500D01*
D35*
X81500000Y-111000000D02*
X81500000Y-107750000D01*
X89500000Y-117962500D02*
X93322500Y-117962500D01*
X76962500Y-115962500D02*
X78275000Y-115962500D01*
X80350000Y-106600000D02*
X78925000Y-106600000D01*
X85750000Y-113500000D02*
X89500000Y-117250000D01*
X75500000Y-115962500D02*
X76962500Y-115962500D01*
X89500000Y-117250000D02*
X89500000Y-117962500D01*
X80125000Y-112375000D02*
X81250000Y-113500000D01*
X78337500Y-114162500D02*
X80125000Y-112375000D01*
X96267500Y-116730000D02*
X96500000Y-116962500D01*
X93360000Y-116730000D02*
X93360000Y-109510000D01*
X93360000Y-116730000D02*
X96267500Y-116730000D01*
X92400000Y-109500000D02*
X94300000Y-109500000D01*
D36*
X83237500Y-119950000D02*
X83287500Y-120000000D01*
X83287500Y-120625000D02*
X83287500Y-120000000D01*
X82412500Y-121500000D02*
X83287500Y-120625000D01*
X81210000Y-119950000D02*
X83237500Y-119950000D01*
D37*
X93600000Y-106600000D02*
X102075000Y-106600000D01*
X88200000Y-101200000D02*
X93600000Y-106600000D01*
X87600000Y-101200000D02*
X88200000Y-101200000D01*
X98700000Y-102700000D02*
X100060000Y-104060000D01*
X100060000Y-104060000D02*
X102075000Y-104060000D01*
X92300000Y-102700000D02*
X98700000Y-102700000D01*
X100400000Y-101600000D02*
X101995000Y-101600000D01*
X101995000Y-101600000D02*
X102075000Y-101520000D01*
X100100000Y-98400000D02*
X100680000Y-98980000D01*
X99500000Y-98400000D02*
X100100000Y-98400000D01*
X100680000Y-98980000D02*
X102075000Y-98980000D01*
X98000000Y-97700000D02*
X99260000Y-96440000D01*
X99260000Y-96440000D02*
X102075000Y-96440000D01*
X98000000Y-99500000D02*
X98000000Y-97700000D01*
X100400000Y-94000000D02*
X100500000Y-93900000D01*
X100500000Y-93900000D02*
X102075000Y-93900000D01*
X80600000Y-99000000D02*
X78945000Y-99000000D01*
X78945000Y-99000000D02*
X78925000Y-98980000D01*
X78965000Y-96400000D02*
X78925000Y-96440000D01*
X80600000Y-96400000D02*
X78965000Y-96400000D01*
X100540000Y-91360000D02*
X102075000Y-91360000D01*
X90900000Y-93800000D02*
X92100000Y-92600000D01*
X104887500Y-90100000D02*
X106000000Y-91212500D01*
X97300000Y-92600000D02*
X99800000Y-90100000D01*
X99800000Y-90100000D02*
X104887500Y-90100000D01*
X92100000Y-92600000D02*
X97300000Y-92600000D01*
X104712500Y-95200000D02*
X104100000Y-95200000D01*
X97400000Y-95200000D02*
X104100000Y-95200000D01*
X96600000Y-94400000D02*
X97400000Y-95200000D01*
X91700000Y-94400000D02*
X96600000Y-94400000D01*
X106000000Y-96487500D02*
X104712500Y-95200000D01*
X103500000Y-122100000D02*
X105500000Y-124100000D01*
X103400000Y-122000000D02*
X103500000Y-122100000D01*
X102250000Y-122000000D02*
X103400000Y-122000000D01*
X105500000Y-124100000D02*
X105500000Y-125500000D01*
X98500000Y-122000000D02*
X96912500Y-122000000D01*
X98500000Y-122600000D02*
X100500000Y-124600000D01*
X98500000Y-122000000D02*
X98500000Y-122600000D01*
X99750000Y-122000000D02*
X98500000Y-122000000D01*
X100500000Y-124600000D02*
X100500000Y-125500000D01*
D36*
X93500000Y-125500000D02*
X93500000Y-122600000D01*
X93500000Y-122600000D02*
X93400000Y-122500000D01*
X87500000Y-125500000D02*
X87500000Y-122500000D01*
D37*
X103800000Y-117150000D02*
X102057107Y-117150000D01*
X102057107Y-117150000D02*
X101107107Y-118100000D01*
X101107107Y-118100000D02*
X100500000Y-118100000D01*
X101300000Y-117200000D02*
X99750500Y-117200000D01*
X103800000Y-116500000D02*
X102000000Y-116500000D01*
X102000000Y-116500000D02*
X101300000Y-117200000D01*
X106000000Y-89387500D02*
X106000000Y-87875000D01*
X106000000Y-98312500D02*
X106000000Y-99825000D01*
G04 #@! TA.AperFunction,Conductor*
G36*
X80192121Y-103270002D02*
G01*
X80238614Y-103323658D01*
X80250000Y-103376000D01*
X80250000Y-107374000D01*
X80229998Y-107442121D01*
X80176342Y-107488614D01*
X80124000Y-107500000D01*
X73626000Y-107500000D01*
X73557879Y-107479998D01*
X73511386Y-107426342D01*
X73500000Y-107374000D01*
X73500000Y-103376000D01*
X73520002Y-103307879D01*
X73573658Y-103261386D01*
X73626000Y-103250000D01*
X80124000Y-103250000D01*
X80192121Y-103270002D01*
G37*
G04 #@! TD.AperFunction*
G04 #@! TA.AperFunction,Conductor*
G36*
X107687621Y-73274502D02*
G01*
X107734114Y-73328158D01*
X107745500Y-73380500D01*
X107745500Y-112754338D01*
X107725498Y-112822459D01*
X107671842Y-112868952D01*
X107601568Y-112879056D01*
X107536988Y-112849562D01*
X107496982Y-112783753D01*
X107491746Y-112761946D01*
X107486490Y-112747813D01*
X107415859Y-112610967D01*
X107407384Y-112598495D01*
X107306154Y-112482453D01*
X107294940Y-112472356D01*
X107168959Y-112383815D01*
X107155655Y-112376682D01*
X107012187Y-112320747D01*
X106997582Y-112316997D01*
X106880161Y-112301538D01*
X106871952Y-112301000D01*
X106645115Y-112301000D01*
X106629876Y-112305475D01*
X106628671Y-112306865D01*
X106627000Y-112314548D01*
X106627000Y-113680885D01*
X106631475Y-113696124D01*
X106632865Y-113697329D01*
X106640548Y-113699000D01*
X106868637Y-113699000D01*
X106876192Y-113698544D01*
X106990420Y-113684721D01*
X107005062Y-113681125D01*
X107149119Y-113626690D01*
X107162480Y-113619705D01*
X107289393Y-113532481D01*
X107300705Y-113522508D01*
X107403146Y-113407531D01*
X107411754Y-113395145D01*
X107483812Y-113259051D01*
X107489216Y-113244974D01*
X107497296Y-113212806D01*
X107533291Y-113151610D01*
X107596656Y-113119589D01*
X107667274Y-113126909D01*
X107722725Y-113171247D01*
X107745500Y-113243501D01*
X107745500Y-119754338D01*
X107725498Y-119822459D01*
X107671842Y-119868952D01*
X107601568Y-119879056D01*
X107536988Y-119849562D01*
X107496982Y-119783753D01*
X107491746Y-119761946D01*
X107486490Y-119747813D01*
X107415859Y-119610967D01*
X107407384Y-119598495D01*
X107306154Y-119482453D01*
X107294940Y-119472356D01*
X107168959Y-119383815D01*
X107155655Y-119376682D01*
X107012187Y-119320747D01*
X106997582Y-119316997D01*
X106880161Y-119301538D01*
X106871952Y-119301000D01*
X106645115Y-119301000D01*
X106629876Y-119305475D01*
X106628671Y-119306865D01*
X106627000Y-119314548D01*
X106627000Y-120680885D01*
X106631475Y-120696124D01*
X106632865Y-120697329D01*
X106640548Y-120699000D01*
X106868637Y-120699000D01*
X106876192Y-120698544D01*
X106990420Y-120684721D01*
X107005062Y-120681125D01*
X107149119Y-120626690D01*
X107162480Y-120619705D01*
X107289393Y-120532481D01*
X107300705Y-120522508D01*
X107403146Y-120407531D01*
X107411754Y-120395145D01*
X107483812Y-120259051D01*
X107489216Y-120244974D01*
X107497296Y-120212806D01*
X107533291Y-120151610D01*
X107596656Y-120119589D01*
X107667274Y-120126909D01*
X107722725Y-120171247D01*
X107745500Y-120243501D01*
X107745500Y-123135815D01*
X107725498Y-123203936D01*
X107671842Y-123250429D01*
X107594919Y-123259394D01*
X107531135Y-123246707D01*
X107525067Y-123245500D01*
X107280508Y-123245500D01*
X105269741Y-123245501D01*
X105201620Y-123225499D01*
X105180646Y-123208596D01*
X104194548Y-122222498D01*
X104160522Y-122160186D01*
X104159133Y-122122069D01*
X104158268Y-122122003D01*
X104158581Y-122117892D01*
X104159162Y-122113807D01*
X104159307Y-122100000D01*
X104140276Y-121942733D01*
X104084280Y-121794546D01*
X104043241Y-121734834D01*
X103998855Y-121670251D01*
X103998854Y-121670249D01*
X103994553Y-121663992D01*
X103977014Y-121648365D01*
X103928284Y-121604949D01*
X103876275Y-121558611D01*
X103868889Y-121554700D01*
X103796966Y-121516619D01*
X103736274Y-121484484D01*
X103582633Y-121445892D01*
X103575034Y-121445852D01*
X103575033Y-121445852D01*
X103509181Y-121445507D01*
X103424221Y-121445062D01*
X103416841Y-121446834D01*
X103416839Y-121446834D01*
X103277563Y-121480271D01*
X103277560Y-121480272D01*
X103270184Y-121482043D01*
X103263439Y-121485524D01*
X103263440Y-121485524D01*
X103179237Y-121528984D01*
X103109529Y-121542453D01*
X103043606Y-121516098D01*
X103002396Y-121458285D01*
X102997872Y-121441613D01*
X102989734Y-121400699D01*
X102979595Y-121385524D01*
X102940377Y-121326832D01*
X102933484Y-121316516D01*
X102849301Y-121260266D01*
X102775067Y-121245500D01*
X102250085Y-121245500D01*
X101724934Y-121245501D01*
X101689182Y-121252612D01*
X101662874Y-121257844D01*
X101662872Y-121257845D01*
X101650699Y-121260266D01*
X101640379Y-121267161D01*
X101640378Y-121267162D01*
X101579985Y-121307516D01*
X101566516Y-121316516D01*
X101510266Y-121400699D01*
X101495500Y-121474933D01*
X101495501Y-122525066D01*
X101510266Y-122599301D01*
X101566516Y-122683484D01*
X101650699Y-122739734D01*
X101724933Y-122754500D01*
X102249915Y-122754500D01*
X102775066Y-122754499D01*
X102815595Y-122746438D01*
X102837126Y-122742156D01*
X102837128Y-122742155D01*
X102849301Y-122739734D01*
X102859621Y-122732839D01*
X102859622Y-122732838D01*
X102923168Y-122690377D01*
X102933484Y-122683484D01*
X102942247Y-122670369D01*
X102947900Y-122665645D01*
X102949154Y-122664391D01*
X102949266Y-122664503D01*
X102996724Y-122624843D01*
X103067167Y-122615996D01*
X103116993Y-122636434D01*
X103118076Y-122637419D01*
X103124751Y-122641043D01*
X103124752Y-122641044D01*
X103148885Y-122654147D01*
X103257293Y-122713008D01*
X103410522Y-122753207D01*
X103468613Y-122754119D01*
X103532852Y-122755129D01*
X103600651Y-122776198D01*
X103619968Y-122792018D01*
X103858356Y-123030406D01*
X103892382Y-123092718D01*
X103887317Y-123163533D01*
X103844770Y-123220369D01*
X103778250Y-123245180D01*
X103769261Y-123245501D01*
X103474934Y-123245501D01*
X103439182Y-123252612D01*
X103412874Y-123257844D01*
X103412872Y-123257845D01*
X103400699Y-123260266D01*
X103390379Y-123267161D01*
X103390378Y-123267162D01*
X103329985Y-123307516D01*
X103316516Y-123316516D01*
X103260266Y-123400699D01*
X103245500Y-123474933D01*
X103245501Y-127525066D01*
X103259395Y-127594919D01*
X103259395Y-127594920D01*
X103253066Y-127665634D01*
X103209511Y-127721701D01*
X103135816Y-127745500D01*
X101864185Y-127745500D01*
X101796064Y-127725498D01*
X101749571Y-127671842D01*
X101740606Y-127594919D01*
X101753293Y-127531135D01*
X101754500Y-127525067D01*
X101754499Y-123474934D01*
X101739734Y-123400699D01*
X101683484Y-123316516D01*
X101599301Y-123260266D01*
X101525067Y-123245500D01*
X99769740Y-123245500D01*
X99701619Y-123225498D01*
X99680645Y-123208595D01*
X99441645Y-122969595D01*
X99407619Y-122907283D01*
X99412684Y-122836468D01*
X99455231Y-122779632D01*
X99521751Y-122754821D01*
X99530740Y-122754500D01*
X100254158Y-122754499D01*
X100275066Y-122754499D01*
X100315595Y-122746438D01*
X100337126Y-122742156D01*
X100337128Y-122742155D01*
X100349301Y-122739734D01*
X100359621Y-122732839D01*
X100359622Y-122732838D01*
X100423168Y-122690377D01*
X100433484Y-122683484D01*
X100489734Y-122599301D01*
X100504500Y-122525067D01*
X100504499Y-121474934D01*
X100489734Y-121400699D01*
X100479595Y-121385524D01*
X100440377Y-121326832D01*
X100433484Y-121316516D01*
X100349301Y-121260266D01*
X100275067Y-121245500D01*
X99750085Y-121245500D01*
X99224934Y-121245501D01*
X99189182Y-121252612D01*
X99162874Y-121257844D01*
X99162872Y-121257845D01*
X99150699Y-121260266D01*
X99140379Y-121267161D01*
X99140378Y-121267162D01*
X99079985Y-121307516D01*
X99066516Y-121316516D01*
X99010266Y-121400699D01*
X99006601Y-121398250D01*
X98977021Y-121434910D01*
X98909644Y-121457289D01*
X98846264Y-121442721D01*
X98736274Y-121384484D01*
X98582633Y-121345892D01*
X98575034Y-121345852D01*
X98575033Y-121345852D01*
X98509181Y-121345507D01*
X98424221Y-121345062D01*
X98416841Y-121346834D01*
X98416839Y-121346834D01*
X98277563Y-121380271D01*
X98277560Y-121380272D01*
X98270184Y-121382043D01*
X98129414Y-121454700D01*
X98010039Y-121558838D01*
X98009198Y-121557874D01*
X97955349Y-121591050D01*
X97922157Y-121595500D01*
X97710961Y-121595500D01*
X97642840Y-121575498D01*
X97601076Y-121530690D01*
X97598493Y-121523801D01*
X97513974Y-121411026D01*
X97401199Y-121326507D01*
X97392798Y-121323357D01*
X97392795Y-121323356D01*
X97314387Y-121293963D01*
X97269236Y-121277036D01*
X97209070Y-121270500D01*
X96615930Y-121270500D01*
X96555764Y-121277036D01*
X96510613Y-121293963D01*
X96432205Y-121323356D01*
X96432202Y-121323357D01*
X96423801Y-121326507D01*
X96311026Y-121411026D01*
X96226507Y-121523801D01*
X96223357Y-121532202D01*
X96223356Y-121532205D01*
X96201296Y-121591050D01*
X96177036Y-121655764D01*
X96170500Y-121715930D01*
X96170500Y-122284070D01*
X96177036Y-122344236D01*
X96179810Y-122351635D01*
X96215287Y-122446269D01*
X96226507Y-122476199D01*
X96311026Y-122588974D01*
X96423801Y-122673493D01*
X96432202Y-122676643D01*
X96432205Y-122676644D01*
X96506546Y-122704513D01*
X96555764Y-122722964D01*
X96615930Y-122729500D01*
X97209070Y-122729500D01*
X97269236Y-122722964D01*
X97318454Y-122704513D01*
X97392795Y-122676644D01*
X97392798Y-122676643D01*
X97401199Y-122673493D01*
X97513974Y-122588974D01*
X97598493Y-122476199D01*
X97601047Y-122469386D01*
X97650698Y-122419846D01*
X97710961Y-122404500D01*
X97923253Y-122404500D01*
X97991374Y-122424502D01*
X98008053Y-122437307D01*
X98054300Y-122479389D01*
X98091222Y-122540029D01*
X98095500Y-122572582D01*
X98095500Y-122664066D01*
X98098565Y-122673498D01*
X98098565Y-122673500D01*
X98102395Y-122685287D01*
X98107011Y-122704513D01*
X98110502Y-122726555D01*
X98115003Y-122735388D01*
X98120633Y-122746438D01*
X98128199Y-122764704D01*
X98135095Y-122785929D01*
X98140925Y-122793953D01*
X98148216Y-122803989D01*
X98158545Y-122820844D01*
X98168674Y-122840723D01*
X98191462Y-122863511D01*
X98191465Y-122863515D01*
X98358356Y-123030406D01*
X98392382Y-123092718D01*
X98387317Y-123163533D01*
X98344770Y-123220369D01*
X98278250Y-123245180D01*
X98269261Y-123245501D01*
X97474934Y-123245501D01*
X97439182Y-123252612D01*
X97412874Y-123257844D01*
X97412872Y-123257845D01*
X97400699Y-123260266D01*
X97390379Y-123267161D01*
X97390378Y-123267162D01*
X97329985Y-123307516D01*
X97316516Y-123316516D01*
X97260266Y-123400699D01*
X97245500Y-123474933D01*
X97245501Y-127525066D01*
X97259395Y-127594919D01*
X97259395Y-127594920D01*
X97253066Y-127665634D01*
X97209511Y-127721701D01*
X97135816Y-127745500D01*
X95864185Y-127745500D01*
X95796064Y-127725498D01*
X95749571Y-127671842D01*
X95740606Y-127594919D01*
X95753293Y-127531135D01*
X95754500Y-127525067D01*
X95754499Y-123474934D01*
X95739734Y-123400699D01*
X95683484Y-123316516D01*
X95599301Y-123260266D01*
X95525067Y-123245500D01*
X94005500Y-123245500D01*
X93937379Y-123225498D01*
X93890886Y-123171842D01*
X93879500Y-123119500D01*
X93879500Y-122994935D01*
X93903176Y-122921411D01*
X93977755Y-122817624D01*
X94036842Y-122670641D01*
X94058440Y-122518880D01*
X94058581Y-122517891D01*
X94058581Y-122517888D01*
X94059162Y-122513807D01*
X94059307Y-122500000D01*
X94056540Y-122477130D01*
X94050171Y-122424502D01*
X94040276Y-122342733D01*
X93984280Y-122194546D01*
X93894553Y-122063992D01*
X93776275Y-121958611D01*
X93768889Y-121954700D01*
X93642988Y-121888039D01*
X93642989Y-121888039D01*
X93636274Y-121884484D01*
X93482633Y-121845892D01*
X93475034Y-121845852D01*
X93475033Y-121845852D01*
X93409181Y-121845507D01*
X93324221Y-121845062D01*
X93316841Y-121846834D01*
X93316839Y-121846834D01*
X93177563Y-121880271D01*
X93177560Y-121880272D01*
X93170184Y-121882043D01*
X93029414Y-121954700D01*
X92910039Y-122058838D01*
X92818950Y-122188444D01*
X92816190Y-122195524D01*
X92780343Y-122287467D01*
X92761406Y-122336037D01*
X92760414Y-122343570D01*
X92760414Y-122343571D01*
X92742008Y-122483384D01*
X92740729Y-122493096D01*
X92744259Y-122525066D01*
X92754298Y-122615996D01*
X92758113Y-122650553D01*
X92760723Y-122657684D01*
X92760723Y-122657686D01*
X92805349Y-122779632D01*
X92812553Y-122799319D01*
X92816789Y-122805622D01*
X92816789Y-122805623D01*
X92827019Y-122820846D01*
X92900908Y-122930805D01*
X92906527Y-122935918D01*
X92906528Y-122935919D01*
X93005864Y-123026307D01*
X93042787Y-123086947D01*
X93041064Y-123157923D01*
X93001242Y-123216700D01*
X92935964Y-123244617D01*
X92921065Y-123245501D01*
X91474934Y-123245501D01*
X91439182Y-123252612D01*
X91412874Y-123257844D01*
X91412872Y-123257845D01*
X91400699Y-123260266D01*
X91390379Y-123267161D01*
X91390378Y-123267162D01*
X91329985Y-123307516D01*
X91316516Y-123316516D01*
X91260266Y-123400699D01*
X91245500Y-123474933D01*
X91245501Y-127525066D01*
X91259395Y-127594919D01*
X91259395Y-127594920D01*
X91253066Y-127665634D01*
X91209511Y-127721701D01*
X91135816Y-127745500D01*
X89864185Y-127745500D01*
X89796064Y-127725498D01*
X89749571Y-127671842D01*
X89740606Y-127594919D01*
X89753293Y-127531135D01*
X89754500Y-127525067D01*
X89754499Y-123474934D01*
X89739734Y-123400699D01*
X89683484Y-123316516D01*
X89599301Y-123260266D01*
X89525067Y-123245500D01*
X88005500Y-123245500D01*
X87937379Y-123225498D01*
X87890886Y-123171842D01*
X87879500Y-123119500D01*
X87879500Y-123094730D01*
X87899502Y-123026609D01*
X87923669Y-122998919D01*
X87979536Y-122951204D01*
X87985314Y-122946269D01*
X88077755Y-122817624D01*
X88136842Y-122670641D01*
X88158440Y-122518880D01*
X88158581Y-122517891D01*
X88158581Y-122517888D01*
X88159162Y-122513807D01*
X88159307Y-122500000D01*
X88156540Y-122477130D01*
X88150171Y-122424502D01*
X88140276Y-122342733D01*
X88084280Y-122194546D01*
X87994553Y-122063992D01*
X87876275Y-121958611D01*
X87868889Y-121954700D01*
X87742988Y-121888039D01*
X87742989Y-121888039D01*
X87736274Y-121884484D01*
X87582633Y-121845892D01*
X87575034Y-121845852D01*
X87575033Y-121845852D01*
X87509181Y-121845507D01*
X87424221Y-121845062D01*
X87416841Y-121846834D01*
X87416839Y-121846834D01*
X87277563Y-121880271D01*
X87277560Y-121880272D01*
X87270184Y-121882043D01*
X87129414Y-121954700D01*
X87010039Y-122058838D01*
X86918950Y-122188444D01*
X86916190Y-122195524D01*
X86880343Y-122287467D01*
X86861406Y-122336037D01*
X86860414Y-122343570D01*
X86860414Y-122343571D01*
X86842008Y-122483384D01*
X86840729Y-122493096D01*
X86844259Y-122525066D01*
X86854298Y-122615996D01*
X86858113Y-122650553D01*
X86860723Y-122657684D01*
X86860723Y-122657686D01*
X86905349Y-122779632D01*
X86912553Y-122799319D01*
X86916789Y-122805622D01*
X86916789Y-122805623D01*
X86927019Y-122820846D01*
X87000908Y-122930805D01*
X87006527Y-122935918D01*
X87006528Y-122935919D01*
X87079299Y-123002135D01*
X87116222Y-123062775D01*
X87120500Y-123095329D01*
X87120500Y-123119501D01*
X87100498Y-123187622D01*
X87046842Y-123234115D01*
X86994500Y-123245501D01*
X85474934Y-123245501D01*
X85439182Y-123252612D01*
X85412874Y-123257844D01*
X85412872Y-123257845D01*
X85400699Y-123260266D01*
X85390379Y-123267161D01*
X85390378Y-123267162D01*
X85329985Y-123307516D01*
X85316516Y-123316516D01*
X85260266Y-123400699D01*
X85245500Y-123474933D01*
X85245501Y-127525066D01*
X85259395Y-127594919D01*
X85259395Y-127594920D01*
X85253066Y-127665634D01*
X85209511Y-127721701D01*
X85135816Y-127745500D01*
X78385500Y-127745500D01*
X78317379Y-127725498D01*
X78270886Y-127671842D01*
X78259500Y-127619500D01*
X78259500Y-121885500D01*
X78279502Y-121817379D01*
X78333158Y-121770886D01*
X78385500Y-121759500D01*
X78874000Y-121759500D01*
X78877346Y-121759140D01*
X78877351Y-121759140D01*
X78925795Y-121753932D01*
X78925801Y-121753931D01*
X78929159Y-121753570D01*
X78981501Y-121742184D01*
X79008291Y-121734834D01*
X79015142Y-121730933D01*
X79015144Y-121730932D01*
X79090899Y-121687794D01*
X79096278Y-121684731D01*
X79120212Y-121663992D01*
X79147811Y-121640078D01*
X79147816Y-121640073D01*
X79149934Y-121638238D01*
X79182056Y-121604949D01*
X79228987Y-121515230D01*
X79236971Y-121488039D01*
X79247720Y-121451432D01*
X79247721Y-121451428D01*
X79248989Y-121447109D01*
X79253145Y-121418206D01*
X79258861Y-121378448D01*
X79258861Y-121378441D01*
X79259500Y-121374000D01*
X79259500Y-119885500D01*
X79279502Y-119817379D01*
X79333158Y-119770886D01*
X79385500Y-119759500D01*
X79829500Y-119759500D01*
X79897621Y-119779502D01*
X79944114Y-119833158D01*
X79955500Y-119885500D01*
X79955501Y-120119589D01*
X79955501Y-120300066D01*
X79970266Y-120374301D01*
X79977161Y-120384621D01*
X79977162Y-120384622D01*
X79988443Y-120401505D01*
X80026516Y-120458484D01*
X80110699Y-120514734D01*
X80184933Y-120529500D01*
X80243993Y-120529500D01*
X82026485Y-120529499D01*
X82094606Y-120549501D01*
X82141099Y-120603157D01*
X82151203Y-120673431D01*
X82121709Y-120738011D01*
X82057703Y-120776825D01*
X82055764Y-120777036D01*
X82048375Y-120779806D01*
X82048371Y-120779807D01*
X81932205Y-120823356D01*
X81932202Y-120823357D01*
X81923801Y-120826507D01*
X81811026Y-120911026D01*
X81726507Y-121023801D01*
X81677036Y-121155764D01*
X81670500Y-121215930D01*
X81670500Y-121784070D01*
X81677036Y-121844236D01*
X81679810Y-121851635D01*
X81721808Y-121963664D01*
X81726507Y-121976199D01*
X81811026Y-122088974D01*
X81923801Y-122173493D01*
X81932202Y-122176643D01*
X81932205Y-122176644D01*
X82010613Y-122206037D01*
X82055764Y-122222964D01*
X82115930Y-122229500D01*
X82709070Y-122229500D01*
X82769236Y-122222964D01*
X82814387Y-122206037D01*
X82892795Y-122176644D01*
X82892798Y-122176643D01*
X82901199Y-122173493D01*
X83013974Y-122088974D01*
X83098493Y-121976199D01*
X83103193Y-121963664D01*
X83145190Y-121851635D01*
X83147964Y-121844236D01*
X83154500Y-121784070D01*
X83154500Y-121346884D01*
X83174502Y-121278763D01*
X83191405Y-121257789D01*
X83517716Y-120931478D01*
X83536464Y-120916336D01*
X83537689Y-120915221D01*
X83546440Y-120909571D01*
X83552887Y-120901393D01*
X83552889Y-120901391D01*
X83567229Y-120883200D01*
X83571175Y-120878759D01*
X83571102Y-120878697D01*
X83574461Y-120874733D01*
X83578138Y-120871056D01*
X83589392Y-120855308D01*
X83592898Y-120850638D01*
X83624656Y-120810353D01*
X83627688Y-120801719D01*
X83633014Y-120794266D01*
X83637692Y-120778623D01*
X83676372Y-120719091D01*
X83714180Y-120696743D01*
X83715832Y-120696124D01*
X83724448Y-120692894D01*
X83767793Y-120676645D01*
X83767797Y-120676643D01*
X83776199Y-120673493D01*
X83888974Y-120588974D01*
X83973493Y-120476199D01*
X83979701Y-120459641D01*
X84020190Y-120351635D01*
X84022964Y-120344236D01*
X84029500Y-120284070D01*
X84370500Y-120284070D01*
X84377036Y-120344236D01*
X84379810Y-120351635D01*
X84420300Y-120459641D01*
X84426507Y-120476199D01*
X84511026Y-120588974D01*
X84623801Y-120673493D01*
X84632202Y-120676643D01*
X84632205Y-120676644D01*
X84685820Y-120696743D01*
X84755764Y-120722964D01*
X84815930Y-120729500D01*
X85409070Y-120729500D01*
X85469236Y-120722964D01*
X85539180Y-120696743D01*
X85592795Y-120676644D01*
X85592798Y-120676643D01*
X85601199Y-120673493D01*
X85713974Y-120588974D01*
X85798493Y-120476199D01*
X85804701Y-120459641D01*
X85845190Y-120351635D01*
X85847964Y-120344236D01*
X85854500Y-120284070D01*
X85854500Y-120140431D01*
X105484816Y-120140431D01*
X105508254Y-120238052D01*
X105513513Y-120252193D01*
X105584141Y-120389033D01*
X105592616Y-120401505D01*
X105693846Y-120517547D01*
X105705060Y-120527644D01*
X105831041Y-120616185D01*
X105844345Y-120623318D01*
X105987813Y-120679253D01*
X106002418Y-120683003D01*
X106119839Y-120698462D01*
X106128048Y-120699000D01*
X106354885Y-120699000D01*
X106370124Y-120694525D01*
X106371329Y-120693135D01*
X106373000Y-120685452D01*
X106373000Y-120145115D01*
X106368525Y-120129876D01*
X106367135Y-120128671D01*
X106359452Y-120127000D01*
X105499707Y-120127000D01*
X105486176Y-120130973D01*
X105484816Y-120140431D01*
X85854500Y-120140431D01*
X85854500Y-119813828D01*
X92356001Y-119813828D01*
X92357209Y-119826088D01*
X92368315Y-119881931D01*
X92377633Y-119904427D01*
X92419983Y-119967808D01*
X92437192Y-119985017D01*
X92500575Y-120027368D01*
X92523066Y-120036684D01*
X92578915Y-120047793D01*
X92591170Y-120049000D01*
X93214885Y-120049000D01*
X93230124Y-120044525D01*
X93231329Y-120043135D01*
X93233000Y-120035452D01*
X93233000Y-120030884D01*
X93487000Y-120030884D01*
X93491475Y-120046123D01*
X93492865Y-120047328D01*
X93500548Y-120048999D01*
X94128828Y-120048999D01*
X94141088Y-120047791D01*
X94196931Y-120036685D01*
X94219427Y-120027367D01*
X94282808Y-119985017D01*
X94300017Y-119967808D01*
X94342368Y-119904425D01*
X94351684Y-119881934D01*
X94362793Y-119826085D01*
X94364000Y-119813830D01*
X94364000Y-119415115D01*
X94359525Y-119399876D01*
X94358135Y-119398671D01*
X94350452Y-119397000D01*
X93505115Y-119397000D01*
X93489876Y-119401475D01*
X93488671Y-119402865D01*
X93487000Y-119410548D01*
X93487000Y-120030884D01*
X93233000Y-120030884D01*
X93233000Y-119415115D01*
X93228525Y-119399876D01*
X93227135Y-119398671D01*
X93219452Y-119397000D01*
X92374116Y-119397000D01*
X92358877Y-119401475D01*
X92357672Y-119402865D01*
X92356001Y-119410548D01*
X92356001Y-119813828D01*
X85854500Y-119813828D01*
X85854500Y-119715930D01*
X85847964Y-119655764D01*
X85810119Y-119554813D01*
X85801644Y-119532205D01*
X85801643Y-119532202D01*
X85798493Y-119523801D01*
X85713974Y-119411026D01*
X85711232Y-119408971D01*
X85678544Y-119349109D01*
X85684758Y-119275330D01*
X85719500Y-119188906D01*
X103071000Y-119188906D01*
X103071424Y-119196207D01*
X103084875Y-119311575D01*
X103088221Y-119325730D01*
X103141227Y-119471760D01*
X103147737Y-119484759D01*
X103232917Y-119614680D01*
X103242241Y-119625832D01*
X103355023Y-119732671D01*
X103366670Y-119741384D01*
X103501004Y-119819412D01*
X103514341Y-119825211D01*
X103661777Y-119869865D01*
X103670268Y-119867935D01*
X103673000Y-119857020D01*
X103673000Y-119849772D01*
X103927000Y-119849772D01*
X103930806Y-119862734D01*
X103945721Y-119864670D01*
X103999499Y-119855429D01*
X105485564Y-119855429D01*
X105486121Y-119869520D01*
X105494613Y-119873000D01*
X106354885Y-119873000D01*
X106370124Y-119868525D01*
X106371329Y-119867135D01*
X106373000Y-119859452D01*
X106373000Y-119319115D01*
X106368525Y-119303876D01*
X106367135Y-119302671D01*
X106359452Y-119301000D01*
X106131363Y-119301000D01*
X106123808Y-119301456D01*
X106009580Y-119315279D01*
X105994938Y-119318875D01*
X105850881Y-119373310D01*
X105837520Y-119380295D01*
X105710607Y-119467519D01*
X105699295Y-119477492D01*
X105596854Y-119592469D01*
X105588246Y-119604855D01*
X105516189Y-119740947D01*
X105510784Y-119755027D01*
X105485564Y-119855429D01*
X103999499Y-119855429D01*
X104000011Y-119855341D01*
X104013968Y-119851233D01*
X104156911Y-119790410D01*
X104169544Y-119783204D01*
X104294663Y-119691128D01*
X104305305Y-119681204D01*
X104405885Y-119562813D01*
X104413952Y-119550717D01*
X104484601Y-119412358D01*
X104489670Y-119398730D01*
X104527001Y-119246170D01*
X104528683Y-119235116D01*
X104528880Y-119231939D01*
X104529000Y-119228061D01*
X104529000Y-119145115D01*
X104524525Y-119129876D01*
X104523135Y-119128671D01*
X104515452Y-119127000D01*
X103945115Y-119127000D01*
X103929876Y-119131475D01*
X103928671Y-119132865D01*
X103927000Y-119140548D01*
X103927000Y-119849772D01*
X103673000Y-119849772D01*
X103673000Y-119145115D01*
X103668525Y-119129876D01*
X103667135Y-119128671D01*
X103659452Y-119127000D01*
X103089115Y-119127000D01*
X103073876Y-119131475D01*
X103072671Y-119132865D01*
X103071000Y-119140548D01*
X103071000Y-119188906D01*
X85719500Y-119188906D01*
X85724006Y-119177698D01*
X85724008Y-119177691D01*
X85726842Y-119170641D01*
X85749162Y-119013807D01*
X85749307Y-119000000D01*
X85730276Y-118842733D01*
X85674280Y-118694546D01*
X85619441Y-118614754D01*
X85588855Y-118570251D01*
X85588854Y-118570249D01*
X85584553Y-118563992D01*
X85466275Y-118458611D01*
X85458889Y-118454700D01*
X85387389Y-118416843D01*
X85326274Y-118384484D01*
X85172633Y-118345892D01*
X85165034Y-118345852D01*
X85165033Y-118345852D01*
X85099181Y-118345507D01*
X85014221Y-118345062D01*
X85006841Y-118346834D01*
X85006839Y-118346834D01*
X84867563Y-118380271D01*
X84867560Y-118380272D01*
X84860184Y-118382043D01*
X84719414Y-118454700D01*
X84600039Y-118558838D01*
X84508950Y-118688444D01*
X84480178Y-118762241D01*
X84463846Y-118804131D01*
X84451406Y-118836037D01*
X84450414Y-118843570D01*
X84450414Y-118843571D01*
X84442393Y-118904500D01*
X84430729Y-118993096D01*
X84444093Y-119114138D01*
X84446962Y-119140124D01*
X84448113Y-119150553D01*
X84450723Y-119157684D01*
X84450723Y-119157686D01*
X84494147Y-119276348D01*
X84502553Y-119299319D01*
X84505076Y-119303074D01*
X84517938Y-119371561D01*
X84493394Y-119434552D01*
X84431890Y-119516618D01*
X84431889Y-119516619D01*
X84426507Y-119523801D01*
X84423357Y-119532202D01*
X84423356Y-119532205D01*
X84414881Y-119554813D01*
X84377036Y-119655764D01*
X84370500Y-119715930D01*
X84370500Y-120284070D01*
X84029500Y-120284070D01*
X84029500Y-119715930D01*
X84022964Y-119655764D01*
X83985119Y-119554813D01*
X83976644Y-119532205D01*
X83976643Y-119532202D01*
X83973493Y-119523801D01*
X83888974Y-119411026D01*
X83776199Y-119326507D01*
X83767798Y-119323357D01*
X83767795Y-119323356D01*
X83684643Y-119292184D01*
X83644236Y-119277036D01*
X83584070Y-119270500D01*
X82990930Y-119270500D01*
X82930764Y-119277036D01*
X82890357Y-119292184D01*
X82807205Y-119323356D01*
X82807202Y-119323357D01*
X82798801Y-119326507D01*
X82686026Y-119411026D01*
X82680645Y-119418206D01*
X82679595Y-119419256D01*
X82617283Y-119453282D01*
X82546468Y-119448217D01*
X82489632Y-119405670D01*
X82464821Y-119339150D01*
X82464500Y-119330161D01*
X82464500Y-119124885D01*
X82464499Y-118813251D01*
X82484501Y-118745131D01*
X82538156Y-118698638D01*
X82608430Y-118688534D01*
X82673011Y-118718027D01*
X82691326Y-118737688D01*
X82711026Y-118763974D01*
X82823801Y-118848493D01*
X82832202Y-118851643D01*
X82832205Y-118851644D01*
X82889173Y-118873000D01*
X82955764Y-118897964D01*
X83015930Y-118904500D01*
X83584070Y-118904500D01*
X83644236Y-118897964D01*
X83710827Y-118873000D01*
X83767795Y-118851644D01*
X83767798Y-118851643D01*
X83776199Y-118848493D01*
X83888974Y-118763974D01*
X83973493Y-118651199D01*
X83997785Y-118586402D01*
X84018627Y-118530805D01*
X84022964Y-118519236D01*
X84029500Y-118459070D01*
X84029500Y-117765930D01*
X84022964Y-117705764D01*
X84020192Y-117698369D01*
X84020190Y-117698362D01*
X83989833Y-117617386D01*
X83984650Y-117546579D01*
X84018571Y-117484210D01*
X84045460Y-117463669D01*
X84096278Y-117434731D01*
X84134517Y-117401597D01*
X84147811Y-117390078D01*
X84147816Y-117390073D01*
X84149934Y-117388238D01*
X84182056Y-117354949D01*
X84228987Y-117265230D01*
X84233855Y-117248651D01*
X84247720Y-117201432D01*
X84247721Y-117201428D01*
X84248989Y-117197109D01*
X84249769Y-117191689D01*
X84258861Y-117128448D01*
X84258861Y-117128441D01*
X84259500Y-117124000D01*
X84259500Y-115626000D01*
X84254626Y-115580661D01*
X84253932Y-115574205D01*
X84253931Y-115574199D01*
X84253570Y-115570841D01*
X84251837Y-115562872D01*
X84242541Y-115520141D01*
X84242184Y-115518499D01*
X84241376Y-115515552D01*
X84236920Y-115499312D01*
X84236920Y-115499311D01*
X84234834Y-115491709D01*
X84226363Y-115476832D01*
X84187794Y-115409101D01*
X84184731Y-115403722D01*
X84138238Y-115350066D01*
X84104949Y-115317944D01*
X84015230Y-115271013D01*
X83993376Y-115264596D01*
X83951432Y-115252280D01*
X83951428Y-115252279D01*
X83947109Y-115251011D01*
X83942661Y-115250371D01*
X83942654Y-115250370D01*
X83878448Y-115241139D01*
X83878441Y-115241139D01*
X83874000Y-115240500D01*
X82135500Y-115240500D01*
X82067379Y-115220498D01*
X82020886Y-115166842D01*
X82009500Y-115114500D01*
X82009500Y-114626000D01*
X82003570Y-114570841D01*
X81992184Y-114518499D01*
X81984834Y-114491709D01*
X81957010Y-114442847D01*
X81940684Y-114373756D01*
X81964303Y-114306803D01*
X82020370Y-114263249D01*
X82066503Y-114254500D01*
X85385285Y-114254500D01*
X85453406Y-114274502D01*
X85474380Y-114291405D01*
X88516553Y-117333577D01*
X88550579Y-117395889D01*
X88545440Y-117466901D01*
X88527202Y-117515552D01*
X88526349Y-117523402D01*
X88526349Y-117523403D01*
X88524002Y-117545011D01*
X88520500Y-117577244D01*
X88520500Y-118347756D01*
X88520869Y-118351152D01*
X88520869Y-118351153D01*
X88522917Y-118370000D01*
X88527202Y-118409448D01*
X88529974Y-118416841D01*
X88529974Y-118416843D01*
X88537092Y-118435829D01*
X88577929Y-118544764D01*
X88583309Y-118551943D01*
X88583311Y-118551946D01*
X88630383Y-118614754D01*
X88664596Y-118660404D01*
X88671776Y-118665785D01*
X88773054Y-118741689D01*
X88773057Y-118741691D01*
X88780236Y-118747071D01*
X88869954Y-118780704D01*
X88908157Y-118795026D01*
X88908159Y-118795026D01*
X88915552Y-118797798D01*
X88923402Y-118798651D01*
X88923403Y-118798651D01*
X88970736Y-118803793D01*
X88977244Y-118804500D01*
X90022756Y-118804500D01*
X90029264Y-118803793D01*
X90076597Y-118798651D01*
X90076598Y-118798651D01*
X90084448Y-118797798D01*
X90091841Y-118795026D01*
X90091843Y-118795026D01*
X90211357Y-118750223D01*
X90211361Y-118750221D01*
X90219764Y-118747071D01*
X90226946Y-118741688D01*
X90234823Y-118737376D01*
X90235556Y-118738716D01*
X90292802Y-118717326D01*
X90301864Y-118717000D01*
X92230000Y-118717000D01*
X92298121Y-118737002D01*
X92344614Y-118790658D01*
X92356000Y-118843000D01*
X92356000Y-119124885D01*
X92360475Y-119140124D01*
X92361865Y-119141329D01*
X92369548Y-119143000D01*
X94345884Y-119143000D01*
X94361123Y-119138525D01*
X94362328Y-119137135D01*
X94363999Y-119129452D01*
X94363999Y-118726172D01*
X94362791Y-118713912D01*
X94351685Y-118658069D01*
X94342367Y-118635573D01*
X94300017Y-118572192D01*
X94276652Y-118548827D01*
X94242626Y-118486515D01*
X94247691Y-118415700D01*
X94259358Y-118392224D01*
X94290043Y-118343872D01*
X94313615Y-118277674D01*
X94346344Y-118185761D01*
X94346345Y-118185756D01*
X94348706Y-118179126D01*
X94358065Y-118100646D01*
X94368579Y-118012469D01*
X94369413Y-118005476D01*
X94351133Y-117831555D01*
X94339641Y-117797798D01*
X94297045Y-117672672D01*
X94297044Y-117672669D01*
X94294775Y-117666005D01*
X94292831Y-117662846D01*
X94282128Y-117593995D01*
X94310881Y-117529081D01*
X94370165Y-117490017D01*
X94407042Y-117484500D01*
X95471722Y-117484500D01*
X95539843Y-117504502D01*
X95577599Y-117545011D01*
X95577929Y-117544764D01*
X95664596Y-117660404D01*
X95680965Y-117672672D01*
X95773054Y-117741689D01*
X95773057Y-117741691D01*
X95780236Y-117747071D01*
X95839658Y-117769347D01*
X95908157Y-117795026D01*
X95908159Y-117795026D01*
X95915552Y-117797798D01*
X95923402Y-117798651D01*
X95923403Y-117798651D01*
X95973847Y-117804131D01*
X95977244Y-117804500D01*
X97022756Y-117804500D01*
X97026153Y-117804131D01*
X97076597Y-117798651D01*
X97076598Y-117798651D01*
X97084448Y-117797798D01*
X97091841Y-117795026D01*
X97091843Y-117795026D01*
X97160342Y-117769347D01*
X97219764Y-117747071D01*
X97226943Y-117741691D01*
X97226946Y-117741689D01*
X97319035Y-117672672D01*
X97335404Y-117660404D01*
X97359571Y-117628158D01*
X97416689Y-117551946D01*
X97416691Y-117551943D01*
X97422071Y-117544764D01*
X97472798Y-117409448D01*
X97479500Y-117347756D01*
X97479500Y-117193096D01*
X99091229Y-117193096D01*
X99097363Y-117248651D01*
X99106739Y-117333577D01*
X99108613Y-117350553D01*
X99111223Y-117357684D01*
X99111223Y-117357686D01*
X99154154Y-117475000D01*
X99163053Y-117499319D01*
X99167289Y-117505622D01*
X99167289Y-117505623D01*
X99226673Y-117593995D01*
X99251408Y-117630805D01*
X99257027Y-117635918D01*
X99257028Y-117635919D01*
X99333787Y-117705764D01*
X99368576Y-117737419D01*
X99507793Y-117813008D01*
X99661022Y-117853207D01*
X99718917Y-117854116D01*
X99730473Y-117854298D01*
X99798271Y-117875367D01*
X99843916Y-117929746D01*
X99853416Y-117996728D01*
X99840729Y-118093096D01*
X99842554Y-118109622D01*
X99857186Y-118242156D01*
X99858113Y-118250553D01*
X99860723Y-118257684D01*
X99860723Y-118257686D01*
X99907505Y-118385524D01*
X99912553Y-118399319D01*
X99916789Y-118405622D01*
X99916789Y-118405623D01*
X99985994Y-118508610D01*
X100000908Y-118530805D01*
X100006527Y-118535918D01*
X100006528Y-118535919D01*
X100093167Y-118614754D01*
X100118076Y-118637419D01*
X100257293Y-118713008D01*
X100410522Y-118753207D01*
X100494477Y-118754526D01*
X100561319Y-118755576D01*
X100561322Y-118755576D01*
X100568916Y-118755695D01*
X100723332Y-118720329D01*
X100831782Y-118665785D01*
X100858072Y-118652563D01*
X100858075Y-118652561D01*
X100864855Y-118649151D01*
X100870626Y-118644222D01*
X100870629Y-118644220D01*
X100979537Y-118551203D01*
X100985314Y-118546269D01*
X100986855Y-118544125D01*
X101045875Y-118508610D01*
X101077793Y-118504500D01*
X101171173Y-118504500D01*
X101180605Y-118501435D01*
X101180607Y-118501435D01*
X101192394Y-118497605D01*
X101211620Y-118492989D01*
X101223869Y-118491049D01*
X101233662Y-118489498D01*
X101253546Y-118479366D01*
X101271812Y-118471801D01*
X101283603Y-118467970D01*
X101293036Y-118464905D01*
X101311096Y-118451784D01*
X101327953Y-118441454D01*
X101347830Y-118431326D01*
X101370618Y-118408538D01*
X101370622Y-118408535D01*
X102187752Y-117591405D01*
X102250064Y-117557379D01*
X102276847Y-117554500D01*
X102744500Y-117554500D01*
X102812621Y-117574502D01*
X102859114Y-117628158D01*
X102870500Y-117680500D01*
X102870501Y-117851279D01*
X102870501Y-118025066D01*
X102885266Y-118099301D01*
X102941516Y-118183484D01*
X103025699Y-118239734D01*
X103099933Y-118254500D01*
X103099713Y-118255607D01*
X103159848Y-118279887D01*
X103200860Y-118337840D01*
X103204031Y-118408766D01*
X103189125Y-118442637D01*
X103189376Y-118442765D01*
X103187152Y-118447121D01*
X103186496Y-118448611D01*
X103186048Y-118449283D01*
X103115399Y-118587642D01*
X103110330Y-118601270D01*
X103072999Y-118753830D01*
X103071317Y-118764884D01*
X103071120Y-118768061D01*
X103071000Y-118771939D01*
X103071000Y-118854885D01*
X103075475Y-118870124D01*
X103076865Y-118871329D01*
X103084548Y-118873000D01*
X104510885Y-118873000D01*
X104526124Y-118868525D01*
X104527329Y-118867135D01*
X104529000Y-118859452D01*
X104529000Y-118811094D01*
X104528576Y-118803793D01*
X104515125Y-118688425D01*
X104511779Y-118674270D01*
X104458773Y-118528240D01*
X104452263Y-118515241D01*
X104408336Y-118448240D01*
X104387713Y-118380304D01*
X104407093Y-118312004D01*
X104460322Y-118265024D01*
X104498674Y-118254499D01*
X104500066Y-118254499D01*
X104506133Y-118253292D01*
X104506136Y-118253292D01*
X104562126Y-118242156D01*
X104562128Y-118242155D01*
X104574301Y-118239734D01*
X104584621Y-118232839D01*
X104584622Y-118232838D01*
X104648168Y-118190377D01*
X104658484Y-118183484D01*
X104714734Y-118099301D01*
X104729500Y-118025067D01*
X104729499Y-117574934D01*
X104714734Y-117500699D01*
X104718934Y-117499864D01*
X104713843Y-117452676D01*
X104714828Y-117449320D01*
X104714734Y-117449301D01*
X104728293Y-117381135D01*
X104729500Y-117375067D01*
X104729499Y-116924934D01*
X104714734Y-116850699D01*
X104718934Y-116849864D01*
X104713843Y-116802676D01*
X104714828Y-116799320D01*
X104714734Y-116799301D01*
X104728293Y-116731135D01*
X104729500Y-116725067D01*
X104729499Y-116274934D01*
X104714734Y-116200699D01*
X104718934Y-116199864D01*
X104713843Y-116152676D01*
X104714828Y-116149320D01*
X104714734Y-116149301D01*
X104728293Y-116081135D01*
X104729500Y-116075067D01*
X104729499Y-115624934D01*
X104714734Y-115550699D01*
X104693219Y-115518499D01*
X104665377Y-115476832D01*
X104658484Y-115466516D01*
X104574301Y-115410266D01*
X104500067Y-115395500D01*
X103800114Y-115395500D01*
X103099934Y-115395501D01*
X103064182Y-115402612D01*
X103037874Y-115407844D01*
X103037872Y-115407845D01*
X103025699Y-115410266D01*
X103015379Y-115417161D01*
X103015378Y-115417162D01*
X102954985Y-115457516D01*
X102941516Y-115466516D01*
X102885266Y-115550699D01*
X102870500Y-115624933D01*
X102870501Y-115849500D01*
X102870501Y-115969500D01*
X102850499Y-116037620D01*
X102796844Y-116084113D01*
X102744501Y-116095500D01*
X101968166Y-116095500D01*
X101968162Y-116095501D01*
X101935934Y-116095501D01*
X101926497Y-116098567D01*
X101926498Y-116098567D01*
X101914718Y-116102394D01*
X101895493Y-116107010D01*
X101873445Y-116110502D01*
X101853560Y-116120634D01*
X101835296Y-116128199D01*
X101823507Y-116132030D01*
X101823506Y-116132031D01*
X101814071Y-116135096D01*
X101806047Y-116140926D01*
X101806045Y-116140927D01*
X101796023Y-116148209D01*
X101779164Y-116158541D01*
X101759277Y-116168674D01*
X101736485Y-116191466D01*
X101169355Y-116758595D01*
X101107043Y-116792621D01*
X101080260Y-116795500D01*
X100328406Y-116795500D01*
X100260285Y-116775498D01*
X100244587Y-116763577D01*
X100238995Y-116758595D01*
X100126775Y-116658611D01*
X100119389Y-116654700D01*
X99993488Y-116588039D01*
X99993489Y-116588039D01*
X99986774Y-116584484D01*
X99833133Y-116545892D01*
X99825534Y-116545852D01*
X99825533Y-116545852D01*
X99759681Y-116545507D01*
X99674721Y-116545062D01*
X99667341Y-116546834D01*
X99667339Y-116546834D01*
X99528063Y-116580271D01*
X99528060Y-116580272D01*
X99520684Y-116582043D01*
X99379914Y-116654700D01*
X99260539Y-116758838D01*
X99169450Y-116888444D01*
X99166690Y-116895524D01*
X99125198Y-117001946D01*
X99111906Y-117036037D01*
X99110914Y-117043570D01*
X99110914Y-117043571D01*
X99093792Y-117173631D01*
X99091229Y-117193096D01*
X97479500Y-117193096D01*
X97479500Y-116577244D01*
X97476004Y-116545062D01*
X97473651Y-116523403D01*
X97473651Y-116523402D01*
X97472798Y-116515552D01*
X97422071Y-116380236D01*
X97416691Y-116373057D01*
X97416689Y-116373054D01*
X97340785Y-116271776D01*
X97335404Y-116264596D01*
X97293919Y-116233505D01*
X97226946Y-116183311D01*
X97226943Y-116183309D01*
X97219764Y-116177929D01*
X97097327Y-116132030D01*
X97091843Y-116129974D01*
X97091841Y-116129974D01*
X97084448Y-116127202D01*
X97076598Y-116126349D01*
X97076597Y-116126349D01*
X97026153Y-116120869D01*
X97026152Y-116120869D01*
X97022756Y-116120500D01*
X96759324Y-116120500D01*
X96691133Y-116099847D01*
X96688980Y-116098018D01*
X96682459Y-116094688D01*
X96677489Y-116091374D01*
X96672411Y-116088238D01*
X96666667Y-116083693D01*
X96600883Y-116052947D01*
X96596933Y-116051016D01*
X96538807Y-116021336D01*
X96532288Y-116018007D01*
X96525178Y-116016267D01*
X96519558Y-116014177D01*
X96513907Y-116012297D01*
X96507278Y-116009199D01*
X96500114Y-116007709D01*
X96500111Y-116007708D01*
X96460005Y-115999367D01*
X96436186Y-115994413D01*
X96431927Y-115993449D01*
X96361392Y-115976189D01*
X96355795Y-115975842D01*
X96355790Y-115975841D01*
X96350286Y-115975500D01*
X96350288Y-115975466D01*
X96346229Y-115975223D01*
X96342195Y-115974863D01*
X96335027Y-115973372D01*
X96327710Y-115973570D01*
X96258085Y-115975454D01*
X96254677Y-115975500D01*
X94240500Y-115975500D01*
X94172379Y-115955498D01*
X94125886Y-115901842D01*
X94114500Y-115849500D01*
X94114500Y-114188906D01*
X103071000Y-114188906D01*
X103071424Y-114196207D01*
X103084875Y-114311575D01*
X103088221Y-114325730D01*
X103141227Y-114471760D01*
X103147737Y-114484759D01*
X103232917Y-114614680D01*
X103242241Y-114625832D01*
X103355023Y-114732671D01*
X103366670Y-114741384D01*
X103501004Y-114819412D01*
X103514341Y-114825211D01*
X103661777Y-114869865D01*
X103670268Y-114867935D01*
X103673000Y-114857020D01*
X103673000Y-114849772D01*
X103927000Y-114849772D01*
X103930806Y-114862734D01*
X103945721Y-114864670D01*
X104000011Y-114855341D01*
X104013968Y-114851233D01*
X104156911Y-114790410D01*
X104169544Y-114783204D01*
X104294663Y-114691128D01*
X104305305Y-114681204D01*
X104405885Y-114562813D01*
X104413952Y-114550717D01*
X104484601Y-114412358D01*
X104489670Y-114398730D01*
X104527001Y-114246170D01*
X104528683Y-114235116D01*
X104528880Y-114231939D01*
X104529000Y-114228061D01*
X104529000Y-114145115D01*
X104524525Y-114129876D01*
X104523135Y-114128671D01*
X104515452Y-114127000D01*
X103945115Y-114127000D01*
X103929876Y-114131475D01*
X103928671Y-114132865D01*
X103927000Y-114140548D01*
X103927000Y-114849772D01*
X103673000Y-114849772D01*
X103673000Y-114145115D01*
X103668525Y-114129876D01*
X103667135Y-114128671D01*
X103659452Y-114127000D01*
X103089115Y-114127000D01*
X103073876Y-114131475D01*
X103072671Y-114132865D01*
X103071000Y-114140548D01*
X103071000Y-114188906D01*
X94114500Y-114188906D01*
X94114500Y-113854885D01*
X103071000Y-113854885D01*
X103075475Y-113870124D01*
X103076865Y-113871329D01*
X103084548Y-113873000D01*
X103654885Y-113873000D01*
X103670124Y-113868525D01*
X103671329Y-113867135D01*
X103673000Y-113859452D01*
X103673000Y-113854885D01*
X103927000Y-113854885D01*
X103931475Y-113870124D01*
X103932865Y-113871329D01*
X103940548Y-113873000D01*
X104510885Y-113873000D01*
X104526124Y-113868525D01*
X104527329Y-113867135D01*
X104529000Y-113859452D01*
X104529000Y-113811094D01*
X104528576Y-113803793D01*
X104515125Y-113688425D01*
X104511779Y-113674270D01*
X104458773Y-113528240D01*
X104452263Y-113515241D01*
X104367083Y-113385320D01*
X104357759Y-113374168D01*
X104244977Y-113267329D01*
X104233330Y-113258616D01*
X104098996Y-113180588D01*
X104085659Y-113174789D01*
X103972218Y-113140431D01*
X105484816Y-113140431D01*
X105508254Y-113238052D01*
X105513513Y-113252193D01*
X105584141Y-113389033D01*
X105592616Y-113401505D01*
X105693846Y-113517547D01*
X105705060Y-113527644D01*
X105831041Y-113616185D01*
X105844345Y-113623318D01*
X105987813Y-113679253D01*
X106002418Y-113683003D01*
X106119839Y-113698462D01*
X106128048Y-113699000D01*
X106354885Y-113699000D01*
X106370124Y-113694525D01*
X106371329Y-113693135D01*
X106373000Y-113685452D01*
X106373000Y-113145115D01*
X106368525Y-113129876D01*
X106367135Y-113128671D01*
X106359452Y-113127000D01*
X105499707Y-113127000D01*
X105486176Y-113130973D01*
X105484816Y-113140431D01*
X103972218Y-113140431D01*
X103938223Y-113130135D01*
X103929732Y-113132065D01*
X103927000Y-113142980D01*
X103927000Y-113854885D01*
X103673000Y-113854885D01*
X103673000Y-113150228D01*
X103669194Y-113137266D01*
X103654279Y-113135330D01*
X103599989Y-113144659D01*
X103586032Y-113148767D01*
X103443089Y-113209590D01*
X103430456Y-113216796D01*
X103305337Y-113308872D01*
X103294695Y-113318796D01*
X103194115Y-113437187D01*
X103186048Y-113449283D01*
X103115399Y-113587642D01*
X103110330Y-113601270D01*
X103072999Y-113753830D01*
X103071317Y-113764884D01*
X103071120Y-113768061D01*
X103071000Y-113771939D01*
X103071000Y-113854885D01*
X94114500Y-113854885D01*
X94114500Y-112855429D01*
X105485564Y-112855429D01*
X105486121Y-112869520D01*
X105494613Y-112873000D01*
X106354885Y-112873000D01*
X106370124Y-112868525D01*
X106371329Y-112867135D01*
X106373000Y-112859452D01*
X106373000Y-112319115D01*
X106368525Y-112303876D01*
X106367135Y-112302671D01*
X106359452Y-112301000D01*
X106131363Y-112301000D01*
X106123808Y-112301456D01*
X106009580Y-112315279D01*
X105994938Y-112318875D01*
X105850881Y-112373310D01*
X105837520Y-112380295D01*
X105710607Y-112467519D01*
X105699295Y-112477492D01*
X105596854Y-112592469D01*
X105588246Y-112604855D01*
X105516189Y-112740947D01*
X105510784Y-112755027D01*
X105485564Y-112855429D01*
X94114500Y-112855429D01*
X94114500Y-110380500D01*
X94134502Y-110312379D01*
X94188158Y-110265886D01*
X94240500Y-110254500D01*
X94344053Y-110254500D01*
X94435950Y-110243786D01*
X94467482Y-110240110D01*
X94467484Y-110240110D01*
X94474754Y-110239262D01*
X94481631Y-110236766D01*
X94481634Y-110236765D01*
X94633255Y-110181729D01*
X94640134Y-110179232D01*
X94646251Y-110175222D01*
X94646254Y-110175220D01*
X94719431Y-110127242D01*
X94787268Y-110082766D01*
X94908264Y-109955040D01*
X94996632Y-109802904D01*
X95047630Y-109634520D01*
X95058524Y-109458920D01*
X95043724Y-109372785D01*
X95029969Y-109292738D01*
X95029968Y-109292736D01*
X95028729Y-109285523D01*
X94959844Y-109123632D01*
X94855563Y-108981929D01*
X94721480Y-108868018D01*
X94628947Y-108820768D01*
X94571305Y-108791334D01*
X94571300Y-108791332D01*
X94564788Y-108788007D01*
X94557682Y-108786268D01*
X94557679Y-108786267D01*
X94463553Y-108763235D01*
X94393892Y-108746189D01*
X94388290Y-108745841D01*
X94388287Y-108745841D01*
X94384725Y-108745620D01*
X94384716Y-108745620D01*
X94382786Y-108745500D01*
X92355947Y-108745500D01*
X92264050Y-108756214D01*
X92232518Y-108759890D01*
X92232516Y-108759890D01*
X92225246Y-108760738D01*
X92218369Y-108763234D01*
X92218366Y-108763235D01*
X92150121Y-108788007D01*
X92059866Y-108820768D01*
X92053749Y-108824778D01*
X92053746Y-108824780D01*
X91992874Y-108864690D01*
X91912732Y-108917234D01*
X91791736Y-109044960D01*
X91703368Y-109197096D01*
X91652370Y-109365480D01*
X91641476Y-109541080D01*
X91642716Y-109548296D01*
X91642716Y-109548298D01*
X91657532Y-109634520D01*
X91671271Y-109714477D01*
X91740156Y-109876368D01*
X91844437Y-110018071D01*
X91978520Y-110131982D01*
X92022034Y-110154201D01*
X92128695Y-110208666D01*
X92128700Y-110208668D01*
X92135212Y-110211993D01*
X92142318Y-110213732D01*
X92142321Y-110213733D01*
X92223710Y-110233648D01*
X92306108Y-110253811D01*
X92311710Y-110254159D01*
X92311713Y-110254159D01*
X92315275Y-110254380D01*
X92315284Y-110254380D01*
X92317214Y-110254500D01*
X92479500Y-110254500D01*
X92547621Y-110274502D01*
X92594114Y-110328158D01*
X92605500Y-110380500D01*
X92605500Y-116104755D01*
X92585498Y-116172876D01*
X92568283Y-116194161D01*
X92528663Y-116233505D01*
X92528660Y-116233509D01*
X92523662Y-116238472D01*
X92519888Y-116244418D01*
X92519887Y-116244420D01*
X92496595Y-116281123D01*
X92429957Y-116386128D01*
X92427592Y-116392770D01*
X92373656Y-116544239D01*
X92373655Y-116544244D01*
X92371294Y-116550874D01*
X92370461Y-116557862D01*
X92370460Y-116557865D01*
X92367286Y-116584484D01*
X92350587Y-116724524D01*
X92351323Y-116731527D01*
X92351323Y-116731528D01*
X92351938Y-116737376D01*
X92368867Y-116898445D01*
X92371136Y-116905111D01*
X92371137Y-116905114D01*
X92417531Y-117041394D01*
X92420549Y-117112327D01*
X92384739Y-117173631D01*
X92321470Y-117205842D01*
X92298253Y-117208000D01*
X90368709Y-117208000D01*
X90300588Y-117187998D01*
X90254095Y-117134342D01*
X90245430Y-117107550D01*
X90244910Y-117101153D01*
X90242655Y-117094193D01*
X90241482Y-117088321D01*
X90240109Y-117082514D01*
X90239262Y-117075246D01*
X90214476Y-117006963D01*
X90213073Y-117002876D01*
X90190689Y-116933778D01*
X90186890Y-116927517D01*
X90184395Y-116922068D01*
X90181728Y-116916742D01*
X90179232Y-116909866D01*
X90139421Y-116849145D01*
X90137074Y-116845424D01*
X90102332Y-116788170D01*
X90102329Y-116788166D01*
X90099417Y-116783367D01*
X90092051Y-116775027D01*
X90092077Y-116775004D01*
X90089377Y-116771961D01*
X90086782Y-116768857D01*
X90082766Y-116762732D01*
X90026854Y-116709766D01*
X90024413Y-116707389D01*
X86330724Y-113013700D01*
X86318337Y-112999287D01*
X86309904Y-112987828D01*
X86305563Y-112981929D01*
X86265521Y-112947911D01*
X86258005Y-112940981D01*
X86252362Y-112935338D01*
X86230202Y-112917806D01*
X86226816Y-112915030D01*
X86177058Y-112872757D01*
X86177059Y-112872757D01*
X86171480Y-112868018D01*
X86164960Y-112864689D01*
X86159982Y-112861369D01*
X86154909Y-112858236D01*
X86149167Y-112853693D01*
X86083383Y-112822947D01*
X86079433Y-112821016D01*
X86021307Y-112791336D01*
X86014788Y-112788007D01*
X86007678Y-112786267D01*
X86002058Y-112784177D01*
X85996407Y-112782297D01*
X85989778Y-112779199D01*
X85982614Y-112777709D01*
X85982611Y-112777708D01*
X85942505Y-112769367D01*
X85918686Y-112764413D01*
X85914427Y-112763449D01*
X85843892Y-112746189D01*
X85838295Y-112745842D01*
X85838290Y-112745841D01*
X85832786Y-112745500D01*
X85832788Y-112745466D01*
X85828729Y-112745223D01*
X85824695Y-112744863D01*
X85817527Y-112743372D01*
X85810210Y-112743570D01*
X85740585Y-112745454D01*
X85737177Y-112745500D01*
X81614714Y-112745500D01*
X81546593Y-112725498D01*
X81525619Y-112708595D01*
X81281119Y-112464095D01*
X81247093Y-112401783D01*
X81252158Y-112330968D01*
X81281119Y-112285905D01*
X81986301Y-111580723D01*
X82000712Y-111568338D01*
X82018071Y-111555563D01*
X82052089Y-111515521D01*
X82059019Y-111508005D01*
X82064662Y-111502362D01*
X82082194Y-111480202D01*
X82084970Y-111476816D01*
X82127243Y-111427058D01*
X82131982Y-111421480D01*
X82135311Y-111414960D01*
X82138631Y-111409982D01*
X82141764Y-111404909D01*
X82146307Y-111399167D01*
X82177053Y-111333383D01*
X82178984Y-111329433D01*
X82208664Y-111271307D01*
X82211993Y-111264788D01*
X82213733Y-111257678D01*
X82215820Y-111252066D01*
X82217702Y-111246409D01*
X82220801Y-111239778D01*
X82235592Y-111168667D01*
X82236562Y-111164383D01*
X82252476Y-111099346D01*
X82253811Y-111093892D01*
X82254500Y-111082786D01*
X82254534Y-111082788D01*
X82254777Y-111078750D01*
X82255139Y-111074689D01*
X82256629Y-111067527D01*
X82254546Y-110990548D01*
X82254500Y-110987140D01*
X82254500Y-107816765D01*
X82255933Y-107797815D01*
X82258074Y-107783745D01*
X82258074Y-107783741D01*
X82259174Y-107776511D01*
X82257791Y-107759500D01*
X82254915Y-107724152D01*
X82254500Y-107713937D01*
X82254500Y-107705947D01*
X82252865Y-107691924D01*
X82251229Y-107677887D01*
X82250796Y-107673513D01*
X82245504Y-107608451D01*
X82245503Y-107608448D01*
X82244910Y-107601153D01*
X82242655Y-107594191D01*
X82241482Y-107588323D01*
X82240110Y-107582517D01*
X82239262Y-107575246D01*
X82214478Y-107506968D01*
X82213057Y-107502827D01*
X82192946Y-107440745D01*
X82192945Y-107440742D01*
X82190689Y-107433779D01*
X82186891Y-107427520D01*
X82184397Y-107422073D01*
X82181729Y-107416746D01*
X82179232Y-107409866D01*
X82139426Y-107349152D01*
X82137079Y-107345432D01*
X82102332Y-107288170D01*
X82102329Y-107288166D01*
X82099417Y-107283367D01*
X82092051Y-107275027D01*
X82092077Y-107275004D01*
X82089377Y-107271961D01*
X82086782Y-107268857D01*
X82082766Y-107262732D01*
X82026854Y-107209766D01*
X82024413Y-107207389D01*
X80930724Y-106113700D01*
X80918337Y-106099287D01*
X80909904Y-106087828D01*
X80905563Y-106081929D01*
X80865521Y-106047911D01*
X80858005Y-106040981D01*
X80852362Y-106035338D01*
X80830202Y-106017806D01*
X80826816Y-106015030D01*
X80777058Y-105972757D01*
X80777059Y-105972757D01*
X80771480Y-105968018D01*
X80764960Y-105964689D01*
X80759982Y-105961369D01*
X80754909Y-105958236D01*
X80749167Y-105953693D01*
X80683383Y-105922947D01*
X80679433Y-105921016D01*
X80621307Y-105891336D01*
X80614788Y-105888007D01*
X80607678Y-105886267D01*
X80602050Y-105884174D01*
X80596405Y-105882296D01*
X80595331Y-105881794D01*
X80593739Y-105880689D01*
X80590617Y-105879590D01*
X80589835Y-105879225D01*
X80590274Y-105878285D01*
X80537405Y-105841592D01*
X80510224Y-105776004D01*
X80509500Y-105762513D01*
X80509500Y-103376000D01*
X80507317Y-103355695D01*
X80503932Y-103324205D01*
X80503931Y-103324199D01*
X80503570Y-103320841D01*
X80492184Y-103268499D01*
X80484834Y-103241709D01*
X80479482Y-103232309D01*
X80437794Y-103159101D01*
X80434731Y-103153722D01*
X80409410Y-103124500D01*
X80390078Y-103102189D01*
X80390073Y-103102184D01*
X80388238Y-103100066D01*
X80354949Y-103067944D01*
X80265230Y-103021013D01*
X80259294Y-103019270D01*
X80201432Y-103002280D01*
X80201428Y-103002279D01*
X80197109Y-103001011D01*
X80192661Y-103000371D01*
X80192654Y-103000370D01*
X80128448Y-102991139D01*
X80128441Y-102991139D01*
X80124000Y-102990500D01*
X73626000Y-102990500D01*
X73622654Y-102990860D01*
X73622649Y-102990860D01*
X73574205Y-102996068D01*
X73574199Y-102996069D01*
X73570841Y-102996430D01*
X73518499Y-103007816D01*
X73491709Y-103015166D01*
X73442847Y-103042990D01*
X73373756Y-103059316D01*
X73306803Y-103035697D01*
X73263249Y-102979630D01*
X73254500Y-102933497D01*
X73254500Y-100739933D01*
X77630500Y-100739933D01*
X77630501Y-102300066D01*
X77637468Y-102335095D01*
X77641237Y-102354043D01*
X77645266Y-102374301D01*
X77652161Y-102384620D01*
X77652162Y-102384622D01*
X77656740Y-102391473D01*
X77701516Y-102458484D01*
X77785699Y-102514734D01*
X77859933Y-102529500D01*
X78924827Y-102529500D01*
X79990066Y-102529499D01*
X80025818Y-102522388D01*
X80052126Y-102517156D01*
X80052128Y-102517155D01*
X80064301Y-102514734D01*
X80074621Y-102507839D01*
X80074622Y-102507838D01*
X80138168Y-102465377D01*
X80148484Y-102458484D01*
X80204734Y-102374301D01*
X80219500Y-102300067D01*
X80219499Y-101193096D01*
X86940729Y-101193096D01*
X86941563Y-101200646D01*
X86952038Y-101295524D01*
X86958113Y-101350553D01*
X87012553Y-101499319D01*
X87016789Y-101505622D01*
X87016789Y-101505623D01*
X87075569Y-101593096D01*
X87100908Y-101630805D01*
X87218076Y-101737419D01*
X87357293Y-101813008D01*
X87510522Y-101853207D01*
X87594477Y-101854526D01*
X87661319Y-101855576D01*
X87661322Y-101855576D01*
X87668916Y-101855695D01*
X87823332Y-101820329D01*
X87893742Y-101784917D01*
X87958072Y-101752563D01*
X87958075Y-101752561D01*
X87964855Y-101749151D01*
X87970628Y-101744220D01*
X87970633Y-101744217D01*
X87990763Y-101727024D01*
X88055552Y-101697992D01*
X88125752Y-101708596D01*
X88161689Y-101733739D01*
X93336485Y-106908535D01*
X93336489Y-106908538D01*
X93359277Y-106931326D01*
X93377200Y-106940458D01*
X93379160Y-106941457D01*
X93396017Y-106951787D01*
X93414071Y-106964904D01*
X93423501Y-106967968D01*
X93423503Y-106967969D01*
X93435295Y-106971801D01*
X93453557Y-106979365D01*
X93464606Y-106984995D01*
X93464610Y-106984996D01*
X93473445Y-106989498D01*
X93483243Y-106991050D01*
X93483244Y-106991050D01*
X93489363Y-106992019D01*
X93495483Y-106992988D01*
X93514714Y-106997605D01*
X93535934Y-107004500D01*
X100654501Y-107004500D01*
X100722622Y-107024502D01*
X100769115Y-107078158D01*
X100780501Y-107130500D01*
X100780501Y-107380066D01*
X100785211Y-107403746D01*
X100792570Y-107440745D01*
X100795266Y-107454301D01*
X100802161Y-107464620D01*
X100802162Y-107464622D01*
X100827690Y-107502827D01*
X100851516Y-107538484D01*
X100935699Y-107594734D01*
X101009933Y-107609500D01*
X102074827Y-107609500D01*
X103140066Y-107609499D01*
X103182028Y-107601153D01*
X103202126Y-107597156D01*
X103202128Y-107597155D01*
X103214301Y-107594734D01*
X103224621Y-107587839D01*
X103224622Y-107587838D01*
X103288168Y-107545377D01*
X103298484Y-107538484D01*
X103354734Y-107454301D01*
X103369500Y-107380067D01*
X103369499Y-105819934D01*
X103360762Y-105776004D01*
X103357156Y-105757874D01*
X103357155Y-105757872D01*
X103354734Y-105745699D01*
X103298484Y-105661516D01*
X103214301Y-105605266D01*
X103140067Y-105590500D01*
X102075173Y-105590500D01*
X101009934Y-105590501D01*
X100974182Y-105597612D01*
X100947874Y-105602844D01*
X100947872Y-105602845D01*
X100935699Y-105605266D01*
X100925379Y-105612161D01*
X100925378Y-105612162D01*
X100864985Y-105652516D01*
X100851516Y-105661516D01*
X100795266Y-105745699D01*
X100780500Y-105819933D01*
X100780500Y-106069500D01*
X100760498Y-106137621D01*
X100706842Y-106184114D01*
X100654500Y-106195500D01*
X93819740Y-106195500D01*
X93751619Y-106175498D01*
X93730645Y-106158595D01*
X90265146Y-102693096D01*
X91640729Y-102693096D01*
X91658113Y-102850553D01*
X91660723Y-102857684D01*
X91660723Y-102857686D01*
X91709560Y-102991139D01*
X91712553Y-102999319D01*
X91716789Y-103005622D01*
X91716789Y-103005623D01*
X91788112Y-103111762D01*
X91800908Y-103130805D01*
X91806527Y-103135918D01*
X91806528Y-103135919D01*
X91832005Y-103159101D01*
X91918076Y-103237419D01*
X92057293Y-103313008D01*
X92210522Y-103353207D01*
X92294477Y-103354526D01*
X92361319Y-103355576D01*
X92361322Y-103355576D01*
X92368916Y-103355695D01*
X92523332Y-103320329D01*
X92603651Y-103279933D01*
X92658072Y-103252563D01*
X92658075Y-103252561D01*
X92664855Y-103249151D01*
X92670626Y-103244222D01*
X92670629Y-103244220D01*
X92779537Y-103151203D01*
X92785314Y-103146269D01*
X92786855Y-103144125D01*
X92845875Y-103108610D01*
X92877793Y-103104500D01*
X98480260Y-103104500D01*
X98548381Y-103124502D01*
X98569355Y-103141405D01*
X99728674Y-104300723D01*
X99819277Y-104391326D01*
X99839164Y-104401459D01*
X99856022Y-104411791D01*
X99874071Y-104424904D01*
X99883506Y-104427969D01*
X99883507Y-104427970D01*
X99895296Y-104431801D01*
X99913560Y-104439366D01*
X99933445Y-104449498D01*
X99954969Y-104452907D01*
X99955493Y-104452990D01*
X99974718Y-104457606D01*
X99984133Y-104460665D01*
X99995934Y-104464499D01*
X100028162Y-104464499D01*
X100028166Y-104464500D01*
X100654501Y-104464500D01*
X100722622Y-104484502D01*
X100769115Y-104538158D01*
X100780501Y-104590500D01*
X100780501Y-104840066D01*
X100795266Y-104914301D01*
X100851516Y-104998484D01*
X100935699Y-105054734D01*
X101009933Y-105069500D01*
X102074827Y-105069500D01*
X103140066Y-105069499D01*
X103175818Y-105062388D01*
X103202126Y-105057156D01*
X103202128Y-105057155D01*
X103214301Y-105054734D01*
X103224621Y-105047839D01*
X103224622Y-105047838D01*
X103288168Y-105005377D01*
X103298484Y-104998484D01*
X103354734Y-104914301D01*
X103369500Y-104840067D01*
X103369499Y-103279934D01*
X103354734Y-103205699D01*
X103318321Y-103151203D01*
X103305377Y-103131832D01*
X103298484Y-103121516D01*
X103259835Y-103095691D01*
X103224620Y-103072161D01*
X103214301Y-103065266D01*
X103140067Y-103050500D01*
X102075173Y-103050500D01*
X101009934Y-103050501D01*
X100974182Y-103057612D01*
X100947874Y-103062844D01*
X100947872Y-103062845D01*
X100935699Y-103065266D01*
X100925379Y-103072161D01*
X100925378Y-103072162D01*
X100876982Y-103104500D01*
X100851516Y-103121516D01*
X100795266Y-103205699D01*
X100780500Y-103279933D01*
X100780500Y-103529500D01*
X100760498Y-103597621D01*
X100706842Y-103644114D01*
X100654500Y-103655500D01*
X100279739Y-103655500D01*
X100211618Y-103635498D01*
X100190644Y-103618595D01*
X99593063Y-103021013D01*
X98963515Y-102391465D01*
X98963511Y-102391462D01*
X98940723Y-102368674D01*
X98920844Y-102358545D01*
X98903989Y-102348216D01*
X98893953Y-102340925D01*
X98885929Y-102335095D01*
X98864704Y-102328199D01*
X98846438Y-102320633D01*
X98826555Y-102310502D01*
X98804513Y-102307011D01*
X98785287Y-102302395D01*
X98773500Y-102298565D01*
X98773498Y-102298565D01*
X98764066Y-102295500D01*
X92877906Y-102295500D01*
X92809785Y-102275498D01*
X92794087Y-102263577D01*
X92788768Y-102258838D01*
X92676275Y-102158611D01*
X92668889Y-102154700D01*
X92542988Y-102088039D01*
X92542989Y-102088039D01*
X92536274Y-102084484D01*
X92382633Y-102045892D01*
X92375034Y-102045852D01*
X92375033Y-102045852D01*
X92309181Y-102045507D01*
X92224221Y-102045062D01*
X92216841Y-102046834D01*
X92216839Y-102046834D01*
X92077563Y-102080271D01*
X92077560Y-102080272D01*
X92070184Y-102082043D01*
X91929414Y-102154700D01*
X91810039Y-102258838D01*
X91718950Y-102388444D01*
X91716190Y-102395524D01*
X91668768Y-102517155D01*
X91661406Y-102536037D01*
X91640729Y-102693096D01*
X90265146Y-102693096D01*
X89165146Y-101593096D01*
X99740729Y-101593096D01*
X99745457Y-101635919D01*
X99756257Y-101733739D01*
X99758113Y-101750553D01*
X99760723Y-101757684D01*
X99760723Y-101757686D01*
X99796546Y-101855576D01*
X99812553Y-101899319D01*
X99900908Y-102030805D01*
X99906527Y-102035918D01*
X99906528Y-102035919D01*
X99959901Y-102084484D01*
X100018076Y-102137419D01*
X100157293Y-102213008D01*
X100310522Y-102253207D01*
X100394477Y-102254526D01*
X100461319Y-102255576D01*
X100461322Y-102255576D01*
X100468916Y-102255695D01*
X100618380Y-102221463D01*
X100618382Y-102221463D01*
X100623332Y-102220329D01*
X100623521Y-102221154D01*
X100688180Y-102217271D01*
X100750099Y-102252006D01*
X100783570Y-102315496D01*
X100795266Y-102374301D01*
X100802161Y-102384620D01*
X100802162Y-102384622D01*
X100806740Y-102391473D01*
X100851516Y-102458484D01*
X100935699Y-102514734D01*
X101009933Y-102529500D01*
X102074827Y-102529500D01*
X103140066Y-102529499D01*
X103175818Y-102522388D01*
X103202126Y-102517156D01*
X103202128Y-102517155D01*
X103214301Y-102514734D01*
X103224621Y-102507839D01*
X103224622Y-102507838D01*
X103288168Y-102465377D01*
X103298484Y-102458484D01*
X103354734Y-102374301D01*
X103369500Y-102300067D01*
X103369499Y-100739934D01*
X103354734Y-100665699D01*
X103298484Y-100581516D01*
X103214301Y-100525266D01*
X103140067Y-100510500D01*
X102075173Y-100510500D01*
X101009934Y-100510501D01*
X100974182Y-100517612D01*
X100947874Y-100522844D01*
X100947872Y-100522845D01*
X100935699Y-100525266D01*
X100925379Y-100532161D01*
X100925378Y-100532162D01*
X100896222Y-100551644D01*
X100851516Y-100581516D01*
X100795266Y-100665699D01*
X100780500Y-100739933D01*
X100780500Y-100859148D01*
X100760498Y-100927269D01*
X100706842Y-100973762D01*
X100636568Y-100983866D01*
X100623809Y-100981353D01*
X100482633Y-100945892D01*
X100475034Y-100945852D01*
X100475033Y-100945852D01*
X100409181Y-100945507D01*
X100324221Y-100945062D01*
X100316841Y-100946834D01*
X100316839Y-100946834D01*
X100177563Y-100980271D01*
X100177560Y-100980272D01*
X100170184Y-100982043D01*
X100029414Y-101054700D01*
X99910039Y-101158838D01*
X99818950Y-101288444D01*
X99761406Y-101436037D01*
X99740729Y-101593096D01*
X89165146Y-101593096D01*
X88463515Y-100891465D01*
X88463511Y-100891462D01*
X88440723Y-100868674D01*
X88420844Y-100858545D01*
X88403989Y-100848216D01*
X88393953Y-100840925D01*
X88385929Y-100835095D01*
X88364704Y-100828199D01*
X88346438Y-100820633D01*
X88326555Y-100810502D01*
X88304513Y-100807011D01*
X88285287Y-100802395D01*
X88273500Y-100798565D01*
X88273498Y-100798565D01*
X88264066Y-100795500D01*
X88177906Y-100795500D01*
X88109785Y-100775498D01*
X88094087Y-100763577D01*
X88074497Y-100746123D01*
X87976275Y-100658611D01*
X87968889Y-100654700D01*
X87874077Y-100604500D01*
X87836274Y-100584484D01*
X87682633Y-100545892D01*
X87675034Y-100545852D01*
X87675033Y-100545852D01*
X87609181Y-100545507D01*
X87524221Y-100545062D01*
X87516841Y-100546834D01*
X87516839Y-100546834D01*
X87377563Y-100580271D01*
X87377560Y-100580272D01*
X87370184Y-100582043D01*
X87229414Y-100654700D01*
X87110039Y-100758838D01*
X87018950Y-100888444D01*
X87016190Y-100895524D01*
X86981747Y-100983866D01*
X86961406Y-101036037D01*
X86960414Y-101043570D01*
X86960414Y-101043571D01*
X86957939Y-101062375D01*
X86940729Y-101193096D01*
X80219499Y-101193096D01*
X80219499Y-100739934D01*
X80204734Y-100665699D01*
X80148484Y-100581516D01*
X80064301Y-100525266D01*
X79990067Y-100510500D01*
X78925173Y-100510500D01*
X77859934Y-100510501D01*
X77824182Y-100517612D01*
X77797874Y-100522844D01*
X77797872Y-100522845D01*
X77785699Y-100525266D01*
X77775379Y-100532161D01*
X77775378Y-100532162D01*
X77746222Y-100551644D01*
X77701516Y-100581516D01*
X77645266Y-100665699D01*
X77630500Y-100739933D01*
X73254500Y-100739933D01*
X73254500Y-100159070D01*
X105270500Y-100159070D01*
X105277036Y-100219236D01*
X105326507Y-100351199D01*
X105411026Y-100463974D01*
X105523801Y-100548493D01*
X105532202Y-100551643D01*
X105532205Y-100551644D01*
X105593502Y-100574623D01*
X105655764Y-100597964D01*
X105715930Y-100604500D01*
X106284070Y-100604500D01*
X106344236Y-100597964D01*
X106406498Y-100574623D01*
X106467795Y-100551644D01*
X106467798Y-100551643D01*
X106476199Y-100548493D01*
X106588974Y-100463974D01*
X106673493Y-100351199D01*
X106722964Y-100219236D01*
X106729500Y-100159070D01*
X106729500Y-99490930D01*
X106722964Y-99430764D01*
X106704471Y-99381435D01*
X106676644Y-99307205D01*
X106676643Y-99307202D01*
X106673493Y-99298801D01*
X106588974Y-99186026D01*
X106542006Y-99150826D01*
X106499491Y-99093968D01*
X106494465Y-99023150D01*
X106528524Y-98960856D01*
X106542007Y-98949173D01*
X106542037Y-98949151D01*
X106588974Y-98913974D01*
X106673493Y-98801199D01*
X106722964Y-98669236D01*
X106729500Y-98609070D01*
X106729500Y-98015930D01*
X106722964Y-97955764D01*
X106673493Y-97823801D01*
X106588974Y-97711026D01*
X106476199Y-97626507D01*
X106467798Y-97623357D01*
X106467795Y-97623356D01*
X106389387Y-97593963D01*
X106344236Y-97577036D01*
X106284070Y-97570500D01*
X105715930Y-97570500D01*
X105655764Y-97577036D01*
X105610613Y-97593963D01*
X105532205Y-97623356D01*
X105532202Y-97623357D01*
X105523801Y-97626507D01*
X105411026Y-97711026D01*
X105326507Y-97823801D01*
X105277036Y-97955764D01*
X105270500Y-98015930D01*
X105270500Y-98609070D01*
X105277036Y-98669236D01*
X105326507Y-98801199D01*
X105411026Y-98913974D01*
X105457964Y-98949151D01*
X105457993Y-98949173D01*
X105500509Y-99006032D01*
X105505535Y-99076850D01*
X105471476Y-99139144D01*
X105457996Y-99150825D01*
X105411026Y-99186026D01*
X105326507Y-99298801D01*
X105323357Y-99307202D01*
X105323356Y-99307205D01*
X105295529Y-99381435D01*
X105277036Y-99430764D01*
X105270500Y-99490930D01*
X105270500Y-100159070D01*
X73254500Y-100159070D01*
X73254500Y-98199933D01*
X77630500Y-98199933D01*
X77630501Y-99760066D01*
X77645266Y-99834301D01*
X77701516Y-99918484D01*
X77785699Y-99974734D01*
X77859933Y-99989500D01*
X78924827Y-99989500D01*
X79990066Y-99989499D01*
X80025818Y-99982388D01*
X80052126Y-99977156D01*
X80052128Y-99977155D01*
X80064301Y-99974734D01*
X80074621Y-99967839D01*
X80074622Y-99967838D01*
X80138168Y-99925377D01*
X80148484Y-99918484D01*
X80204734Y-99834301D01*
X80219500Y-99760067D01*
X80219500Y-99740178D01*
X80239502Y-99672057D01*
X80293158Y-99625564D01*
X80363432Y-99615460D01*
X80377467Y-99618301D01*
X80510522Y-99653207D01*
X80594477Y-99654526D01*
X80661319Y-99655576D01*
X80661322Y-99655576D01*
X80668916Y-99655695D01*
X80823332Y-99620329D01*
X80893742Y-99584917D01*
X80958072Y-99552563D01*
X80958075Y-99552561D01*
X80964855Y-99549151D01*
X80970626Y-99544222D01*
X80970629Y-99544220D01*
X81079536Y-99451204D01*
X81079536Y-99451203D01*
X81085314Y-99446269D01*
X81177755Y-99317624D01*
X81236842Y-99170641D01*
X81252739Y-99058941D01*
X81258581Y-99017891D01*
X81258581Y-99017888D01*
X81259162Y-99013807D01*
X81259307Y-99000000D01*
X81240276Y-98842733D01*
X81184280Y-98694546D01*
X81094553Y-98563992D01*
X80976275Y-98458611D01*
X80968889Y-98454700D01*
X80930565Y-98434409D01*
X80836274Y-98384484D01*
X80682633Y-98345892D01*
X80675034Y-98345852D01*
X80675033Y-98345852D01*
X80609181Y-98345507D01*
X80524221Y-98345062D01*
X80516841Y-98346834D01*
X80516839Y-98346834D01*
X80454404Y-98361824D01*
X80374912Y-98380908D01*
X80304005Y-98377361D01*
X80246271Y-98336041D01*
X80220041Y-98270068D01*
X80219499Y-98258389D01*
X80219499Y-98199934D01*
X80204734Y-98125699D01*
X80184572Y-98095524D01*
X80155377Y-98051832D01*
X80148484Y-98041516D01*
X80064301Y-97985266D01*
X79990067Y-97970500D01*
X78925173Y-97970500D01*
X77859934Y-97970501D01*
X77824182Y-97977612D01*
X77797874Y-97982844D01*
X77797872Y-97982845D01*
X77785699Y-97985266D01*
X77775379Y-97992161D01*
X77775378Y-97992162D01*
X77734694Y-98019347D01*
X77701516Y-98041516D01*
X77645266Y-98125699D01*
X77630500Y-98199933D01*
X73254500Y-98199933D01*
X73254500Y-95090964D01*
X74141148Y-95090964D01*
X74154424Y-95293522D01*
X74155845Y-95299118D01*
X74155846Y-95299123D01*
X74194714Y-95452161D01*
X74204392Y-95490269D01*
X74206809Y-95495512D01*
X74283736Y-95662379D01*
X74289377Y-95674616D01*
X74292710Y-95679332D01*
X74367024Y-95784484D01*
X74406533Y-95840389D01*
X74551938Y-95982035D01*
X74720720Y-96094812D01*
X74726023Y-96097090D01*
X74726026Y-96097092D01*
X74814707Y-96135192D01*
X74907228Y-96174942D01*
X74977885Y-96190930D01*
X75099579Y-96218467D01*
X75099584Y-96218468D01*
X75105216Y-96219742D01*
X75110987Y-96219969D01*
X75110989Y-96219969D01*
X75170756Y-96222317D01*
X75308053Y-96227712D01*
X75408499Y-96213148D01*
X75503231Y-96199413D01*
X75503236Y-96199412D01*
X75508945Y-96198584D01*
X75514409Y-96196729D01*
X75514414Y-96196728D01*
X75695693Y-96135192D01*
X75695698Y-96135190D01*
X75701165Y-96133334D01*
X75732673Y-96115689D01*
X75817472Y-96068199D01*
X75878276Y-96034147D01*
X75890340Y-96024114D01*
X76029913Y-95908031D01*
X76034345Y-95904345D01*
X76122496Y-95798356D01*
X76160453Y-95752718D01*
X76160455Y-95752715D01*
X76164147Y-95748276D01*
X76213621Y-95659933D01*
X77630500Y-95659933D01*
X77630501Y-97220066D01*
X77645266Y-97294301D01*
X77701516Y-97378484D01*
X77785699Y-97434734D01*
X77859933Y-97449500D01*
X78924827Y-97449500D01*
X79990066Y-97449499D01*
X80025818Y-97442388D01*
X80052126Y-97437156D01*
X80052128Y-97437155D01*
X80064301Y-97434734D01*
X80074621Y-97427839D01*
X80074622Y-97427838D01*
X80138168Y-97385377D01*
X80148484Y-97378484D01*
X80204734Y-97294301D01*
X80219500Y-97220067D01*
X80219500Y-97140178D01*
X80239502Y-97072057D01*
X80293158Y-97025564D01*
X80363432Y-97015460D01*
X80377467Y-97018301D01*
X80510522Y-97053207D01*
X80594477Y-97054526D01*
X80661319Y-97055576D01*
X80661322Y-97055576D01*
X80668916Y-97055695D01*
X80823332Y-97020329D01*
X80922407Y-96970500D01*
X80958072Y-96952563D01*
X80958075Y-96952561D01*
X80964855Y-96949151D01*
X80970626Y-96944222D01*
X80970629Y-96944220D01*
X81079536Y-96851204D01*
X81079536Y-96851203D01*
X81085314Y-96846269D01*
X81177755Y-96717624D01*
X81236842Y-96570641D01*
X81259162Y-96413807D01*
X81259307Y-96400000D01*
X81240276Y-96242733D01*
X81184280Y-96094546D01*
X81157103Y-96055003D01*
X81098855Y-95970251D01*
X81098854Y-95970249D01*
X81094553Y-95963992D01*
X80976275Y-95858611D01*
X80968889Y-95854700D01*
X80868425Y-95801507D01*
X80836274Y-95784484D01*
X80682633Y-95745892D01*
X80675034Y-95745852D01*
X80675033Y-95745852D01*
X80609181Y-95745507D01*
X80524221Y-95745062D01*
X80516841Y-95746834D01*
X80516839Y-95746834D01*
X80374764Y-95780943D01*
X80303856Y-95777396D01*
X80246122Y-95736076D01*
X80219957Y-95670774D01*
X80219499Y-95666120D01*
X80219499Y-95659934D01*
X80210738Y-95615886D01*
X80207156Y-95597874D01*
X80207155Y-95597872D01*
X80204734Y-95585699D01*
X80191367Y-95565693D01*
X80155377Y-95511832D01*
X80148484Y-95501516D01*
X80064301Y-95445266D01*
X79990067Y-95430500D01*
X78925173Y-95430500D01*
X77859934Y-95430501D01*
X77824182Y-95437612D01*
X77797874Y-95442844D01*
X77797872Y-95442845D01*
X77785699Y-95445266D01*
X77775379Y-95452161D01*
X77775378Y-95452162D01*
X77718348Y-95490269D01*
X77701516Y-95501516D01*
X77645266Y-95585699D01*
X77630500Y-95659933D01*
X76213621Y-95659933D01*
X76238289Y-95615886D01*
X76260510Y-95576208D01*
X76260511Y-95576206D01*
X76263334Y-95571165D01*
X76265190Y-95565698D01*
X76265192Y-95565693D01*
X76326728Y-95384414D01*
X76326729Y-95384409D01*
X76328584Y-95378945D01*
X76329412Y-95373236D01*
X76329413Y-95373231D01*
X76357179Y-95181727D01*
X76357712Y-95178053D01*
X76359232Y-95120000D01*
X76342788Y-94941042D01*
X76341187Y-94923613D01*
X76341186Y-94923610D01*
X76340658Y-94917859D01*
X76339090Y-94912299D01*
X76287125Y-94728046D01*
X76287124Y-94728044D01*
X76285557Y-94722487D01*
X76274978Y-94701033D01*
X76198331Y-94545609D01*
X76195776Y-94540428D01*
X76074320Y-94377779D01*
X75925258Y-94239987D01*
X75920375Y-94236906D01*
X75920371Y-94236903D01*
X75758464Y-94134748D01*
X75753581Y-94131667D01*
X75565039Y-94056446D01*
X75559379Y-94055320D01*
X75559375Y-94055319D01*
X75371613Y-94017971D01*
X75371610Y-94017971D01*
X75365946Y-94016844D01*
X75360171Y-94016768D01*
X75360167Y-94016768D01*
X75258793Y-94015441D01*
X75162971Y-94014187D01*
X75157274Y-94015166D01*
X75157273Y-94015166D01*
X75041294Y-94035095D01*
X74962910Y-94048564D01*
X74772463Y-94118824D01*
X74598010Y-94222612D01*
X74593670Y-94226418D01*
X74593666Y-94226421D01*
X74472925Y-94332309D01*
X74445392Y-94356455D01*
X74319720Y-94515869D01*
X74317031Y-94520980D01*
X74317029Y-94520983D01*
X74300484Y-94552430D01*
X74225203Y-94695515D01*
X74194157Y-94795500D01*
X74169258Y-94875689D01*
X74165007Y-94889378D01*
X74141148Y-95090964D01*
X73254500Y-95090964D01*
X73254500Y-93793096D01*
X90240729Y-93793096D01*
X90258113Y-93950553D01*
X90260723Y-93957684D01*
X90260723Y-93957686D01*
X90309682Y-94091473D01*
X90312553Y-94099319D01*
X90316789Y-94105622D01*
X90316789Y-94105623D01*
X90395403Y-94222612D01*
X90400908Y-94230805D01*
X90406527Y-94235918D01*
X90406528Y-94235919D01*
X90410999Y-94239987D01*
X90518076Y-94337419D01*
X90657293Y-94413008D01*
X90810522Y-94453207D01*
X90920464Y-94454934D01*
X90938799Y-94455222D01*
X91006597Y-94476291D01*
X91052242Y-94530670D01*
X91057740Y-94547177D01*
X91058113Y-94550553D01*
X91060721Y-94557680D01*
X91060722Y-94557684D01*
X91109942Y-94692185D01*
X91112553Y-94699319D01*
X91116789Y-94705622D01*
X91116789Y-94705623D01*
X91194073Y-94820633D01*
X91200908Y-94830805D01*
X91206527Y-94835918D01*
X91206528Y-94835919D01*
X91271584Y-94895115D01*
X91318076Y-94937419D01*
X91457293Y-95013008D01*
X91610522Y-95053207D01*
X91694477Y-95054526D01*
X91761319Y-95055576D01*
X91761322Y-95055576D01*
X91768916Y-95055695D01*
X91923332Y-95020329D01*
X91993742Y-94984917D01*
X92058072Y-94952563D01*
X92058075Y-94952561D01*
X92064855Y-94949151D01*
X92070626Y-94944222D01*
X92070629Y-94944220D01*
X92179537Y-94851203D01*
X92185314Y-94846269D01*
X92186855Y-94844125D01*
X92245875Y-94808610D01*
X92277793Y-94804500D01*
X96380260Y-94804500D01*
X96448381Y-94824502D01*
X96469355Y-94841405D01*
X97136485Y-95508535D01*
X97136489Y-95508538D01*
X97159277Y-95531326D01*
X97179154Y-95541454D01*
X97196011Y-95551784D01*
X97214071Y-95564905D01*
X97233338Y-95571165D01*
X97235295Y-95571801D01*
X97253561Y-95579366D01*
X97273445Y-95589498D01*
X97283238Y-95591049D01*
X97295487Y-95592989D01*
X97314713Y-95597605D01*
X97326500Y-95601435D01*
X97326502Y-95601435D01*
X97335934Y-95604500D01*
X100654500Y-95604500D01*
X100722621Y-95624502D01*
X100769114Y-95678158D01*
X100780500Y-95730500D01*
X100780500Y-95909500D01*
X100760498Y-95977621D01*
X100706842Y-96024114D01*
X100654500Y-96035500D01*
X99195934Y-96035500D01*
X99186502Y-96038565D01*
X99186500Y-96038565D01*
X99174713Y-96042395D01*
X99155487Y-96047011D01*
X99133445Y-96050502D01*
X99113562Y-96060633D01*
X99095296Y-96068199D01*
X99074071Y-96075095D01*
X99066047Y-96080925D01*
X99056011Y-96088216D01*
X99039156Y-96098545D01*
X99019277Y-96108674D01*
X98996489Y-96131462D01*
X98996485Y-96131465D01*
X97691465Y-97436485D01*
X97691462Y-97436489D01*
X97668674Y-97459277D01*
X97664171Y-97468115D01*
X97658546Y-97479154D01*
X97648216Y-97496011D01*
X97635095Y-97514071D01*
X97632030Y-97523504D01*
X97628199Y-97535295D01*
X97620634Y-97553561D01*
X97610502Y-97573445D01*
X97608951Y-97583238D01*
X97607011Y-97595487D01*
X97602395Y-97614713D01*
X97595500Y-97635934D01*
X97595500Y-98926996D01*
X97575498Y-98995117D01*
X97552330Y-99021945D01*
X97510039Y-99058838D01*
X97418950Y-99188444D01*
X97416190Y-99195524D01*
X97366178Y-99323798D01*
X97361406Y-99336037D01*
X97360414Y-99343570D01*
X97360414Y-99343571D01*
X97345329Y-99458158D01*
X97340729Y-99493096D01*
X97349421Y-99571825D01*
X97354239Y-99615460D01*
X97358113Y-99650553D01*
X97360723Y-99657684D01*
X97360723Y-99657686D01*
X97400410Y-99766135D01*
X97412553Y-99799319D01*
X97416789Y-99805622D01*
X97416789Y-99805623D01*
X97492629Y-99918484D01*
X97500908Y-99930805D01*
X97506527Y-99935918D01*
X97506528Y-99935919D01*
X97564087Y-99988293D01*
X97618076Y-100037419D01*
X97757293Y-100113008D01*
X97910522Y-100153207D01*
X97994477Y-100154526D01*
X98061319Y-100155576D01*
X98061322Y-100155576D01*
X98068916Y-100155695D01*
X98223332Y-100120329D01*
X98293742Y-100084917D01*
X98358072Y-100052563D01*
X98358075Y-100052561D01*
X98364855Y-100049151D01*
X98370626Y-100044222D01*
X98370629Y-100044220D01*
X98479536Y-99951204D01*
X98479536Y-99951203D01*
X98485314Y-99946269D01*
X98577755Y-99817624D01*
X98636842Y-99670641D01*
X98645044Y-99613008D01*
X98658581Y-99517891D01*
X98658581Y-99517888D01*
X98659162Y-99513807D01*
X98659307Y-99500000D01*
X98658210Y-99490930D01*
X98650033Y-99423365D01*
X98640276Y-99342733D01*
X98584280Y-99194546D01*
X98554233Y-99150827D01*
X98498855Y-99070251D01*
X98498854Y-99070249D01*
X98494553Y-99063992D01*
X98446681Y-99021339D01*
X98409126Y-98961090D01*
X98404500Y-98927263D01*
X98404500Y-98393096D01*
X98840729Y-98393096D01*
X98841563Y-98400646D01*
X98853465Y-98508450D01*
X98858113Y-98550553D01*
X98860723Y-98557684D01*
X98860723Y-98557686D01*
X98878277Y-98605653D01*
X98912553Y-98699319D01*
X98916789Y-98705622D01*
X98916789Y-98705623D01*
X98985840Y-98808381D01*
X99000908Y-98830805D01*
X99006527Y-98835918D01*
X99006528Y-98835919D01*
X99112460Y-98932309D01*
X99118076Y-98937419D01*
X99257293Y-99013008D01*
X99410522Y-99053207D01*
X99494477Y-99054526D01*
X99561319Y-99055576D01*
X99561322Y-99055576D01*
X99568916Y-99055695D01*
X99723332Y-99020329D01*
X99796046Y-98983758D01*
X99858072Y-98952563D01*
X99858075Y-98952561D01*
X99864855Y-98949151D01*
X99870628Y-98944220D01*
X99870633Y-98944217D01*
X99890763Y-98927024D01*
X99955552Y-98897992D01*
X100025752Y-98908596D01*
X100061689Y-98933739D01*
X100416485Y-99288535D01*
X100416489Y-99288538D01*
X100439277Y-99311326D01*
X100459154Y-99321454D01*
X100476011Y-99331784D01*
X100494071Y-99344905D01*
X100503504Y-99347970D01*
X100515295Y-99351801D01*
X100533561Y-99359366D01*
X100553445Y-99369498D01*
X100563238Y-99371049D01*
X100575487Y-99372989D01*
X100594713Y-99377605D01*
X100606500Y-99381435D01*
X100606502Y-99381435D01*
X100615934Y-99384500D01*
X100654501Y-99384500D01*
X100722622Y-99404502D01*
X100769115Y-99458158D01*
X100780501Y-99510500D01*
X100780501Y-99760066D01*
X100795266Y-99834301D01*
X100851516Y-99918484D01*
X100935699Y-99974734D01*
X101009933Y-99989500D01*
X102074827Y-99989500D01*
X103140066Y-99989499D01*
X103175818Y-99982388D01*
X103202126Y-99977156D01*
X103202128Y-99977155D01*
X103214301Y-99974734D01*
X103224621Y-99967839D01*
X103224622Y-99967838D01*
X103288168Y-99925377D01*
X103298484Y-99918484D01*
X103354734Y-99834301D01*
X103369500Y-99760067D01*
X103369499Y-98199934D01*
X103354734Y-98125699D01*
X103334572Y-98095524D01*
X103305377Y-98051832D01*
X103298484Y-98041516D01*
X103214301Y-97985266D01*
X103140067Y-97970500D01*
X102075173Y-97970500D01*
X101009934Y-97970501D01*
X100974182Y-97977612D01*
X100947874Y-97982844D01*
X100947872Y-97982845D01*
X100935699Y-97985266D01*
X100925379Y-97992161D01*
X100925378Y-97992162D01*
X100884694Y-98019347D01*
X100851516Y-98041516D01*
X100795266Y-98125699D01*
X100780500Y-98199933D01*
X100780500Y-98206120D01*
X100779893Y-98212283D01*
X100778193Y-98212116D01*
X100760498Y-98272381D01*
X100706842Y-98318874D01*
X100636568Y-98328978D01*
X100571988Y-98299484D01*
X100565405Y-98293355D01*
X100363515Y-98091465D01*
X100363511Y-98091462D01*
X100340723Y-98068674D01*
X100320844Y-98058545D01*
X100303989Y-98048216D01*
X100293953Y-98040925D01*
X100285929Y-98035095D01*
X100264704Y-98028199D01*
X100246438Y-98020633D01*
X100243914Y-98019347D01*
X100226555Y-98010502D01*
X100204513Y-98007011D01*
X100185287Y-98002395D01*
X100173500Y-97998565D01*
X100173498Y-97998565D01*
X100164066Y-97995500D01*
X100077906Y-97995500D01*
X100009785Y-97975498D01*
X99994087Y-97963577D01*
X99881946Y-97863664D01*
X99876275Y-97858611D01*
X99868889Y-97854700D01*
X99742988Y-97788039D01*
X99742989Y-97788039D01*
X99736274Y-97784484D01*
X99582633Y-97745892D01*
X99575034Y-97745852D01*
X99575033Y-97745852D01*
X99509181Y-97745507D01*
X99424221Y-97745062D01*
X99416841Y-97746834D01*
X99416839Y-97746834D01*
X99277563Y-97780271D01*
X99277560Y-97780272D01*
X99270184Y-97782043D01*
X99129414Y-97854700D01*
X99010039Y-97958838D01*
X98918950Y-98088444D01*
X98861406Y-98236037D01*
X98860414Y-98243570D01*
X98860414Y-98243571D01*
X98841863Y-98384484D01*
X98840729Y-98393096D01*
X98404500Y-98393096D01*
X98404500Y-97919740D01*
X98424502Y-97851619D01*
X98441405Y-97830645D01*
X99390645Y-96881405D01*
X99452957Y-96847379D01*
X99479740Y-96844500D01*
X100654501Y-96844500D01*
X100722622Y-96864502D01*
X100769115Y-96918158D01*
X100780501Y-96970500D01*
X100780501Y-97220066D01*
X100795266Y-97294301D01*
X100851516Y-97378484D01*
X100935699Y-97434734D01*
X101009933Y-97449500D01*
X102074827Y-97449500D01*
X103140066Y-97449499D01*
X103175818Y-97442388D01*
X103202126Y-97437156D01*
X103202128Y-97437155D01*
X103214301Y-97434734D01*
X103224621Y-97427839D01*
X103224622Y-97427838D01*
X103288168Y-97385377D01*
X103298484Y-97378484D01*
X103354734Y-97294301D01*
X103369500Y-97220067D01*
X103369499Y-95730500D01*
X103389501Y-95662379D01*
X103443157Y-95615886D01*
X103495499Y-95604500D01*
X104492760Y-95604500D01*
X104560881Y-95624502D01*
X104581855Y-95641405D01*
X105233595Y-96293145D01*
X105267621Y-96355457D01*
X105270500Y-96382240D01*
X105270500Y-96784070D01*
X105277036Y-96844236D01*
X105290970Y-96881405D01*
X105314519Y-96944220D01*
X105326507Y-96976199D01*
X105411026Y-97088974D01*
X105523801Y-97173493D01*
X105532202Y-97176643D01*
X105532205Y-97176644D01*
X105610613Y-97206037D01*
X105655764Y-97222964D01*
X105715930Y-97229500D01*
X106284070Y-97229500D01*
X106344236Y-97222964D01*
X106389387Y-97206037D01*
X106467795Y-97176644D01*
X106467798Y-97176643D01*
X106476199Y-97173493D01*
X106588974Y-97088974D01*
X106673493Y-96976199D01*
X106685482Y-96944220D01*
X106709030Y-96881405D01*
X106722964Y-96844236D01*
X106729500Y-96784070D01*
X106729500Y-96190930D01*
X106722964Y-96130764D01*
X106702095Y-96075095D01*
X106676644Y-96007205D01*
X106676643Y-96007202D01*
X106673493Y-95998801D01*
X106588974Y-95886026D01*
X106476199Y-95801507D01*
X106467798Y-95798357D01*
X106467795Y-95798356D01*
X106389387Y-95768963D01*
X106344236Y-95752036D01*
X106290279Y-95746174D01*
X106287467Y-95745869D01*
X106284070Y-95745500D01*
X105882240Y-95745500D01*
X105814119Y-95725498D01*
X105793145Y-95708595D01*
X104976015Y-94891465D01*
X104976011Y-94891462D01*
X104953223Y-94868674D01*
X104933344Y-94858545D01*
X104916489Y-94848216D01*
X104906453Y-94840925D01*
X104898429Y-94835095D01*
X104877204Y-94828199D01*
X104858938Y-94820633D01*
X104839055Y-94810502D01*
X104817013Y-94807011D01*
X104797787Y-94802395D01*
X104786000Y-94798565D01*
X104785998Y-94798565D01*
X104776566Y-94795500D01*
X103495500Y-94795500D01*
X103427379Y-94775498D01*
X103380886Y-94721842D01*
X103369500Y-94669500D01*
X103369499Y-93126123D01*
X103369499Y-93119934D01*
X103354734Y-93045699D01*
X103341236Y-93025497D01*
X103305377Y-92971832D01*
X103298484Y-92961516D01*
X103253302Y-92931326D01*
X103224620Y-92912161D01*
X103214301Y-92905266D01*
X103140067Y-92890500D01*
X102075173Y-92890500D01*
X101009934Y-92890501D01*
X100974182Y-92897612D01*
X100947874Y-92902844D01*
X100947872Y-92902845D01*
X100935699Y-92905266D01*
X100925379Y-92912161D01*
X100925378Y-92912162D01*
X100876979Y-92944502D01*
X100851516Y-92961516D01*
X100795266Y-93045699D01*
X100780500Y-93119933D01*
X100780500Y-93259148D01*
X100760498Y-93327269D01*
X100706842Y-93373762D01*
X100636568Y-93383866D01*
X100623809Y-93381353D01*
X100482633Y-93345892D01*
X100475034Y-93345852D01*
X100475033Y-93345852D01*
X100409181Y-93345507D01*
X100324221Y-93345062D01*
X100316841Y-93346834D01*
X100316839Y-93346834D01*
X100177563Y-93380271D01*
X100177560Y-93380272D01*
X100170184Y-93382043D01*
X100029414Y-93454700D01*
X99910039Y-93558838D01*
X99818950Y-93688444D01*
X99816190Y-93695524D01*
X99780120Y-93788039D01*
X99761406Y-93836037D01*
X99760414Y-93843570D01*
X99760414Y-93843571D01*
X99743046Y-93975498D01*
X99740729Y-93993096D01*
X99745366Y-94035095D01*
X99755792Y-94129527D01*
X99758113Y-94150553D01*
X99760723Y-94157684D01*
X99760723Y-94157686D01*
X99792277Y-94243911D01*
X99812553Y-94299319D01*
X99816789Y-94305622D01*
X99816789Y-94305623D01*
X99848389Y-94352648D01*
X99900908Y-94430805D01*
X99906527Y-94435918D01*
X99906528Y-94435919D01*
X99994393Y-94515869D01*
X100018076Y-94537419D01*
X100055400Y-94557684D01*
X100057398Y-94558769D01*
X100107719Y-94608851D01*
X100122976Y-94678189D01*
X100098324Y-94744769D01*
X100041590Y-94787450D01*
X99997276Y-94795500D01*
X97619740Y-94795500D01*
X97551619Y-94775498D01*
X97530645Y-94758595D01*
X96863515Y-94091465D01*
X96863511Y-94091462D01*
X96840723Y-94068674D01*
X96820844Y-94058545D01*
X96803989Y-94048216D01*
X96793953Y-94040925D01*
X96785929Y-94035095D01*
X96764704Y-94028199D01*
X96746438Y-94020633D01*
X96726555Y-94010502D01*
X96704513Y-94007011D01*
X96685287Y-94002395D01*
X96673500Y-93998565D01*
X96673498Y-93998565D01*
X96664066Y-93995500D01*
X92277906Y-93995500D01*
X92209785Y-93975498D01*
X92194087Y-93963577D01*
X92081946Y-93863664D01*
X92076275Y-93858611D01*
X92047870Y-93843571D01*
X92020269Y-93828957D01*
X91936274Y-93784484D01*
X91928911Y-93782635D01*
X91928907Y-93782633D01*
X91836100Y-93759322D01*
X91793201Y-93748547D01*
X91732006Y-93712552D01*
X91699985Y-93649187D01*
X91707305Y-93578569D01*
X91734802Y-93537248D01*
X92230645Y-93041405D01*
X92292957Y-93007379D01*
X92319740Y-93004500D01*
X97364066Y-93004500D01*
X97373498Y-93001435D01*
X97373500Y-93001435D01*
X97385287Y-92997605D01*
X97404513Y-92992989D01*
X97416762Y-92991049D01*
X97426555Y-92989498D01*
X97446439Y-92979366D01*
X97464705Y-92971801D01*
X97476496Y-92967970D01*
X97485929Y-92964905D01*
X97503989Y-92951784D01*
X97520846Y-92941454D01*
X97540723Y-92931326D01*
X97563511Y-92908538D01*
X97563515Y-92908535D01*
X99930645Y-90541405D01*
X99992957Y-90507379D01*
X100019740Y-90504500D01*
X100251574Y-90504500D01*
X100319695Y-90524502D01*
X100366188Y-90578158D01*
X100376292Y-90648432D01*
X100346798Y-90713012D01*
X100309364Y-90742466D01*
X100283784Y-90755669D01*
X100169414Y-90814700D01*
X100050039Y-90918838D01*
X99958950Y-91048444D01*
X99932327Y-91116728D01*
X99920336Y-91147485D01*
X99901406Y-91196037D01*
X99880729Y-91353096D01*
X99881563Y-91360646D01*
X99895268Y-91484780D01*
X99898113Y-91510553D01*
X99900723Y-91517684D01*
X99900723Y-91517686D01*
X99927177Y-91589974D01*
X99952553Y-91659319D01*
X100040908Y-91790805D01*
X100046527Y-91795918D01*
X100046528Y-91795919D01*
X100097983Y-91842739D01*
X100158076Y-91897419D01*
X100297293Y-91973008D01*
X100450522Y-92013207D01*
X100534477Y-92014526D01*
X100601319Y-92015576D01*
X100601322Y-92015576D01*
X100608916Y-92015695D01*
X100616317Y-92014000D01*
X100616326Y-92013999D01*
X100626370Y-92011698D01*
X100697237Y-92015986D01*
X100754535Y-92057907D01*
X100780074Y-92124151D01*
X100780456Y-92133418D01*
X100780501Y-92133875D01*
X100780501Y-92140066D01*
X100784711Y-92161232D01*
X100791527Y-92195500D01*
X100795266Y-92214301D01*
X100802161Y-92224620D01*
X100802162Y-92224622D01*
X100821820Y-92254042D01*
X100851516Y-92298484D01*
X100935699Y-92354734D01*
X101009933Y-92369500D01*
X102074827Y-92369500D01*
X103140066Y-92369499D01*
X103175818Y-92362388D01*
X103202126Y-92357156D01*
X103202128Y-92357155D01*
X103214301Y-92354734D01*
X103224621Y-92347839D01*
X103224622Y-92347838D01*
X103288168Y-92305377D01*
X103298484Y-92298484D01*
X103354734Y-92214301D01*
X103369500Y-92140067D01*
X103369499Y-90630500D01*
X103389501Y-90562379D01*
X103443157Y-90515886D01*
X103495499Y-90504500D01*
X104667759Y-90504500D01*
X104735880Y-90524502D01*
X104756854Y-90541404D01*
X105233595Y-91018144D01*
X105267620Y-91080457D01*
X105270500Y-91107240D01*
X105270500Y-91509070D01*
X105277036Y-91569236D01*
X105286768Y-91595195D01*
X105321120Y-91686829D01*
X105326507Y-91701199D01*
X105411026Y-91813974D01*
X105523801Y-91898493D01*
X105532202Y-91901643D01*
X105532205Y-91901644D01*
X105610613Y-91931037D01*
X105655764Y-91947964D01*
X105715930Y-91954500D01*
X106284070Y-91954500D01*
X106344236Y-91947964D01*
X106389387Y-91931037D01*
X106467795Y-91901644D01*
X106467798Y-91901643D01*
X106476199Y-91898493D01*
X106588974Y-91813974D01*
X106673493Y-91701199D01*
X106678881Y-91686829D01*
X106713232Y-91595195D01*
X106722964Y-91569236D01*
X106729500Y-91509070D01*
X106729500Y-90915930D01*
X106722964Y-90855764D01*
X106688722Y-90764424D01*
X106676644Y-90732205D01*
X106676643Y-90732202D01*
X106673493Y-90723801D01*
X106588974Y-90611026D01*
X106476199Y-90526507D01*
X106467798Y-90523357D01*
X106467795Y-90523356D01*
X106367328Y-90485693D01*
X106344236Y-90477036D01*
X106284070Y-90470500D01*
X105882240Y-90470500D01*
X105814119Y-90450498D01*
X105793145Y-90433595D01*
X105704145Y-90344595D01*
X105670119Y-90282283D01*
X105675184Y-90211468D01*
X105717731Y-90154632D01*
X105784251Y-90129821D01*
X105793240Y-90129500D01*
X106284070Y-90129500D01*
X106344236Y-90122964D01*
X106410686Y-90098053D01*
X106467795Y-90076644D01*
X106467798Y-90076643D01*
X106476199Y-90073493D01*
X106588974Y-89988974D01*
X106673493Y-89876199D01*
X106689951Y-89832299D01*
X106711173Y-89775689D01*
X106722964Y-89744236D01*
X106729500Y-89684070D01*
X106729500Y-89090930D01*
X106722964Y-89030764D01*
X106702601Y-88976446D01*
X106676644Y-88907205D01*
X106676643Y-88907202D01*
X106673493Y-88898801D01*
X106588974Y-88786026D01*
X106542006Y-88750826D01*
X106499491Y-88693968D01*
X106494465Y-88623150D01*
X106528524Y-88560856D01*
X106542007Y-88549173D01*
X106562942Y-88533484D01*
X106588974Y-88513974D01*
X106673493Y-88401199D01*
X106722964Y-88269236D01*
X106729500Y-88209070D01*
X106729500Y-87540930D01*
X106722964Y-87480764D01*
X106673493Y-87348801D01*
X106588974Y-87236026D01*
X106476199Y-87151507D01*
X106467798Y-87148357D01*
X106467795Y-87148356D01*
X106389387Y-87118963D01*
X106344236Y-87102036D01*
X106284070Y-87095500D01*
X105715930Y-87095500D01*
X105655764Y-87102036D01*
X105610613Y-87118963D01*
X105532205Y-87148356D01*
X105532202Y-87148357D01*
X105523801Y-87151507D01*
X105411026Y-87236026D01*
X105326507Y-87348801D01*
X105277036Y-87480764D01*
X105270500Y-87540930D01*
X105270500Y-88209070D01*
X105277036Y-88269236D01*
X105326507Y-88401199D01*
X105411026Y-88513974D01*
X105437059Y-88533484D01*
X105457993Y-88549173D01*
X105500509Y-88606032D01*
X105505535Y-88676850D01*
X105471476Y-88739144D01*
X105457996Y-88750825D01*
X105411026Y-88786026D01*
X105326507Y-88898801D01*
X105323357Y-88907202D01*
X105323356Y-88907205D01*
X105297399Y-88976446D01*
X105277036Y-89030764D01*
X105270500Y-89090930D01*
X105270500Y-89631635D01*
X105250498Y-89699756D01*
X105196842Y-89746249D01*
X105126568Y-89756353D01*
X105087299Y-89743903D01*
X105081451Y-89740923D01*
X105073429Y-89735095D01*
X105063999Y-89732031D01*
X105063997Y-89732030D01*
X105052205Y-89728199D01*
X105033938Y-89720633D01*
X105014055Y-89710502D01*
X104992013Y-89707011D01*
X104972787Y-89702395D01*
X104961000Y-89698565D01*
X104960998Y-89698565D01*
X104951566Y-89695500D01*
X99735934Y-89695500D01*
X99726502Y-89698565D01*
X99726500Y-89698565D01*
X99714713Y-89702395D01*
X99695487Y-89707011D01*
X99673445Y-89710502D01*
X99653562Y-89720633D01*
X99635296Y-89728199D01*
X99614071Y-89735095D01*
X99606047Y-89740925D01*
X99596011Y-89748216D01*
X99579156Y-89758545D01*
X99559277Y-89768674D01*
X99536489Y-89791462D01*
X99536485Y-89791465D01*
X97169355Y-92158595D01*
X97107043Y-92192621D01*
X97080260Y-92195500D01*
X92035934Y-92195500D01*
X92026501Y-92198565D01*
X92014714Y-92202395D01*
X91995483Y-92207012D01*
X91989363Y-92207981D01*
X91983244Y-92208950D01*
X91983243Y-92208950D01*
X91973445Y-92210502D01*
X91964610Y-92215004D01*
X91964606Y-92215005D01*
X91953557Y-92220635D01*
X91935295Y-92228199D01*
X91923503Y-92232031D01*
X91923501Y-92232032D01*
X91914071Y-92235096D01*
X91896017Y-92248213D01*
X91879160Y-92258543D01*
X91859277Y-92268674D01*
X91836489Y-92291462D01*
X91836485Y-92291465D01*
X91019239Y-93108711D01*
X90956927Y-93142737D01*
X90929487Y-93145614D01*
X90824221Y-93145062D01*
X90816841Y-93146834D01*
X90816839Y-93146834D01*
X90677563Y-93180271D01*
X90677560Y-93180272D01*
X90670184Y-93182043D01*
X90529414Y-93254700D01*
X90410039Y-93358838D01*
X90318950Y-93488444D01*
X90261406Y-93636037D01*
X90260414Y-93643570D01*
X90260414Y-93643571D01*
X90241863Y-93784484D01*
X90240729Y-93793096D01*
X73254500Y-93793096D01*
X73254500Y-92722602D01*
X74152899Y-92722602D01*
X74154542Y-92747676D01*
X74156343Y-92759046D01*
X74203443Y-92944502D01*
X74207284Y-92955348D01*
X74287394Y-93129120D01*
X74293145Y-93139081D01*
X74403579Y-93295343D01*
X74411057Y-93304098D01*
X74548114Y-93437612D01*
X74557058Y-93444855D01*
X74716156Y-93551161D01*
X74726266Y-93556651D01*
X74902077Y-93632185D01*
X74913020Y-93635740D01*
X75099647Y-93677970D01*
X75106383Y-93678857D01*
X75120302Y-93675357D01*
X75120658Y-93674978D01*
X75123000Y-93665144D01*
X75123000Y-93659095D01*
X75377000Y-93659095D01*
X75380966Y-93672601D01*
X75394966Y-93674605D01*
X75503106Y-93658926D01*
X75514302Y-93656238D01*
X75695497Y-93594730D01*
X75705994Y-93590056D01*
X75872958Y-93496552D01*
X75882430Y-93490042D01*
X76029553Y-93367682D01*
X76037682Y-93359553D01*
X76160042Y-93212430D01*
X76166552Y-93202958D01*
X76260056Y-93035994D01*
X76264730Y-93025497D01*
X76326238Y-92844302D01*
X76328926Y-92833106D01*
X76344610Y-92724929D01*
X76342624Y-92710993D01*
X76329056Y-92707000D01*
X75395115Y-92707000D01*
X75379876Y-92711475D01*
X75378671Y-92712865D01*
X75377000Y-92720548D01*
X75377000Y-93659095D01*
X75123000Y-93659095D01*
X75123000Y-92725115D01*
X75118525Y-92709876D01*
X75117135Y-92708671D01*
X75109452Y-92707000D01*
X74169991Y-92707000D01*
X74154951Y-92711416D01*
X74152899Y-92722602D01*
X73254500Y-92722602D01*
X73254500Y-92435012D01*
X74155375Y-92435012D01*
X74157817Y-92449431D01*
X74170559Y-92453000D01*
X75104885Y-92453000D01*
X75120124Y-92448525D01*
X75121329Y-92447135D01*
X75123000Y-92439452D01*
X75123000Y-92434885D01*
X75377000Y-92434885D01*
X75381475Y-92450124D01*
X75382865Y-92451329D01*
X75390548Y-92453000D01*
X76328945Y-92453000D01*
X76343490Y-92448729D01*
X76345553Y-92436595D01*
X76340693Y-92383707D01*
X76338595Y-92372386D01*
X76286658Y-92188231D01*
X76282533Y-92177484D01*
X76197903Y-92005871D01*
X76191893Y-91996063D01*
X76077400Y-91842739D01*
X76069710Y-91834199D01*
X75929192Y-91704304D01*
X75920067Y-91697303D01*
X75758236Y-91595195D01*
X75747989Y-91589974D01*
X75570260Y-91519068D01*
X75559232Y-91515801D01*
X75394769Y-91483088D01*
X75381894Y-91484240D01*
X75377000Y-91499396D01*
X75377000Y-92434885D01*
X75123000Y-92434885D01*
X75123000Y-91499678D01*
X75119194Y-91486716D01*
X75104278Y-91484780D01*
X74968737Y-91508070D01*
X74957617Y-91511050D01*
X74778095Y-91577279D01*
X74767717Y-91582229D01*
X74603273Y-91680063D01*
X74593961Y-91686829D01*
X74450097Y-91812994D01*
X74442180Y-91821337D01*
X74323718Y-91971605D01*
X74317450Y-91981256D01*
X74228360Y-92150589D01*
X74223951Y-92161232D01*
X74167210Y-92343967D01*
X74164820Y-92355211D01*
X74155375Y-92435012D01*
X73254500Y-92435012D01*
X73254500Y-90010964D01*
X74141148Y-90010964D01*
X74154424Y-90213522D01*
X74155845Y-90219118D01*
X74155846Y-90219123D01*
X74176119Y-90298945D01*
X74204392Y-90410269D01*
X74206809Y-90415512D01*
X74286959Y-90589371D01*
X74289377Y-90594616D01*
X74300974Y-90611026D01*
X74395293Y-90744484D01*
X74406533Y-90760389D01*
X74551938Y-90902035D01*
X74720720Y-91014812D01*
X74726023Y-91017090D01*
X74726026Y-91017092D01*
X74873513Y-91080457D01*
X74907228Y-91094942D01*
X74980244Y-91111464D01*
X75099579Y-91138467D01*
X75099584Y-91138468D01*
X75105216Y-91139742D01*
X75110987Y-91139969D01*
X75110989Y-91139969D01*
X75170756Y-91142317D01*
X75308053Y-91147712D01*
X75408499Y-91133148D01*
X75503231Y-91119413D01*
X75503236Y-91119412D01*
X75508945Y-91118584D01*
X75514409Y-91116729D01*
X75514414Y-91116728D01*
X75695693Y-91055192D01*
X75695698Y-91055190D01*
X75701165Y-91053334D01*
X75878276Y-90954147D01*
X75920119Y-90919347D01*
X76029913Y-90828031D01*
X76034345Y-90824345D01*
X76100765Y-90744484D01*
X76160453Y-90672718D01*
X76160455Y-90672715D01*
X76164147Y-90668276D01*
X76263334Y-90491165D01*
X76265190Y-90485698D01*
X76265192Y-90485693D01*
X76326728Y-90304414D01*
X76326729Y-90304409D01*
X76328584Y-90298945D01*
X76329412Y-90293236D01*
X76329413Y-90293231D01*
X76357179Y-90101727D01*
X76357712Y-90098053D01*
X76359232Y-90040000D01*
X76340658Y-89837859D01*
X76339090Y-89832299D01*
X76287125Y-89648046D01*
X76287124Y-89648044D01*
X76285557Y-89642487D01*
X76280206Y-89631635D01*
X76198331Y-89465609D01*
X76195776Y-89460428D01*
X76074320Y-89297779D01*
X75925258Y-89159987D01*
X75920375Y-89156906D01*
X75920371Y-89156903D01*
X75758464Y-89054748D01*
X75753581Y-89051667D01*
X75565039Y-88976446D01*
X75559379Y-88975320D01*
X75559375Y-88975319D01*
X75371613Y-88937971D01*
X75371610Y-88937971D01*
X75365946Y-88936844D01*
X75360171Y-88936768D01*
X75360167Y-88936768D01*
X75258793Y-88935441D01*
X75162971Y-88934187D01*
X75157274Y-88935166D01*
X75157273Y-88935166D01*
X74968607Y-88967585D01*
X74962910Y-88968564D01*
X74772463Y-89038824D01*
X74598010Y-89142612D01*
X74593670Y-89146418D01*
X74593666Y-89146421D01*
X74573723Y-89163911D01*
X74445392Y-89276455D01*
X74319720Y-89435869D01*
X74317031Y-89440980D01*
X74317029Y-89440983D01*
X74304073Y-89465609D01*
X74225203Y-89615515D01*
X74165007Y-89809378D01*
X74141148Y-90010964D01*
X73254500Y-90010964D01*
X73254500Y-86624933D01*
X74145500Y-86624933D01*
X74145501Y-88375066D01*
X74160266Y-88449301D01*
X74216516Y-88533484D01*
X74300699Y-88589734D01*
X74374933Y-88604500D01*
X75249858Y-88604500D01*
X76125066Y-88604499D01*
X76160818Y-88597388D01*
X76187126Y-88592156D01*
X76187128Y-88592155D01*
X76199301Y-88589734D01*
X76209621Y-88582839D01*
X76209622Y-88582838D01*
X76273168Y-88540377D01*
X76283484Y-88533484D01*
X76339734Y-88449301D01*
X76354500Y-88375067D01*
X76354499Y-86624934D01*
X76339734Y-86550699D01*
X76283484Y-86466516D01*
X76199301Y-86410266D01*
X76125067Y-86395500D01*
X75250142Y-86395500D01*
X74374934Y-86395501D01*
X74339182Y-86402612D01*
X74312874Y-86407844D01*
X74312872Y-86407845D01*
X74300699Y-86410266D01*
X74290379Y-86417161D01*
X74290378Y-86417162D01*
X74229985Y-86457516D01*
X74216516Y-86466516D01*
X74160266Y-86550699D01*
X74145500Y-86624933D01*
X73254500Y-86624933D01*
X73254500Y-80439933D01*
X100780500Y-80439933D01*
X100780501Y-82000066D01*
X100795266Y-82074301D01*
X100851516Y-82158484D01*
X100935699Y-82214734D01*
X101009933Y-82229500D01*
X102074827Y-82229500D01*
X103140066Y-82229499D01*
X103175818Y-82222388D01*
X103202126Y-82217156D01*
X103202128Y-82217155D01*
X103214301Y-82214734D01*
X103224621Y-82207839D01*
X103224622Y-82207838D01*
X103288168Y-82165377D01*
X103298484Y-82158484D01*
X103354734Y-82074301D01*
X103369500Y-82000067D01*
X103369499Y-80439934D01*
X103354734Y-80365699D01*
X103298484Y-80281516D01*
X103214301Y-80225266D01*
X103140067Y-80210500D01*
X102075173Y-80210500D01*
X101009934Y-80210501D01*
X100974182Y-80217612D01*
X100947874Y-80222844D01*
X100947872Y-80222845D01*
X100935699Y-80225266D01*
X100925379Y-80232161D01*
X100925378Y-80232162D01*
X100864985Y-80272516D01*
X100851516Y-80281516D01*
X100795266Y-80365699D01*
X100780500Y-80439933D01*
X73254500Y-80439933D01*
X73254500Y-73380500D01*
X73274502Y-73312379D01*
X73328158Y-73265886D01*
X73380500Y-73254500D01*
X107619500Y-73254500D01*
X107687621Y-73274502D01*
G37*
G04 #@! TD.AperFunction*
G04 #@! TA.AperFunction,Conductor*
G36*
X73438902Y-107704994D02*
G01*
X73484770Y-107728987D01*
X73490706Y-107730730D01*
X73548568Y-107747720D01*
X73548572Y-107747721D01*
X73552891Y-107748989D01*
X73557339Y-107749629D01*
X73557346Y-107749630D01*
X73621552Y-107758861D01*
X73621559Y-107758861D01*
X73626000Y-107759500D01*
X80124000Y-107759500D01*
X80127346Y-107759140D01*
X80127351Y-107759140D01*
X80175795Y-107753932D01*
X80175801Y-107753931D01*
X80179159Y-107753570D01*
X80231501Y-107742184D01*
X80258291Y-107734834D01*
X80276434Y-107724503D01*
X80345527Y-107708177D01*
X80412479Y-107731797D01*
X80427876Y-107744901D01*
X80708595Y-108025620D01*
X80742621Y-108087932D01*
X80745500Y-108114715D01*
X80745500Y-110635286D01*
X80725498Y-110703407D01*
X80708595Y-110724381D01*
X79611066Y-111821910D01*
X79605394Y-111827242D01*
X79559595Y-111867690D01*
X79552077Y-111878327D01*
X79538279Y-111894697D01*
X77851200Y-113581776D01*
X77836787Y-113594163D01*
X77819429Y-113606937D01*
X77814686Y-113612520D01*
X77785411Y-113646979D01*
X77778481Y-113654495D01*
X77772838Y-113660138D01*
X77755306Y-113682298D01*
X77752539Y-113685673D01*
X77705518Y-113741020D01*
X77702189Y-113747540D01*
X77698869Y-113752518D01*
X77695736Y-113757591D01*
X77691193Y-113763333D01*
X77688093Y-113769966D01*
X77660447Y-113829117D01*
X77658516Y-113833067D01*
X77625507Y-113897712D01*
X77623767Y-113904822D01*
X77621677Y-113910442D01*
X77619797Y-113916093D01*
X77616699Y-113922722D01*
X77615209Y-113929886D01*
X77615208Y-113929889D01*
X77601915Y-113993803D01*
X77600949Y-113998073D01*
X77583689Y-114068608D01*
X77583000Y-114079714D01*
X77582966Y-114079712D01*
X77582723Y-114083771D01*
X77582363Y-114087805D01*
X77580872Y-114094973D01*
X77581070Y-114102290D01*
X77582954Y-114171915D01*
X77583000Y-114175323D01*
X77583000Y-114575303D01*
X77562998Y-114643424D01*
X77532565Y-114676129D01*
X77514596Y-114689596D01*
X77509215Y-114696776D01*
X77433311Y-114798054D01*
X77433309Y-114798057D01*
X77427929Y-114805236D01*
X77377202Y-114940553D01*
X77370500Y-115002245D01*
X77370500Y-115082000D01*
X77350498Y-115150121D01*
X77296842Y-115196614D01*
X77244500Y-115208000D01*
X76301864Y-115208000D01*
X76233743Y-115187998D01*
X76227191Y-115183446D01*
X76226947Y-115183313D01*
X76219764Y-115177929D01*
X76211359Y-115174778D01*
X76211357Y-115174777D01*
X76091843Y-115129974D01*
X76091841Y-115129974D01*
X76084448Y-115127202D01*
X76076598Y-115126349D01*
X76076597Y-115126349D01*
X76026153Y-115120869D01*
X76026152Y-115120869D01*
X76022756Y-115120500D01*
X74977244Y-115120500D01*
X74973848Y-115120869D01*
X74973847Y-115120869D01*
X74923403Y-115126349D01*
X74923402Y-115126349D01*
X74915552Y-115127202D01*
X74908159Y-115129974D01*
X74908157Y-115129974D01*
X74869954Y-115144296D01*
X74780236Y-115177929D01*
X74773057Y-115183309D01*
X74773054Y-115183311D01*
X74740112Y-115208000D01*
X74664596Y-115264596D01*
X74659215Y-115271776D01*
X74583311Y-115373054D01*
X74583309Y-115373057D01*
X74577929Y-115380236D01*
X74527202Y-115515552D01*
X74520500Y-115577244D01*
X74520500Y-116347756D01*
X74520869Y-116351152D01*
X74520869Y-116351153D01*
X74524029Y-116380236D01*
X74527202Y-116409448D01*
X74577929Y-116544764D01*
X74583309Y-116551943D01*
X74583311Y-116551946D01*
X74649287Y-116639977D01*
X74664596Y-116660404D01*
X74671776Y-116665785D01*
X74773054Y-116741689D01*
X74773057Y-116741691D01*
X74780236Y-116747071D01*
X74846631Y-116771961D01*
X74908157Y-116795026D01*
X74908159Y-116795026D01*
X74915552Y-116797798D01*
X74923402Y-116798651D01*
X74923403Y-116798651D01*
X74960454Y-116802676D01*
X74977244Y-116804500D01*
X76022756Y-116804500D01*
X76039546Y-116802676D01*
X76076597Y-116798651D01*
X76076598Y-116798651D01*
X76084448Y-116797798D01*
X76091841Y-116795026D01*
X76091843Y-116795026D01*
X76211357Y-116750223D01*
X76211361Y-116750221D01*
X76219764Y-116747071D01*
X76226946Y-116741688D01*
X76234823Y-116737376D01*
X76235556Y-116738716D01*
X76292802Y-116717326D01*
X76301864Y-116717000D01*
X77248675Y-116717000D01*
X77316796Y-116737002D01*
X77363289Y-116790658D01*
X77373938Y-116829395D01*
X77376252Y-116850699D01*
X77377202Y-116859447D01*
X77427929Y-116994764D01*
X77433309Y-117001943D01*
X77433311Y-117001946D01*
X77483094Y-117068371D01*
X77514596Y-117110404D01*
X77521776Y-117115785D01*
X77623054Y-117191689D01*
X77623057Y-117191691D01*
X77630236Y-117197071D01*
X77638639Y-117200221D01*
X77758158Y-117245026D01*
X77758159Y-117245026D01*
X77765553Y-117247798D01*
X77773403Y-117248651D01*
X77773404Y-117248651D01*
X77822145Y-117253946D01*
X77827245Y-117254500D01*
X78337425Y-117254500D01*
X78847754Y-117254499D01*
X78851154Y-117254130D01*
X78854545Y-117253946D01*
X78854592Y-117254820D01*
X78920779Y-117266688D01*
X78972793Y-117315011D01*
X78990500Y-117379421D01*
X78990500Y-118167087D01*
X78970498Y-118235208D01*
X78924887Y-118277674D01*
X78920835Y-118279887D01*
X78863207Y-118311355D01*
X78832049Y-118337396D01*
X78821243Y-118345485D01*
X78816329Y-118348768D01*
X78746333Y-118369999D01*
X77365582Y-118370000D01*
X76807529Y-118370000D01*
X76766673Y-118363192D01*
X76742876Y-118355035D01*
X76712591Y-118346726D01*
X76666980Y-118343872D01*
X76613459Y-118340523D01*
X76613458Y-118340523D01*
X76607001Y-118340119D01*
X76600596Y-118341040D01*
X76600594Y-118341040D01*
X76553885Y-118347756D01*
X76536727Y-118350223D01*
X76491709Y-118360862D01*
X76483879Y-118365320D01*
X76483878Y-118365321D01*
X76443983Y-118388039D01*
X76403722Y-118410965D01*
X76388320Y-118424311D01*
X76353249Y-118454700D01*
X76350066Y-118457458D01*
X76317944Y-118490747D01*
X76271013Y-118580466D01*
X76269270Y-118586402D01*
X76252712Y-118642795D01*
X76251011Y-118648587D01*
X76250371Y-118653035D01*
X76250370Y-118653042D01*
X76241749Y-118713008D01*
X76240500Y-118721696D01*
X76240500Y-119278305D01*
X76240622Y-119280250D01*
X76240622Y-119280261D01*
X76241948Y-119301456D01*
X76242523Y-119310647D01*
X76242766Y-119312579D01*
X76242767Y-119312593D01*
X76244515Y-119326507D01*
X76246437Y-119341807D01*
X76280740Y-119441879D01*
X76284040Y-119447441D01*
X76284041Y-119447443D01*
X76296052Y-119467686D01*
X76313610Y-119536477D01*
X76299338Y-119590381D01*
X76273881Y-119639047D01*
X76273877Y-119639057D01*
X76271013Y-119644532D01*
X76251011Y-119712653D01*
X76250371Y-119717101D01*
X76250370Y-119717108D01*
X76241400Y-119779502D01*
X76240500Y-119785762D01*
X76240500Y-120614500D01*
X76220498Y-120682621D01*
X76166842Y-120729114D01*
X76114500Y-120740500D01*
X73380500Y-120740500D01*
X73312379Y-120720498D01*
X73265886Y-120666842D01*
X73254500Y-120614500D01*
X73254500Y-107816642D01*
X73274502Y-107748521D01*
X73328158Y-107702028D01*
X73398432Y-107691924D01*
X73438902Y-107704994D01*
G37*
G04 #@! TD.AperFunction*
G04 #@! TA.AperFunction,Conductor*
G36*
X81692121Y-114520002D02*
G01*
X81738614Y-114573658D01*
X81750000Y-114626000D01*
X81750000Y-115500000D01*
X83874000Y-115500000D01*
X83942121Y-115520002D01*
X83988614Y-115573658D01*
X84000000Y-115626000D01*
X84000000Y-117124000D01*
X83979998Y-117192121D01*
X83926342Y-117238614D01*
X83874000Y-117250000D01*
X80000000Y-117250000D01*
X80000000Y-117542977D01*
X79981559Y-117603770D01*
X79981910Y-117603915D01*
X79980435Y-117607476D01*
X79978766Y-117612978D01*
X79970266Y-117625699D01*
X79955500Y-117699933D01*
X79955501Y-118400066D01*
X79970266Y-118474301D01*
X79974297Y-118480333D01*
X79981504Y-118547373D01*
X79975476Y-118567902D01*
X79970266Y-118575699D01*
X79955500Y-118649933D01*
X79955501Y-119350066D01*
X79956707Y-119356132D01*
X79957251Y-119361651D01*
X79944022Y-119431404D01*
X79895181Y-119482932D01*
X79831858Y-119500000D01*
X79079910Y-119500000D01*
X79011789Y-119479998D01*
X78990590Y-119459173D01*
X78989154Y-119460609D01*
X78980377Y-119451832D01*
X78973484Y-119441516D01*
X78889301Y-119385266D01*
X78815067Y-119370500D01*
X77790166Y-119370500D01*
X76764934Y-119370501D01*
X76690699Y-119385266D01*
X76680379Y-119392162D01*
X76674217Y-119394714D01*
X76603628Y-119402303D01*
X76540141Y-119370523D01*
X76503914Y-119309465D01*
X76500000Y-119278305D01*
X76500000Y-118721696D01*
X76520002Y-118653575D01*
X76573658Y-118607082D01*
X76643932Y-118596978D01*
X76674217Y-118605287D01*
X76680383Y-118607841D01*
X76690699Y-118614734D01*
X76702868Y-118617155D01*
X76702869Y-118617155D01*
X76757814Y-118628084D01*
X76764933Y-118629500D01*
X77789834Y-118629500D01*
X78815066Y-118629499D01*
X78850818Y-118622388D01*
X78877126Y-118617156D01*
X78877128Y-118617155D01*
X78889301Y-118614734D01*
X78899621Y-118607839D01*
X78899622Y-118607838D01*
X78963168Y-118565377D01*
X78973484Y-118558484D01*
X78980377Y-118548168D01*
X78989154Y-118539391D01*
X78991823Y-118542060D01*
X79029619Y-118510472D01*
X79079910Y-118500000D01*
X79250000Y-118500000D01*
X79250000Y-117009792D01*
X79258018Y-116965564D01*
X79295025Y-116866845D01*
X79295026Y-116866843D01*
X79297798Y-116859447D01*
X79304500Y-116797755D01*
X79304499Y-115002246D01*
X79297798Y-114940553D01*
X79295024Y-114933153D01*
X79295023Y-114933149D01*
X79258018Y-114834436D01*
X79250000Y-114790208D01*
X79250000Y-114626000D01*
X79270002Y-114557879D01*
X79323658Y-114511386D01*
X79376000Y-114500000D01*
X81624000Y-114500000D01*
X81692121Y-114520002D01*
G37*
G04 #@! TD.AperFunction*
G04 #@! TA.AperFunction,Conductor*
G36*
X78810823Y-119650002D02*
G01*
X78828775Y-119663981D01*
X78828830Y-119664032D01*
X78829935Y-119665118D01*
X78831079Y-119666136D01*
X78831086Y-119666143D01*
X78843180Y-119676910D01*
X78843183Y-119676912D01*
X78848961Y-119682056D01*
X78855819Y-119685643D01*
X78855820Y-119685644D01*
X78932402Y-119725703D01*
X78983492Y-119775001D01*
X79000000Y-119837351D01*
X79000000Y-121374000D01*
X78979998Y-121442121D01*
X78926342Y-121488614D01*
X78874000Y-121500000D01*
X78000000Y-121500000D01*
X78000000Y-127619500D01*
X77979998Y-127687621D01*
X77926342Y-127734114D01*
X77874000Y-127745500D01*
X73380500Y-127745500D01*
X73312379Y-127725498D01*
X73265886Y-127671842D01*
X73254500Y-127619500D01*
X73254500Y-121126000D01*
X73274502Y-121057879D01*
X73328158Y-121011386D01*
X73380500Y-121000000D01*
X76500000Y-121000000D01*
X76500000Y-119785762D01*
X76520002Y-119717641D01*
X76573658Y-119671148D01*
X76624876Y-119659767D01*
X76625200Y-119659764D01*
X76631367Y-119660316D01*
X76701956Y-119652727D01*
X76773511Y-119634466D01*
X76773720Y-119635283D01*
X76806327Y-119630001D01*
X77303950Y-119630001D01*
X78742702Y-119630000D01*
X78810823Y-119650002D01*
G37*
G04 #@! TD.AperFunction*
M02*
