G04 #@! TF.GenerationSoftware,KiCad,Pcbnew,(6.0.9)*
G04 #@! TF.CreationDate,2023-02-13T11:25:36-05:00*
G04 #@! TF.ProjectId,1W Experiments,31572045-7870-4657-9269-6d656e74732e,rev?*
G04 #@! TF.SameCoordinates,Original*
G04 #@! TF.FileFunction,Soldermask,Bot*
G04 #@! TF.FilePolarity,Negative*
%FSLAX46Y46*%
G04 Gerber Fmt 4.6, Leading zero omitted, Abs format (unit mm)*
G04 Created by KiCad (PCBNEW (6.0.9)) date 2023-02-13 11:25:36*
%MOMM*%
%LPD*%
G01*
G04 APERTURE LIST*
G04 Aperture macros list*
%AMRoundRect*
0 Rectangle with rounded corners*
0 $1 Rounding radius*
0 $2 $3 $4 $5 $6 $7 $8 $9 X,Y pos of 4 corners*
0 Add a 4 corners polygon primitive as box body*
4,1,4,$2,$3,$4,$5,$6,$7,$8,$9,$2,$3,0*
0 Add four circle primitives for the rounded corners*
1,1,$1+$1,$2,$3*
1,1,$1+$1,$4,$5*
1,1,$1+$1,$6,$7*
1,1,$1+$1,$8,$9*
0 Add four rect primitives between the rounded corners*
20,1,$1+$1,$2,$3,$4,$5,0*
20,1,$1+$1,$4,$5,$6,$7,0*
20,1,$1+$1,$6,$7,$8,$9,0*
20,1,$1+$1,$8,$9,$2,$3,0*%
G04 Aperture macros list end*
%ADD10O,1.550000X0.890000*%
%ADD11O,0.950000X1.250000*%
%ADD12R,1.500000X1.050000*%
%ADD13O,1.500000X1.050000*%
%ADD14R,1.700000X1.700000*%
%ADD15O,1.700000X1.700000*%
%ADD16RoundRect,0.237500X-0.300000X-0.237500X0.300000X-0.237500X0.300000X0.237500X-0.300000X0.237500X0*%
%ADD17RoundRect,0.250000X0.337500X0.475000X-0.337500X0.475000X-0.337500X-0.475000X0.337500X-0.475000X0*%
%ADD18R,0.400000X3.200000*%
%ADD19RoundRect,0.237500X0.237500X-0.300000X0.237500X0.300000X-0.237500X0.300000X-0.237500X-0.300000X0*%
%ADD20R,4.000000X4.000000*%
%ADD21C,2.500000*%
%ADD22RoundRect,0.250000X-0.337500X-0.475000X0.337500X-0.475000X0.337500X0.475000X-0.337500X0.475000X0*%
%ADD23RoundRect,0.125000X-0.125000X0.625000X-0.125000X-0.625000X0.125000X-0.625000X0.125000X0.625000X0*%
%ADD24RoundRect,0.125000X-0.625000X0.125000X-0.625000X-0.125000X0.625000X-0.125000X0.625000X0.125000X0*%
%ADD25RoundRect,0.237500X0.300000X0.237500X-0.300000X0.237500X-0.300000X-0.237500X0.300000X-0.237500X0*%
%ADD26RoundRect,0.237500X-0.237500X0.300000X-0.237500X-0.300000X0.237500X-0.300000X0.237500X0.300000X0*%
G04 APERTURE END LIST*
D10*
X106500000Y-120000000D03*
D11*
X103800000Y-114000000D03*
D10*
X106500000Y-113000000D03*
D11*
X103800000Y-119000000D03*
D12*
X93360000Y-119270000D03*
D13*
X93360000Y-118000000D03*
X93360000Y-116730000D03*
D14*
X75250000Y-87500000D03*
D15*
X75250000Y-90040000D03*
X75250000Y-92580000D03*
X75250000Y-95120000D03*
D16*
X93637500Y-106000000D03*
X95362500Y-106000000D03*
D17*
X87037500Y-92000000D03*
X84962500Y-92000000D03*
D18*
X87800000Y-89000000D03*
X89000000Y-89000000D03*
X90200000Y-89000000D03*
D19*
X92000000Y-87862500D03*
X92000000Y-86137500D03*
D20*
X91500000Y-81500000D03*
D21*
X86000000Y-111000000D03*
D20*
X96500000Y-81500000D03*
D21*
X88700000Y-114300000D03*
D22*
X93462500Y-108000000D03*
X95537500Y-108000000D03*
D23*
X87700000Y-95825000D03*
X88500000Y-95825000D03*
X89300000Y-95825000D03*
X90100000Y-95825000D03*
X90900000Y-95825000D03*
X91700000Y-95825000D03*
X92500000Y-95825000D03*
X93300000Y-95825000D03*
D24*
X94675000Y-97200000D03*
X94675000Y-98000000D03*
X94675000Y-98800000D03*
X94675000Y-99600000D03*
X94675000Y-100400000D03*
X94675000Y-101200000D03*
X94675000Y-102000000D03*
X94675000Y-102800000D03*
D23*
X93300000Y-104175000D03*
X92500000Y-104175000D03*
X91700000Y-104175000D03*
X90900000Y-104175000D03*
X90100000Y-104175000D03*
X89300000Y-104175000D03*
X88500000Y-104175000D03*
X87700000Y-104175000D03*
D24*
X86325000Y-102800000D03*
X86325000Y-102000000D03*
X86325000Y-101200000D03*
X86325000Y-100400000D03*
X86325000Y-99600000D03*
X86325000Y-98800000D03*
X86325000Y-98000000D03*
X86325000Y-97200000D03*
D21*
X86000000Y-107400000D03*
D25*
X87362500Y-94000000D03*
X85637500Y-94000000D03*
D26*
X96500000Y-102637500D03*
X96500000Y-104362500D03*
M02*
