G04 #@! TF.GenerationSoftware,KiCad,Pcbnew,(6.0.9)*
G04 #@! TF.CreationDate,2023-02-13T11:25:36-05:00*
G04 #@! TF.ProjectId,1W Experiments,31572045-7870-4657-9269-6d656e74732e,rev?*
G04 #@! TF.SameCoordinates,Original*
G04 #@! TF.FileFunction,Legend,Top*
G04 #@! TF.FilePolarity,Positive*
%FSLAX46Y46*%
G04 Gerber Fmt 4.6, Leading zero omitted, Abs format (unit mm)*
G04 Created by KiCad (PCBNEW (6.0.9)) date 2023-02-13 11:25:36*
%MOMM*%
%LPD*%
G01*
G04 APERTURE LIST*
G04 Aperture macros list*
%AMRoundRect*
0 Rectangle with rounded corners*
0 $1 Rounding radius*
0 $2 $3 $4 $5 $6 $7 $8 $9 X,Y pos of 4 corners*
0 Add a 4 corners polygon primitive as box body*
4,1,4,$2,$3,$4,$5,$6,$7,$8,$9,$2,$3,0*
0 Add four circle primitives for the rounded corners*
1,1,$1+$1,$2,$3*
1,1,$1+$1,$4,$5*
1,1,$1+$1,$6,$7*
1,1,$1+$1,$8,$9*
0 Add four rect primitives between the rounded corners*
20,1,$1+$1,$2,$3,$4,$5,0*
20,1,$1+$1,$4,$5,$6,$7,0*
20,1,$1+$1,$6,$7,$8,$9,0*
20,1,$1+$1,$8,$9,$2,$3,0*%
G04 Aperture macros list end*
%ADD10C,0.300000*%
%ADD11C,0.150000*%
%ADD12C,0.120000*%
%ADD13C,0.127000*%
%ADD14C,0.200000*%
%ADD15RoundRect,0.250000X0.475000X-0.337500X0.475000X0.337500X-0.475000X0.337500X-0.475000X-0.337500X0*%
%ADD16RoundRect,0.250000X-0.475000X0.337500X-0.475000X-0.337500X0.475000X-0.337500X0.475000X0.337500X0*%
%ADD17R,1.350000X0.400000*%
%ADD18O,1.550000X0.890000*%
%ADD19R,1.550000X1.500000*%
%ADD20O,0.950000X1.250000*%
%ADD21R,1.550000X1.200000*%
%ADD22RoundRect,0.237500X-0.237500X0.300000X-0.237500X-0.300000X0.237500X-0.300000X0.237500X0.300000X0*%
%ADD23RoundRect,0.237500X-0.237500X0.250000X-0.237500X-0.250000X0.237500X-0.250000X0.237500X0.250000X0*%
%ADD24R,4.000000X4.000000*%
%ADD25RoundRect,0.237500X0.237500X-0.300000X0.237500X0.300000X-0.237500X0.300000X-0.237500X-0.300000X0*%
%ADD26R,1.500000X1.050000*%
%ADD27O,1.500000X1.050000*%
%ADD28RoundRect,0.237500X0.237500X-0.287500X0.237500X0.287500X-0.237500X0.287500X-0.237500X-0.287500X0*%
%ADD29RoundRect,0.237500X0.250000X0.237500X-0.250000X0.237500X-0.250000X-0.237500X0.250000X-0.237500X0*%
%ADD30RoundRect,0.237500X-0.237500X0.287500X-0.237500X-0.287500X0.237500X-0.287500X0.237500X0.287500X0*%
%ADD31R,1.000000X1.000000*%
%ADD32R,1.700000X1.700000*%
%ADD33O,1.700000X1.700000*%
%ADD34R,2.000000X0.650000*%
%ADD35RoundRect,0.250001X0.462499X0.849999X-0.462499X0.849999X-0.462499X-0.849999X0.462499X-0.849999X0*%
%ADD36R,2.080000X1.510000*%
%ADD37RoundRect,0.237500X0.237500X-0.250000X0.237500X0.250000X-0.237500X0.250000X-0.237500X-0.250000X0*%
G04 APERTURE END LIST*
D10*
X83071428Y-74178571D02*
X83071428Y-75250000D01*
X83000000Y-75464285D01*
X82857142Y-75607142D01*
X82642857Y-75678571D01*
X82500000Y-75678571D01*
X84500000Y-75678571D02*
X83785714Y-75678571D01*
X83785714Y-74178571D01*
X85857142Y-75535714D02*
X85785714Y-75607142D01*
X85571428Y-75678571D01*
X85428571Y-75678571D01*
X85214285Y-75607142D01*
X85071428Y-75464285D01*
X85000000Y-75321428D01*
X84928571Y-75035714D01*
X84928571Y-74821428D01*
X85000000Y-74535714D01*
X85071428Y-74392857D01*
X85214285Y-74250000D01*
X85428571Y-74178571D01*
X85571428Y-74178571D01*
X85785714Y-74250000D01*
X85857142Y-74321428D01*
X86928571Y-74178571D02*
X86928571Y-75250000D01*
X86857142Y-75464285D01*
X86714285Y-75607142D01*
X86500000Y-75678571D01*
X86357142Y-75678571D01*
X88357142Y-75678571D02*
X87642857Y-75678571D01*
X87642857Y-74178571D01*
X89714285Y-75535714D02*
X89642857Y-75607142D01*
X89428571Y-75678571D01*
X89285714Y-75678571D01*
X89071428Y-75607142D01*
X88928571Y-75464285D01*
X88857142Y-75321428D01*
X88785714Y-75035714D01*
X88785714Y-74821428D01*
X88857142Y-74535714D01*
X88928571Y-74392857D01*
X89071428Y-74250000D01*
X89285714Y-74178571D01*
X89428571Y-74178571D01*
X89642857Y-74250000D01*
X89714285Y-74321428D01*
X90785714Y-74178571D02*
X90785714Y-75250000D01*
X90714285Y-75464285D01*
X90571428Y-75607142D01*
X90357142Y-75678571D01*
X90214285Y-75678571D01*
X92214285Y-75678571D02*
X91500000Y-75678571D01*
X91500000Y-74178571D01*
X93571428Y-75535714D02*
X93500000Y-75607142D01*
X93285714Y-75678571D01*
X93142857Y-75678571D01*
X92928571Y-75607142D01*
X92785714Y-75464285D01*
X92714285Y-75321428D01*
X92642857Y-75035714D01*
X92642857Y-74821428D01*
X92714285Y-74535714D01*
X92785714Y-74392857D01*
X92928571Y-74250000D01*
X93142857Y-74178571D01*
X93285714Y-74178571D01*
X93500000Y-74250000D01*
X93571428Y-74321428D01*
X94642857Y-74178571D02*
X94642857Y-75250000D01*
X94571428Y-75464285D01*
X94428571Y-75607142D01*
X94214285Y-75678571D01*
X94071428Y-75678571D01*
X96071428Y-75678571D02*
X95357142Y-75678571D01*
X95357142Y-74178571D01*
X97428571Y-75535714D02*
X97357142Y-75607142D01*
X97142857Y-75678571D01*
X97000000Y-75678571D01*
X96785714Y-75607142D01*
X96642857Y-75464285D01*
X96571428Y-75321428D01*
X96500000Y-75035714D01*
X96500000Y-74821428D01*
X96571428Y-74535714D01*
X96642857Y-74392857D01*
X96785714Y-74250000D01*
X97000000Y-74178571D01*
X97142857Y-74178571D01*
X97357142Y-74250000D01*
X97428571Y-74321428D01*
D11*
X74857142Y-99166666D02*
X74904761Y-99214285D01*
X74952380Y-99357142D01*
X74952380Y-99452380D01*
X74904761Y-99595238D01*
X74809523Y-99690476D01*
X74714285Y-99738095D01*
X74523809Y-99785714D01*
X74380952Y-99785714D01*
X74190476Y-99738095D01*
X74095238Y-99690476D01*
X74000000Y-99595238D01*
X73952380Y-99452380D01*
X73952380Y-99357142D01*
X74000000Y-99214285D01*
X74047619Y-99166666D01*
X74380952Y-98595238D02*
X74333333Y-98690476D01*
X74285714Y-98738095D01*
X74190476Y-98785714D01*
X74142857Y-98785714D01*
X74047619Y-98738095D01*
X74000000Y-98690476D01*
X73952380Y-98595238D01*
X73952380Y-98404761D01*
X74000000Y-98309523D01*
X74047619Y-98261904D01*
X74142857Y-98214285D01*
X74190476Y-98214285D01*
X74285714Y-98261904D01*
X74333333Y-98309523D01*
X74380952Y-98404761D01*
X74380952Y-98595238D01*
X74428571Y-98690476D01*
X74476190Y-98738095D01*
X74571428Y-98785714D01*
X74761904Y-98785714D01*
X74857142Y-98738095D01*
X74904761Y-98690476D01*
X74952380Y-98595238D01*
X74952380Y-98404761D01*
X74904761Y-98309523D01*
X74857142Y-98261904D01*
X74761904Y-98214285D01*
X74571428Y-98214285D01*
X74476190Y-98261904D01*
X74428571Y-98309523D01*
X74380952Y-98404761D01*
X74857142Y-110666666D02*
X74904761Y-110714285D01*
X74952380Y-110857142D01*
X74952380Y-110952380D01*
X74904761Y-111095238D01*
X74809523Y-111190476D01*
X74714285Y-111238095D01*
X74523809Y-111285714D01*
X74380952Y-111285714D01*
X74190476Y-111238095D01*
X74095238Y-111190476D01*
X74000000Y-111095238D01*
X73952380Y-110952380D01*
X73952380Y-110857142D01*
X74000000Y-110714285D01*
X74047619Y-110666666D01*
X74952380Y-110190476D02*
X74952380Y-110000000D01*
X74904761Y-109904761D01*
X74857142Y-109857142D01*
X74714285Y-109761904D01*
X74523809Y-109714285D01*
X74142857Y-109714285D01*
X74047619Y-109761904D01*
X74000000Y-109809523D01*
X73952380Y-109904761D01*
X73952380Y-110095238D01*
X74000000Y-110190476D01*
X74047619Y-110238095D01*
X74142857Y-110285714D01*
X74380952Y-110285714D01*
X74476190Y-110238095D01*
X74523809Y-110190476D01*
X74571428Y-110095238D01*
X74571428Y-109904761D01*
X74523809Y-109809523D01*
X74476190Y-109761904D01*
X74380952Y-109714285D01*
X101152380Y-116833333D02*
X101866666Y-116833333D01*
X102009523Y-116880952D01*
X102104761Y-116976190D01*
X102152380Y-117119047D01*
X102152380Y-117214285D01*
X102152380Y-115833333D02*
X102152380Y-116404761D01*
X102152380Y-116119047D02*
X101152380Y-116119047D01*
X101295238Y-116214285D01*
X101390476Y-116309523D01*
X101438095Y-116404761D01*
X76857142Y-110166666D02*
X76904761Y-110214285D01*
X76952380Y-110357142D01*
X76952380Y-110452380D01*
X76904761Y-110595238D01*
X76809523Y-110690476D01*
X76714285Y-110738095D01*
X76523809Y-110785714D01*
X76380952Y-110785714D01*
X76190476Y-110738095D01*
X76095238Y-110690476D01*
X76000000Y-110595238D01*
X75952380Y-110452380D01*
X75952380Y-110357142D01*
X76000000Y-110214285D01*
X76047619Y-110166666D01*
X75952380Y-109833333D02*
X75952380Y-109166666D01*
X76952380Y-109595238D01*
X106452380Y-95091666D02*
X105976190Y-95425000D01*
X106452380Y-95663095D02*
X105452380Y-95663095D01*
X105452380Y-95282142D01*
X105500000Y-95186904D01*
X105547619Y-95139285D01*
X105642857Y-95091666D01*
X105785714Y-95091666D01*
X105880952Y-95139285D01*
X105928571Y-95186904D01*
X105976190Y-95282142D01*
X105976190Y-95663095D01*
X105785714Y-94234523D02*
X106452380Y-94234523D01*
X105404761Y-94472619D02*
X106119047Y-94710714D01*
X106119047Y-94091666D01*
X76857142Y-99166666D02*
X76904761Y-99214285D01*
X76952380Y-99357142D01*
X76952380Y-99452380D01*
X76904761Y-99595238D01*
X76809523Y-99690476D01*
X76714285Y-99738095D01*
X76523809Y-99785714D01*
X76380952Y-99785714D01*
X76190476Y-99738095D01*
X76095238Y-99690476D01*
X76000000Y-99595238D01*
X75952380Y-99452380D01*
X75952380Y-99357142D01*
X76000000Y-99214285D01*
X76047619Y-99166666D01*
X75952380Y-98309523D02*
X75952380Y-98500000D01*
X76000000Y-98595238D01*
X76047619Y-98642857D01*
X76190476Y-98738095D01*
X76380952Y-98785714D01*
X76761904Y-98785714D01*
X76857142Y-98738095D01*
X76904761Y-98690476D01*
X76952380Y-98595238D01*
X76952380Y-98404761D01*
X76904761Y-98309523D01*
X76857142Y-98261904D01*
X76761904Y-98214285D01*
X76523809Y-98214285D01*
X76428571Y-98261904D01*
X76380952Y-98309523D01*
X76333333Y-98404761D01*
X76333333Y-98595238D01*
X76380952Y-98690476D01*
X76428571Y-98738095D01*
X76523809Y-98785714D01*
X90738095Y-113952380D02*
X90738095Y-114761904D01*
X90785714Y-114857142D01*
X90833333Y-114904761D01*
X90928571Y-114952380D01*
X91119047Y-114952380D01*
X91214285Y-114904761D01*
X91261904Y-114857142D01*
X91309523Y-114761904D01*
X91309523Y-113952380D01*
X91738095Y-114047619D02*
X91785714Y-114000000D01*
X91880952Y-113952380D01*
X92119047Y-113952380D01*
X92214285Y-114000000D01*
X92261904Y-114047619D01*
X92309523Y-114142857D01*
X92309523Y-114238095D01*
X92261904Y-114380952D01*
X91690476Y-114952380D01*
X92309523Y-114952380D01*
X106452380Y-104063095D02*
X105452380Y-104063095D01*
X105452380Y-103825000D01*
X105500000Y-103682142D01*
X105595238Y-103586904D01*
X105690476Y-103539285D01*
X105880952Y-103491666D01*
X106023809Y-103491666D01*
X106214285Y-103539285D01*
X106309523Y-103586904D01*
X106404761Y-103682142D01*
X106452380Y-103825000D01*
X106452380Y-104063095D01*
X105547619Y-103110714D02*
X105500000Y-103063095D01*
X105452380Y-102967857D01*
X105452380Y-102729761D01*
X105500000Y-102634523D01*
X105547619Y-102586904D01*
X105642857Y-102539285D01*
X105738095Y-102539285D01*
X105880952Y-102586904D01*
X106452380Y-103158333D01*
X106452380Y-102539285D01*
X83857142Y-114916666D02*
X83904761Y-114964285D01*
X83952380Y-115107142D01*
X83952380Y-115202380D01*
X83904761Y-115345238D01*
X83809523Y-115440476D01*
X83714285Y-115488095D01*
X83523809Y-115535714D01*
X83380952Y-115535714D01*
X83190476Y-115488095D01*
X83095238Y-115440476D01*
X83000000Y-115345238D01*
X82952380Y-115202380D01*
X82952380Y-115107142D01*
X83000000Y-114964285D01*
X83047619Y-114916666D01*
X83047619Y-114535714D02*
X83000000Y-114488095D01*
X82952380Y-114392857D01*
X82952380Y-114154761D01*
X83000000Y-114059523D01*
X83047619Y-114011904D01*
X83142857Y-113964285D01*
X83238095Y-113964285D01*
X83380952Y-114011904D01*
X83952380Y-114583333D01*
X83952380Y-113964285D01*
X96333333Y-120952380D02*
X96000000Y-120476190D01*
X95761904Y-120952380D02*
X95761904Y-119952380D01*
X96142857Y-119952380D01*
X96238095Y-120000000D01*
X96285714Y-120047619D01*
X96333333Y-120142857D01*
X96333333Y-120285714D01*
X96285714Y-120380952D01*
X96238095Y-120428571D01*
X96142857Y-120476190D01*
X95761904Y-120476190D01*
X97238095Y-119952380D02*
X96761904Y-119952380D01*
X96714285Y-120428571D01*
X96761904Y-120380952D01*
X96857142Y-120333333D01*
X97095238Y-120333333D01*
X97190476Y-120380952D01*
X97238095Y-120428571D01*
X97285714Y-120523809D01*
X97285714Y-120761904D01*
X97238095Y-120857142D01*
X97190476Y-120904761D01*
X97095238Y-120952380D01*
X96857142Y-120952380D01*
X96761904Y-120904761D01*
X96714285Y-120857142D01*
X106452380Y-85138095D02*
X105452380Y-85138095D01*
X105452380Y-84900000D01*
X105500000Y-84757142D01*
X105595238Y-84661904D01*
X105690476Y-84614285D01*
X105880952Y-84566666D01*
X106023809Y-84566666D01*
X106214285Y-84614285D01*
X106309523Y-84661904D01*
X106404761Y-84757142D01*
X106452380Y-84900000D01*
X106452380Y-85138095D01*
X106452380Y-83614285D02*
X106452380Y-84185714D01*
X106452380Y-83900000D02*
X105452380Y-83900000D01*
X105595238Y-83995238D01*
X105690476Y-84090476D01*
X105738095Y-84185714D01*
X100261904Y-120602380D02*
X100261904Y-119602380D01*
X100500000Y-119602380D01*
X100642857Y-119650000D01*
X100738095Y-119745238D01*
X100785714Y-119840476D01*
X100833333Y-120030952D01*
X100833333Y-120173809D01*
X100785714Y-120364285D01*
X100738095Y-120459523D01*
X100642857Y-120554761D01*
X100500000Y-120602380D01*
X100261904Y-120602380D01*
X101166666Y-119602380D02*
X101785714Y-119602380D01*
X101452380Y-119983333D01*
X101595238Y-119983333D01*
X101690476Y-120030952D01*
X101738095Y-120078571D01*
X101785714Y-120173809D01*
X101785714Y-120411904D01*
X101738095Y-120507142D01*
X101690476Y-120554761D01*
X101595238Y-120602380D01*
X101309523Y-120602380D01*
X101214285Y-120554761D01*
X101166666Y-120507142D01*
X74166666Y-84452380D02*
X74166666Y-85166666D01*
X74119047Y-85309523D01*
X74023809Y-85404761D01*
X73880952Y-85452380D01*
X73785714Y-85452380D01*
X74595238Y-84547619D02*
X74642857Y-84500000D01*
X74738095Y-84452380D01*
X74976190Y-84452380D01*
X75071428Y-84500000D01*
X75119047Y-84547619D01*
X75166666Y-84642857D01*
X75166666Y-84738095D01*
X75119047Y-84880952D01*
X74547619Y-85452380D01*
X75166666Y-85452380D01*
X75857142Y-114166666D02*
X75904761Y-114214285D01*
X75952380Y-114357142D01*
X75952380Y-114452380D01*
X75904761Y-114595238D01*
X75809523Y-114690476D01*
X75714285Y-114738095D01*
X75523809Y-114785714D01*
X75380952Y-114785714D01*
X75190476Y-114738095D01*
X75095238Y-114690476D01*
X75000000Y-114595238D01*
X74952380Y-114452380D01*
X74952380Y-114357142D01*
X75000000Y-114214285D01*
X75047619Y-114166666D01*
X74952380Y-113833333D02*
X74952380Y-113214285D01*
X75333333Y-113547619D01*
X75333333Y-113404761D01*
X75380952Y-113309523D01*
X75428571Y-113261904D01*
X75523809Y-113214285D01*
X75761904Y-113214285D01*
X75857142Y-113261904D01*
X75904761Y-113309523D01*
X75952380Y-113404761D01*
X75952380Y-113690476D01*
X75904761Y-113785714D01*
X75857142Y-113833333D01*
X83833333Y-121952380D02*
X83500000Y-121476190D01*
X83261904Y-121952380D02*
X83261904Y-120952380D01*
X83642857Y-120952380D01*
X83738095Y-121000000D01*
X83785714Y-121047619D01*
X83833333Y-121142857D01*
X83833333Y-121285714D01*
X83785714Y-121380952D01*
X83738095Y-121428571D01*
X83642857Y-121476190D01*
X83261904Y-121476190D01*
X84214285Y-121047619D02*
X84261904Y-121000000D01*
X84357142Y-120952380D01*
X84595238Y-120952380D01*
X84690476Y-121000000D01*
X84738095Y-121047619D01*
X84785714Y-121142857D01*
X84785714Y-121238095D01*
X84738095Y-121380952D01*
X84166666Y-121952380D01*
X84785714Y-121952380D01*
X76738095Y-120952380D02*
X76738095Y-121761904D01*
X76785714Y-121857142D01*
X76833333Y-121904761D01*
X76928571Y-121952380D01*
X77119047Y-121952380D01*
X77214285Y-121904761D01*
X77261904Y-121857142D01*
X77309523Y-121761904D01*
X77309523Y-120952380D01*
X78309523Y-121952380D02*
X77738095Y-121952380D01*
X78023809Y-121952380D02*
X78023809Y-120952380D01*
X77928571Y-121095238D01*
X77833333Y-121190476D01*
X77738095Y-121238095D01*
X79333333Y-114452380D02*
X78857142Y-114452380D01*
X78857142Y-113452380D01*
X80190476Y-114452380D02*
X79619047Y-114452380D01*
X79904761Y-114452380D02*
X79904761Y-113452380D01*
X79809523Y-113595238D01*
X79714285Y-113690476D01*
X79619047Y-113738095D01*
X96717142Y-115166666D02*
X96764761Y-115214285D01*
X96812380Y-115357142D01*
X96812380Y-115452380D01*
X96764761Y-115595238D01*
X96669523Y-115690476D01*
X96574285Y-115738095D01*
X96383809Y-115785714D01*
X96240952Y-115785714D01*
X96050476Y-115738095D01*
X95955238Y-115690476D01*
X95860000Y-115595238D01*
X95812380Y-115452380D01*
X95812380Y-115357142D01*
X95860000Y-115214285D01*
X95907619Y-115166666D01*
X95812380Y-114261904D02*
X95812380Y-114738095D01*
X96288571Y-114785714D01*
X96240952Y-114738095D01*
X96193333Y-114642857D01*
X96193333Y-114404761D01*
X96240952Y-114309523D01*
X96288571Y-114261904D01*
X96383809Y-114214285D01*
X96621904Y-114214285D01*
X96717142Y-114261904D01*
X96764761Y-114309523D01*
X96812380Y-114404761D01*
X96812380Y-114642857D01*
X96764761Y-114738095D01*
X96717142Y-114785714D01*
X89857142Y-116166666D02*
X89904761Y-116214285D01*
X89952380Y-116357142D01*
X89952380Y-116452380D01*
X89904761Y-116595238D01*
X89809523Y-116690476D01*
X89714285Y-116738095D01*
X89523809Y-116785714D01*
X89380952Y-116785714D01*
X89190476Y-116738095D01*
X89095238Y-116690476D01*
X89000000Y-116595238D01*
X88952380Y-116452380D01*
X88952380Y-116357142D01*
X89000000Y-116214285D01*
X89047619Y-116166666D01*
X89285714Y-115309523D02*
X89952380Y-115309523D01*
X88904761Y-115547619D02*
X89619047Y-115785714D01*
X89619047Y-115166666D01*
X84923333Y-117292380D02*
X84590000Y-116816190D01*
X84351904Y-117292380D02*
X84351904Y-116292380D01*
X84732857Y-116292380D01*
X84828095Y-116340000D01*
X84875714Y-116387619D01*
X84923333Y-116482857D01*
X84923333Y-116625714D01*
X84875714Y-116720952D01*
X84828095Y-116768571D01*
X84732857Y-116816190D01*
X84351904Y-116816190D01*
X85875714Y-117292380D02*
X85304285Y-117292380D01*
X85590000Y-117292380D02*
X85590000Y-116292380D01*
X85494761Y-116435238D01*
X85399523Y-116530476D01*
X85304285Y-116578095D01*
X99428095Y-113087380D02*
X99428095Y-113896904D01*
X99475714Y-113992142D01*
X99523333Y-114039761D01*
X99618571Y-114087380D01*
X99809047Y-114087380D01*
X99904285Y-114039761D01*
X99951904Y-113992142D01*
X99999523Y-113896904D01*
X99999523Y-113087380D01*
X100380476Y-113087380D02*
X100999523Y-113087380D01*
X100666190Y-113468333D01*
X100809047Y-113468333D01*
X100904285Y-113515952D01*
X100951904Y-113563571D01*
X100999523Y-113658809D01*
X100999523Y-113896904D01*
X100951904Y-113992142D01*
X100904285Y-114039761D01*
X100809047Y-114087380D01*
X100523333Y-114087380D01*
X100428095Y-114039761D01*
X100380476Y-113992142D01*
X106452380Y-93166666D02*
X105976190Y-93500000D01*
X106452380Y-93738095D02*
X105452380Y-93738095D01*
X105452380Y-93357142D01*
X105500000Y-93261904D01*
X105547619Y-93214285D01*
X105642857Y-93166666D01*
X105785714Y-93166666D01*
X105880952Y-93214285D01*
X105928571Y-93261904D01*
X105976190Y-93357142D01*
X105976190Y-93738095D01*
X105452380Y-92833333D02*
X105452380Y-92214285D01*
X105833333Y-92547619D01*
X105833333Y-92404761D01*
X105880952Y-92309523D01*
X105928571Y-92261904D01*
X106023809Y-92214285D01*
X106261904Y-92214285D01*
X106357142Y-92261904D01*
X106404761Y-92309523D01*
X106452380Y-92404761D01*
X106452380Y-92690476D01*
X106404761Y-92785714D01*
X106357142Y-92833333D01*
X74357142Y-121166666D02*
X74404761Y-121214285D01*
X74452380Y-121357142D01*
X74452380Y-121452380D01*
X74404761Y-121595238D01*
X74309523Y-121690476D01*
X74214285Y-121738095D01*
X74023809Y-121785714D01*
X73880952Y-121785714D01*
X73690476Y-121738095D01*
X73595238Y-121690476D01*
X73500000Y-121595238D01*
X73452380Y-121452380D01*
X73452380Y-121357142D01*
X73500000Y-121214285D01*
X73547619Y-121166666D01*
X74452380Y-120214285D02*
X74452380Y-120785714D01*
X74452380Y-120500000D02*
X73452380Y-120500000D01*
X73595238Y-120595238D01*
X73690476Y-120690476D01*
X73738095Y-120785714D01*
D12*
X73765000Y-103261252D02*
X73765000Y-102738748D01*
X75235000Y-103261252D02*
X75235000Y-102738748D01*
X75235000Y-107238748D02*
X75235000Y-107761252D01*
X73765000Y-107238748D02*
X73765000Y-107761252D01*
X105520000Y-120260000D02*
X103540000Y-120260000D01*
X103540000Y-112740000D02*
X103540000Y-113160000D01*
X107890000Y-120260000D02*
X107490000Y-120260000D01*
X103540000Y-120260000D02*
X103540000Y-119840000D01*
X107490000Y-112740000D02*
X107890000Y-112740000D01*
X102860000Y-117810000D02*
X102860000Y-118260000D01*
X103310000Y-118260000D02*
X102860000Y-118260000D01*
X105520000Y-112740000D02*
X103540000Y-112740000D01*
X75990000Y-107353733D02*
X75990000Y-107646267D01*
X77010000Y-107353733D02*
X77010000Y-107646267D01*
X106522500Y-97145276D02*
X106522500Y-97654724D01*
X105477500Y-97145276D02*
X105477500Y-97654724D01*
X91300000Y-127700000D02*
X91300000Y-123300000D01*
X91300000Y-123300000D02*
X95700000Y-123300000D01*
X95700000Y-127700000D02*
X91300000Y-127700000D01*
X95700000Y-123300000D02*
X95700000Y-127700000D01*
X77010000Y-103146267D02*
X77010000Y-102853733D01*
X75990000Y-103146267D02*
X75990000Y-102853733D01*
X95210000Y-119800000D02*
X95210000Y-116200000D01*
X90759999Y-118000000D02*
G75*
G03*
X95198478Y-119838478I2600001J0D01*
G01*
X95198478Y-116161522D02*
G75*
G03*
X90760000Y-118000000I-1838478J-1838478D01*
G01*
X97300000Y-123300000D02*
X101700000Y-123300000D01*
X97300000Y-127700000D02*
X97300000Y-123300000D01*
X101700000Y-127700000D02*
X97300000Y-127700000D01*
X101700000Y-123300000D02*
X101700000Y-127700000D01*
X105265000Y-102360000D02*
X106735000Y-102360000D01*
X105265000Y-99900000D02*
X105265000Y-102360000D01*
X106735000Y-102360000D02*
X106735000Y-99900000D01*
X83810000Y-117103733D02*
X83810000Y-117396267D01*
X82790000Y-117103733D02*
X82790000Y-117396267D01*
X96254724Y-122522500D02*
X95745276Y-122522500D01*
X96254724Y-121477500D02*
X95745276Y-121477500D01*
X105265000Y-85340000D02*
X105265000Y-87800000D01*
X106735000Y-85340000D02*
X105265000Y-85340000D01*
X106735000Y-87800000D02*
X106735000Y-85340000D01*
X107700000Y-123300000D02*
X107700000Y-127700000D01*
X103300000Y-123300000D02*
X107700000Y-123300000D01*
X107700000Y-127700000D02*
X103300000Y-127700000D01*
X103300000Y-127700000D02*
X103300000Y-123300000D01*
X99100000Y-121150000D02*
X102250000Y-121150000D01*
X99100000Y-121150000D02*
X99100000Y-122850000D01*
X99100000Y-122850000D02*
X102250000Y-122850000D01*
X73920000Y-88770000D02*
X73920000Y-96450000D01*
X73920000Y-96450000D02*
X76580000Y-96450000D01*
X73920000Y-87500000D02*
X73920000Y-86170000D01*
X73920000Y-86170000D02*
X75250000Y-86170000D01*
X73920000Y-88770000D02*
X76580000Y-88770000D01*
X76580000Y-88770000D02*
X76580000Y-96450000D01*
X79300000Y-127700000D02*
X79300000Y-123300000D01*
X83700000Y-127700000D02*
X79300000Y-127700000D01*
X83700000Y-123300000D02*
X83700000Y-127700000D01*
X79300000Y-123300000D02*
X83700000Y-123300000D01*
X74765000Y-116738748D02*
X74765000Y-117261252D01*
X76235000Y-116738748D02*
X76235000Y-117261252D01*
X81754724Y-122022500D02*
X81245276Y-122022500D01*
X81754724Y-120977500D02*
X81245276Y-120977500D01*
X80380000Y-117490000D02*
X77950000Y-117490000D01*
X78620000Y-120560000D02*
X80380000Y-120560000D01*
X79761252Y-117010000D02*
X79238748Y-117010000D01*
X79761252Y-114790000D02*
X79238748Y-114790000D01*
X95765000Y-117738748D02*
X95765000Y-118261252D01*
X97235000Y-117738748D02*
X97235000Y-118261252D01*
X90235000Y-118738748D02*
X90235000Y-119261252D01*
X88765000Y-118738748D02*
X88765000Y-119261252D01*
X73300000Y-123300000D02*
X77700000Y-123300000D01*
X73300000Y-127700000D02*
X73300000Y-123300000D01*
X77700000Y-127700000D02*
X73300000Y-127700000D01*
X77700000Y-123300000D02*
X77700000Y-127700000D01*
X84454724Y-120522500D02*
X83945276Y-120522500D01*
X84454724Y-119477500D02*
X83945276Y-119477500D01*
D13*
X78500000Y-111750000D02*
X78500000Y-110215000D01*
X78500000Y-73250000D02*
X78500000Y-77605000D01*
X102500000Y-73250000D02*
X102500000Y-77605000D01*
X102500000Y-111750000D02*
X78500000Y-111750000D01*
X102500000Y-110215000D02*
X102500000Y-111750000D01*
X78500000Y-73250000D02*
X102500000Y-73250000D01*
D14*
X76985000Y-78680000D02*
G75*
G03*
X76985000Y-78680000I-100000J0D01*
G01*
D12*
X85300000Y-127700000D02*
X85300000Y-123300000D01*
X89700000Y-123300000D02*
X89700000Y-127700000D01*
X89700000Y-127700000D02*
X85300000Y-127700000D01*
X85300000Y-123300000D02*
X89700000Y-123300000D01*
X105477500Y-90554724D02*
X105477500Y-90045276D01*
X106522500Y-90554724D02*
X106522500Y-90045276D01*
X74765000Y-121261252D02*
X74765000Y-120738748D01*
X76235000Y-121261252D02*
X76235000Y-120738748D01*
%LPC*%
D15*
X74500000Y-104037500D03*
X74500000Y-101962500D03*
D16*
X74500000Y-106462500D03*
X74500000Y-108537500D03*
D17*
X103800000Y-117800000D03*
X103800000Y-117150000D03*
X103800000Y-116500000D03*
X103800000Y-115850000D03*
X103800000Y-115200000D03*
D18*
X106500000Y-120000000D03*
D19*
X106500000Y-117500000D03*
X106500000Y-115500000D03*
D20*
X103800000Y-114000000D03*
D18*
X106500000Y-113000000D03*
D20*
X103800000Y-119000000D03*
D21*
X106500000Y-119400000D03*
X106500000Y-113600000D03*
D22*
X76500000Y-106637500D03*
X76500000Y-108362500D03*
D23*
X106000000Y-96487500D03*
X106000000Y-98312500D03*
D24*
X93500000Y-125500000D03*
D25*
X76500000Y-103862500D03*
X76500000Y-102137500D03*
D26*
X93360000Y-119270000D03*
D27*
X93360000Y-118000000D03*
X93360000Y-116730000D03*
D24*
X99500000Y-125500000D03*
D28*
X106000000Y-101575000D03*
X106000000Y-99825000D03*
D22*
X83300000Y-116387500D03*
X83300000Y-118112500D03*
D29*
X96912500Y-122000000D03*
X95087500Y-122000000D03*
D30*
X106000000Y-86125000D03*
X106000000Y-87875000D03*
D24*
X105500000Y-125500000D03*
D31*
X99750000Y-122000000D03*
X102250000Y-122000000D03*
D32*
X75250000Y-87500000D03*
D33*
X75250000Y-90040000D03*
X75250000Y-92580000D03*
X75250000Y-95120000D03*
D24*
X81500000Y-125500000D03*
D16*
X75500000Y-115962500D03*
X75500000Y-118037500D03*
D29*
X82412500Y-121500000D03*
X80587500Y-121500000D03*
D34*
X77790000Y-118050000D03*
X77790000Y-119000000D03*
X77790000Y-119950000D03*
X81210000Y-119950000D03*
X81210000Y-119000000D03*
X81210000Y-118050000D03*
D35*
X80662500Y-115900000D03*
X78337500Y-115900000D03*
D16*
X96500000Y-116962500D03*
X96500000Y-119037500D03*
X89500000Y-117962500D03*
X89500000Y-120037500D03*
D24*
X75500000Y-125500000D03*
D29*
X85112500Y-120000000D03*
X83287500Y-120000000D03*
D36*
X78925000Y-78680000D03*
X78925000Y-81220000D03*
X78925000Y-83760000D03*
X78925000Y-91360000D03*
X78925000Y-93900000D03*
X78925000Y-96440000D03*
X78925000Y-98980000D03*
X78925000Y-101520000D03*
X78925000Y-104060000D03*
X78925000Y-106600000D03*
X78925000Y-109140000D03*
X102075000Y-109140000D03*
X102075000Y-106600000D03*
X102075000Y-104060000D03*
X102075000Y-101520000D03*
X102075000Y-98980000D03*
X102075000Y-96440000D03*
X102075000Y-93900000D03*
X102075000Y-91360000D03*
X102075000Y-83760000D03*
X102075000Y-81220000D03*
X102075000Y-78680000D03*
D24*
X87500000Y-125500000D03*
D37*
X106000000Y-91212500D03*
X106000000Y-89387500D03*
D15*
X75500000Y-122037500D03*
X75500000Y-119962500D03*
G36*
X79442121Y-111520002D02*
G01*
X79488614Y-111573658D01*
X79500000Y-111626000D01*
X79500000Y-116874000D01*
X79479998Y-116942121D01*
X79426342Y-116988614D01*
X79374000Y-117000000D01*
X74626000Y-117000000D01*
X74557879Y-116979998D01*
X74511386Y-116926342D01*
X74500000Y-116874000D01*
X74500000Y-111626000D01*
X74520002Y-111557879D01*
X74573658Y-111511386D01*
X74626000Y-111500000D01*
X79374000Y-111500000D01*
X79442121Y-111520002D01*
G37*
M02*
