G04 #@! TF.GenerationSoftware,KiCad,Pcbnew,(6.0.9)*
G04 #@! TF.CreationDate,2023-02-13T11:25:36-05:00*
G04 #@! TF.ProjectId,1W Experiments,31572045-7870-4657-9269-6d656e74732e,rev?*
G04 #@! TF.SameCoordinates,Original*
G04 #@! TF.FileFunction,Soldermask,Top*
G04 #@! TF.FilePolarity,Negative*
%FSLAX46Y46*%
G04 Gerber Fmt 4.6, Leading zero omitted, Abs format (unit mm)*
G04 Created by KiCad (PCBNEW (6.0.9)) date 2023-02-13 11:25:36*
%MOMM*%
%LPD*%
G01*
G04 APERTURE LIST*
G04 Aperture macros list*
%AMRoundRect*
0 Rectangle with rounded corners*
0 $1 Rounding radius*
0 $2 $3 $4 $5 $6 $7 $8 $9 X,Y pos of 4 corners*
0 Add a 4 corners polygon primitive as box body*
4,1,4,$2,$3,$4,$5,$6,$7,$8,$9,$2,$3,0*
0 Add four circle primitives for the rounded corners*
1,1,$1+$1,$2,$3*
1,1,$1+$1,$4,$5*
1,1,$1+$1,$6,$7*
1,1,$1+$1,$8,$9*
0 Add four rect primitives between the rounded corners*
20,1,$1+$1,$2,$3,$4,$5,0*
20,1,$1+$1,$4,$5,$6,$7,0*
20,1,$1+$1,$6,$7,$8,$9,0*
20,1,$1+$1,$8,$9,$2,$3,0*%
G04 Aperture macros list end*
%ADD10RoundRect,0.250000X0.475000X-0.337500X0.475000X0.337500X-0.475000X0.337500X-0.475000X-0.337500X0*%
%ADD11RoundRect,0.250000X-0.475000X0.337500X-0.475000X-0.337500X0.475000X-0.337500X0.475000X0.337500X0*%
%ADD12R,1.350000X0.400000*%
%ADD13O,1.550000X0.890000*%
%ADD14R,1.550000X1.500000*%
%ADD15O,0.950000X1.250000*%
%ADD16R,1.550000X1.200000*%
%ADD17RoundRect,0.237500X-0.237500X0.300000X-0.237500X-0.300000X0.237500X-0.300000X0.237500X0.300000X0*%
%ADD18RoundRect,0.237500X-0.237500X0.250000X-0.237500X-0.250000X0.237500X-0.250000X0.237500X0.250000X0*%
%ADD19R,4.000000X4.000000*%
%ADD20RoundRect,0.237500X0.237500X-0.300000X0.237500X0.300000X-0.237500X0.300000X-0.237500X-0.300000X0*%
%ADD21R,1.500000X1.050000*%
%ADD22O,1.500000X1.050000*%
%ADD23RoundRect,0.237500X0.237500X-0.287500X0.237500X0.287500X-0.237500X0.287500X-0.237500X-0.287500X0*%
%ADD24RoundRect,0.237500X0.250000X0.237500X-0.250000X0.237500X-0.250000X-0.237500X0.250000X-0.237500X0*%
%ADD25RoundRect,0.237500X-0.237500X0.287500X-0.237500X-0.287500X0.237500X-0.287500X0.237500X0.287500X0*%
%ADD26R,1.000000X1.000000*%
%ADD27R,1.700000X1.700000*%
%ADD28O,1.700000X1.700000*%
%ADD29R,2.000000X0.650000*%
%ADD30RoundRect,0.250001X0.462499X0.849999X-0.462499X0.849999X-0.462499X-0.849999X0.462499X-0.849999X0*%
%ADD31R,2.080000X1.510000*%
%ADD32RoundRect,0.237500X0.237500X-0.250000X0.237500X0.250000X-0.237500X0.250000X-0.237500X-0.250000X0*%
G04 APERTURE END LIST*
D10*
X74500000Y-104037500D03*
X74500000Y-101962500D03*
D11*
X74500000Y-106462500D03*
X74500000Y-108537500D03*
D12*
X103800000Y-117800000D03*
X103800000Y-117150000D03*
X103800000Y-116500000D03*
X103800000Y-115850000D03*
X103800000Y-115200000D03*
D13*
X106500000Y-120000000D03*
D14*
X106500000Y-117500000D03*
X106500000Y-115500000D03*
D15*
X103800000Y-114000000D03*
D13*
X106500000Y-113000000D03*
D15*
X103800000Y-119000000D03*
D16*
X106500000Y-119400000D03*
X106500000Y-113600000D03*
D17*
X76500000Y-106637500D03*
X76500000Y-108362500D03*
D18*
X106000000Y-96487500D03*
X106000000Y-98312500D03*
D19*
X93500000Y-125500000D03*
D20*
X76500000Y-103862500D03*
X76500000Y-102137500D03*
D21*
X93360000Y-119270000D03*
D22*
X93360000Y-118000000D03*
X93360000Y-116730000D03*
D19*
X99500000Y-125500000D03*
D23*
X106000000Y-101575000D03*
X106000000Y-99825000D03*
D17*
X83300000Y-116387500D03*
X83300000Y-118112500D03*
D24*
X96912500Y-122000000D03*
X95087500Y-122000000D03*
D25*
X106000000Y-86125000D03*
X106000000Y-87875000D03*
D19*
X105500000Y-125500000D03*
D26*
X99750000Y-122000000D03*
X102250000Y-122000000D03*
D27*
X75250000Y-87500000D03*
D28*
X75250000Y-90040000D03*
X75250000Y-92580000D03*
X75250000Y-95120000D03*
D19*
X81500000Y-125500000D03*
D11*
X75500000Y-115962500D03*
X75500000Y-118037500D03*
D24*
X82412500Y-121500000D03*
X80587500Y-121500000D03*
D29*
X77790000Y-118050000D03*
X77790000Y-119000000D03*
X77790000Y-119950000D03*
X81210000Y-119950000D03*
X81210000Y-119000000D03*
X81210000Y-118050000D03*
D30*
X80662500Y-115900000D03*
X78337500Y-115900000D03*
D11*
X96500000Y-116962500D03*
X96500000Y-119037500D03*
X89500000Y-117962500D03*
X89500000Y-120037500D03*
D19*
X75500000Y-125500000D03*
D24*
X85112500Y-120000000D03*
X83287500Y-120000000D03*
D31*
X78925000Y-78680000D03*
X78925000Y-81220000D03*
X78925000Y-83760000D03*
X78925000Y-91360000D03*
X78925000Y-93900000D03*
X78925000Y-96440000D03*
X78925000Y-98980000D03*
X78925000Y-101520000D03*
X78925000Y-104060000D03*
X78925000Y-106600000D03*
X78925000Y-109140000D03*
X102075000Y-109140000D03*
X102075000Y-106600000D03*
X102075000Y-104060000D03*
X102075000Y-101520000D03*
X102075000Y-98980000D03*
X102075000Y-96440000D03*
X102075000Y-93900000D03*
X102075000Y-91360000D03*
X102075000Y-83760000D03*
X102075000Y-81220000D03*
X102075000Y-78680000D03*
D19*
X87500000Y-125500000D03*
D32*
X106000000Y-91212500D03*
X106000000Y-89387500D03*
D10*
X75500000Y-122037500D03*
X75500000Y-119962500D03*
G36*
X79442121Y-111520002D02*
G01*
X79488614Y-111573658D01*
X79500000Y-111626000D01*
X79500000Y-116874000D01*
X79479998Y-116942121D01*
X79426342Y-116988614D01*
X79374000Y-117000000D01*
X74626000Y-117000000D01*
X74557879Y-116979998D01*
X74511386Y-116926342D01*
X74500000Y-116874000D01*
X74500000Y-111626000D01*
X74520002Y-111557879D01*
X74573658Y-111511386D01*
X74626000Y-111500000D01*
X79374000Y-111500000D01*
X79442121Y-111520002D01*
G37*
M02*
