%TF.GenerationSoftware,KiCad,Pcbnew,(6.0.9)*%
%TF.CreationDate,2023-02-13T11:25:59-05:00*%
%TF.ProjectId,1W Experiments,31572045-7870-4657-9269-6d656e74732e,rev?*%
%TF.SameCoordinates,Original*%
%TF.FileFunction,Drillmap*%
%TF.FilePolarity,Positive*%
%FSLAX45Y45*%
G04 Gerber Fmt 4.5, Leading zero omitted, Abs format (unit mm)*
G04 Created by KiCad (PCBNEW (6.0.9)) date 2023-02-13 11:25:59*
%MOMM*%
%LPD*%
G01*
G04 APERTURE LIST*
%ADD10C,0.100000*%
%ADD11C,0.200000*%
G04 APERTURE END LIST*
D10*
X7300000Y-7300000D02*
X10800000Y-7300000D01*
X10800000Y-7300000D02*
X10800000Y-12800000D01*
X10800000Y-12800000D02*
X7300000Y-12800000D01*
X7300000Y-12800000D02*
X7300000Y-7300000D01*
D11*
X7552619Y-13115476D02*
X7552619Y-12915476D01*
X7600238Y-12915476D01*
X7628809Y-12925000D01*
X7647857Y-12944048D01*
X7657381Y-12963095D01*
X7666905Y-13001190D01*
X7666905Y-13029762D01*
X7657381Y-13067857D01*
X7647857Y-13086905D01*
X7628809Y-13105952D01*
X7600238Y-13115476D01*
X7552619Y-13115476D01*
X7752619Y-13115476D02*
X7752619Y-12982143D01*
X7752619Y-13020238D02*
X7762143Y-13001190D01*
X7771667Y-12991667D01*
X7790714Y-12982143D01*
X7809762Y-12982143D01*
X7876428Y-13115476D02*
X7876428Y-12982143D01*
X7876428Y-12915476D02*
X7866905Y-12925000D01*
X7876428Y-12934524D01*
X7885952Y-12925000D01*
X7876428Y-12915476D01*
X7876428Y-12934524D01*
X8000238Y-13115476D02*
X7981190Y-13105952D01*
X7971667Y-13086905D01*
X7971667Y-12915476D01*
X8105000Y-13115476D02*
X8085952Y-13105952D01*
X8076428Y-13086905D01*
X8076428Y-12915476D01*
X8333571Y-13115476D02*
X8333571Y-12915476D01*
X8400238Y-13058333D01*
X8466905Y-12915476D01*
X8466905Y-13115476D01*
X8647857Y-13115476D02*
X8647857Y-13010714D01*
X8638333Y-12991667D01*
X8619286Y-12982143D01*
X8581190Y-12982143D01*
X8562143Y-12991667D01*
X8647857Y-13105952D02*
X8628810Y-13115476D01*
X8581190Y-13115476D01*
X8562143Y-13105952D01*
X8552619Y-13086905D01*
X8552619Y-13067857D01*
X8562143Y-13048809D01*
X8581190Y-13039286D01*
X8628810Y-13039286D01*
X8647857Y-13029762D01*
X8743095Y-12982143D02*
X8743095Y-13182143D01*
X8743095Y-12991667D02*
X8762143Y-12982143D01*
X8800238Y-12982143D01*
X8819286Y-12991667D01*
X8828810Y-13001190D01*
X8838333Y-13020238D01*
X8838333Y-13077381D01*
X8828810Y-13096428D01*
X8819286Y-13105952D01*
X8800238Y-13115476D01*
X8762143Y-13115476D01*
X8743095Y-13105952D01*
X8924048Y-13096428D02*
X8933571Y-13105952D01*
X8924048Y-13115476D01*
X8914524Y-13105952D01*
X8924048Y-13096428D01*
X8924048Y-13115476D01*
X8924048Y-12991667D02*
X8933571Y-13001190D01*
X8924048Y-13010714D01*
X8914524Y-13001190D01*
X8924048Y-12991667D01*
X8924048Y-13010714D01*
M02*
